<?xml version="1.0" encoding="utf-8"?>
<!-- Generator: Adobe Illustrator 24.3.0, SVG Export Plug-In . SVG Version: 6.00 Build 0)  -->
<svg version="1.1" id="レイヤー_1" xmlns="http://www.w3.org/2000/svg" xmlns:xlink="http://www.w3.org/1999/xlink" x="0px"
	 y="0px" viewBox="0 0 1210 685.2" style="enable-background:new 0 0 1210 685.2;" xml:space="preserve">
<style type="text/css">
	.st0{fill:#539982;}
</style>
<path class="st0" d="M234.2,234.1c1,0.5,2.5,0.3,3.4,1.6c0.1,1.5-0.7,2.1-1.6,2.4c-1.7,0.5-3.5,0.6-4.9,2c-2.2,0.3-4,1.9-6.3,1.9
	c-0.4-0.2-0.7-0.4-1.2-0.7c-2.3,3-5.2,4.6-8.8,4.3c-1.4,0.8-2.7,1.4-3.8,2.2c-1.2,0.9-2.7,0.8-4,1.3c-1,0.4-2,0.7-2.9,1.3
	c-0.7,0.5-1.5,0.9-2.3,0.9c-0.9,0-1.8-0.3-2.7-0.4c-2.1,2-2.1,2-4.2,2.7c-1.5,0.5-3,0.7-4.2,1.8c-0.8,0.7-2,0.7-3,0.8
	c-3.1,0.3-6.1,1.2-9,2.2c-2,0.7-4.7,2.4-6.8,2.3c-0.1,0-0.2,0-0.3,0c0.1,2.6-0.8,4.9-0.8,7.5c0,1.6-0.1,3.2-0.3,4.8
	c-0.3,1.9-0.9,3.7-0.7,5.8c0.1,0.9-0.6,1.8-1.1,3c0.4,1.5,0.3,3.2,0.1,4.9c-0.4,3.3-0.6,6.6-0.6,10c0,2.7-0.3,5.5-1.2,8.1
	c0.2,3,0.3,6.1,0.1,9.2c-0.3,3.4-1,6.8-0.3,10.4c0.2,0.9,0.1,1.8-0.1,2.6c-0.4,3-0.5,6.1-0.4,9.3c0.1,2.3,0.1,4.5,0,6.7
	c0,1-0.5,1.9-0.8,3l1,3.2c-0.4,1.7-1,3.5-0.4,5.4c-0.4,2.8-0.3,5.7,0.1,8.5c0.1,0.6-0.3,1.2-0.5,1.6c0.3,4.2,0.9,8.3,0.3,12.3
	c-0.4,2.5-0.4,5.2-0.1,7.8c0.4,4.4,0.5,8.8,0.3,13.1c-0.1,1.2-0.4,2.4,0.1,3.7c0.1,0.3,0.1,0.8,0,1.1c-0.6,3,0.4,6.2,0.2,9.3
	c-0.1,1.2-0.3,2.5,0.5,3.6l-0.9,3c0.1,0.3,0.1,0.7,0.2,1.1c0.6,1.2,0.6,2.6,0.5,3.8c-0.3,4.9,0.8,9.8,1,14.6
	c0.1,1.6,0.1,3.2,0.2,4.8c0.5,5.1,1.6,10.2,2.4,15.4c0.2,1.1,0.7,2.2,1.1,3.3c0.6,1.5,1.2,2.9,1,4.4c1,1.4,1.9,2.7,2.2,4.2
	c-1.7-0.4-2.8-1.6-3.5-3c-0.8-1.5-1.5-3.1-2.4-4.5c-0.7-1.1-0.9-2.4-0.9-3.6l-1.4-1.7c0.2-1.5-0.8-3.2-0.3-4.7l-1.5-2
	c0-0.4-0.2-0.9,0-1.2c0.5-1.1,0.4-2.2-0.3-3.4l-1.9-1.5c-0.4-1.1,0.4-1.5,0.4-2.7l-1.8-5.7c0.2-0.6,1.2-1,1-2.2l-1.2-1.9
	c-0.2-1.3,1-2.6-0.2-3.8c-0.6-0.8-1.6-0.5-2.1-0.8c-0.7-1.2-1.4-2.2-0.5-3.3l1.4,0.3c0.1-0.2,0.1-0.4,0.2-0.7
	c-0.3-0.8-1.3-0.9-1.8-1.7c-0.4-0.9-0.4-1.8,0.1-2.7c1.3,0,0.8,1.5,1.9,1.8c-0.3-0.8-0.5-1.5-0.7-2.2c-0.2-0.7,0.2-1.5-0.4-2.2
	l-1.6,1.4c-0.8-2.2-1.5-4.3-1.3-6.4c1-0.1,1.5,0.8,2.3,0.9l0.2-1.7c-0.6-1.3-1.9-1.1-2.8-2l0-1.2c0.7-1.1,2.3-0.7,2.8-1.9
	c0-1.1-1.1-1.8-1.3-2.8c-0.4-0.9,0.8-1.1,0.6-2c-0.8-0.5-1,0.5-1.7,0.4l-1.7-0.6c-1-1.1,0.2-1.7-0.1-3.2l-1-2.7
	c0.2-0.9,0.4-1.7,0.6-2.5c-0.5-1.3-1.3-2.6-1.2-4c0.2-1.1,1.6-0.6,2.1-1.3l-1.9-0.4c-0.6-1.1,0-1.7,0.6-2.2c0.8-0.6,1.8-0.4,2.8-0.3
	l1-0.9c-0.1-0.8-0.8-1-1.3-1.4c-1.1-0.3-1.4,1-2.3,0.9c-0.8,0.1-1.3-0.3-1.7-0.9c-0.1-0.8,0-1.5,0.6-2.1c1.2-0.7,2.7-0.3,4-0.6
	c0.5-0.8-0.3-1.2-0.6-1.7c-0.3-0.6-0.1-1.3-0.9-1.9c-0.7-0.4-1.6,0.3-2.6,0l-0.9-0.8c0.4-0.9,0.7-1.8,1.1-2.6l-1.5-0.7
	c-0.4-1,0.3-1.7,0.4-2.7l-0.8-2c-0.2-1.3,0.5-1.9,0.9-2.7c-1.2-1.4-0.7-2.9-1.2-4.4l1-2.5c0-0.8-0.1-1.7-0.1-2.6l-1-1.4
	c-0.4-1.2,0.4-1.9,0.4-3l-0.5-1.8c0.2-0.3,0.4-0.7,0.7-1.2l-1-1.6c-0.6-1.7,0.1-3.2,0.3-4.7l-0.6-2.5c0.3-2,1.9-3.2,2-4.8
	c-0.5-1-1.2-0.3-1.5-0.9c-0.5-1,0.8-1,1.1-2.1c-0.1-1.5-1.6-3.2-1.4-5.2c0.1-0.7,0.6-1.2,1.2-1.5l-0.9-2.9c1-1.6,0.4-3.8,1.2-5.5
	c-0.7-1.7-2-3.5-0.2-4.9c-1.1-1.5,0.1-2.9-0.8-4.3l2.5-1.8c-0.1-0.1-0.2-0.2-0.3-0.3l0,0c0,0,0,0,0,0c-1.3-1.2-0.7-1.9-1-2.7
	c-0.3-0.6-0.8-1.1-0.6-1.6c0.3-1,0.8-1.5,1.7-1.4c0.3-0.9-0.7-1.1-1.1-2c-0.2-1.5-0.6-3.4,0.2-5.2c0.2-0.5,0.3-1.2,0.2-1.8
	c-0.1-1.3,0.2-2.5,0.6-3.7l-0.8-1.5c0.8-3.6,1.2-7.5,1.5-11.5l0.9-1c-0.6-1.2-0.9-2.5-0.3-3.6c0.5-1.1,0.8-2.2,1-3.4
	c-0.8,0.4-1.5,0.9-2.2,1.4c-2.8-0.5-5,1.6-7.9,1.4c-1.2,1.6-3,1.3-4.5,1.7c-5.2,1.4-10.4,2.9-15.6,4.3c-0.2,0.1-0.5,0.1-0.7,0.1
	l-1.7-0.5c-1.9,0.9-1.9,0.9-4,0c-0.3,0.5-0.6,1.1-0.9,1.7c-1.9,0.6-4,0.6-5.6,1.7c-1.3-0.1-2.5-0.2-3.6-0.2l-1.5,1.5
	c-1.4-0.5-2.8,0.2-4,0.3c-0.9-0.2-1.6-0.6-2.4-1.4c-0.1-2.4-0.9-4.9-0.7-7.4c-0.5-0.6-0.8-1-1.2-1.4c0.1-1.1,0.3-2,0.9-2.7
	c0.8-0.1,1.7-0.1,2.4-0.4c0.7-0.3,1.4-0.9,1.8-1.3c1.8-0.4,3.3-0.7,4.8-1c2.6-2.4,5.8-2.6,9-2.5c1.4-0.6,2.6-1.1,3.8-1.6
	c1.3,1,1.9-0.6,2.9-0.8c1.1-0.1,2.2-0.4,3-1.1c1.8-1.5,4-1.4,6.3-1.4c1.5-2.1,3.7-2.3,5.8-1.6c3.3-1.1,6-2.9,9.2-3.5
	c1.3-0.2,2.5-0.9,3.3-1.9c2.4,0,4.3-0.8,6.1-1.6c0-0.3,0-0.5,0.1-0.8c0.2-1.1,0.2-1.1,1.9-2.6c0.3-1-0.5-2.3,0.9-3.1
	c0,0,0.2-0.2,0.4-0.2c2.1,0.2,4-0.3,5.7-1.2c1.4-0.2,2,1.3,3.3,1.5c0.4,0.6,0.9,1.1,1.3,1.7c1.9-0.5,3.8-1,5.9-1.2
	c1.8-0.1,3.5-0.9,5.2-1.4c1.7-0.5,3.7,0.3,5.1-1.2c2.2,0.2,4.2-0.9,6.3-1.2c0.9,0.3,1.7,0.6,2.5,0.9c0.4-0.2,0.7-0.3,1-0.4
	c1.7-0.5,3.1-1.8,4.9-1.8c2.8,0.1,5.5,0,8.2-0.5c0.6-0.1,1.2,0,1.8,0.1c1.7,0.3,3.3-0.1,4.9-0.4c1.6-0.2,3.3-0.2,4.6-1.1
	c1.4,0.2,2.6,0.4,3.9,0.7c2-0.7,4.1-0.9,6.3-0.7c0.3,0.3,0.7,0.6,1.1,1C233,234.8,233.3,234.3,234.2,234.1L234.2,234.1z
	 M152.5,311.4c-0.5-0.4-1-0.3-1.6-0.3C151.5,311.6,152,311.4,152.5,311.4z M151.8,362.8c0.1,0.1,0.1,0.2,0.2,0.2
	c0.1,0,0.2-0.1,0.3-0.1c-0.1-0.1-0.1-0.2-0.2-0.2C152,362.7,151.9,362.7,151.8,362.8z M151.9,378.2c0.2-0.1,0.3-0.4,0.5-0.4
	c0.4,0,0.5,0.3,0.2,0.5C152.4,378.3,152.1,378.2,151.9,378.2z M153.8,344.9c-1.5,0.1-1.6,0.6-0.8,2.3
	C153.5,346.5,154.2,345.9,153.8,344.9z M155.2,302.9l-0.6-0.2c-0.7,0.8-1.3,1.6-1.9,2.4c0.4,0.4,0.9,0.4,1.4,0.1
	c0.4-0.5,0.8-1.1,1.2-1.7C155.4,303.2,155.5,303.1,155.2,302.9z M153.5,310.8l-0.8,0.6c0.4,0.3,0.9,0.5,1.2,0
	C154.2,311.1,153.9,310.9,153.5,310.8z M155.3,362.6c-0.1,0-0.2,0-0.4,0c-0.9,0.1-1.4,0.7-1.8,1.4c0.2,0.4,0.6,0.5,1,0.6l1.1-1.4
	C155.7,362.8,155.6,362.6,155.3,362.6z M154,373.3c1.2,0.7,1.4,0.1,1.3-0.8C154.4,372.1,153.8,372.2,154,373.3L154,373.3z
	 M156.5,271.1c-0.6,0.7-1.5,1.2-2.5,1.4c1.3,0.7,2.3,0.1,3.2-0.4C157.3,271.5,157.1,271.3,156.5,271.1z M155.1,367.5
	c-0.3-0.3-0.6-0.5-1-0.2l0.1,1C154.6,368,155.1,368.1,155.1,367.5z M157.3,390.6c-0.6-0.4-1.2-0.6-1.8-0.4c-0.5,0.5-0.8,1.2-1,2.4
	c0.8,0.2,0.4,1.4,1.7,1.5l-0.2-2.8L157.3,390.6z M156.8,397.1c-0.3,0-0.4,0.1-0.3,0.4c-0.1,0.2-0.4,0.3-0.4,0.5c0,0.3,0,0.6,0.5,0.5
	l-0.1-1c0.1-0.1,0.2-0.1,0.3-0.2C156.8,397.3,156.8,397.1,156.8,397.1z M159.6,432.1c-0.1,0-0.2-0.1-0.3-0.2
	c0.1-0.1,0.1-0.3,0.2-0.3c0.1,0,0.2,0.1,0.4,0.2C159.7,431.9,159.7,432.1,159.6,432.1L159.6,432.1z M174.6,470.2
	C174.6,470.2,174.6,470.2,174.6,470.2l0.1,0.1C174.6,470.3,174.6,470.3,174.6,470.2L174.6,470.2z M174.7,470.3
	c0.3,0.2,0.6,0.3,0.8,0.5c0.1,0.1-0.1,0.4-0.1,0.6C174.8,471.2,174.8,470.8,174.7,470.3z M222.9,428.5c-2.3-0.8-4.8-1.3-6.9-3.4
	l-1.9-4.4c-0.1-0.7,0.6-0.9,0.8-1.4l-1-2.4c1.6-2.2,1.7-5,3.2-7.4c-1.5-2.9-2.3-6.1-0.9-9.8c0.8,0.1,0.4,1.1,0.9,1.5
	c0.1,0,0.3,0,0.3,0c0.8-1.3,0.4-2.8,1.4-4l-0.5-2.2c0.2-0.6,0.5-1.2,1-1.2c1.3-0.2,2.1-1.5,3.4-2.2c-0.5-1-1.3-1.9-1-3.3
	c0.2-1.2,0.8-2.2,1.8-3.2l3.1-0.4c0.7-1.4-0.5-2.6,0.3-4.1c1.4-1.2,1.7,1.1,3,0.5c0.5-1.1,0.4-2.4,0.5-3.5c-0.3-0.9-0.8-1.5-1.4-1.7
	c-1.6-0.4-2.4-2.2-4.2-2.2c-0.2,0-0.5-0.1-0.6-0.3c-1.5-2.3-4.2-2.6-6.4-4c-0.4-1-0.9-1.8-2-2.1l0.6-1.2c-1,0.1-1.9,0.1-2.7,0.2
	c-1-0.5-1.7-0.9-2.6-1.3c-0.7-0.3-1.5-0.6-2-0.8c-0.5-0.4-0.2-0.8-0.1-1.4l-3-4.8c-0.3-1.5,0.5-3.5-0.5-4.8c0.5-1.7,1.5-2.8,2.3-4.1
	l0.2-3.2c-0.5-1.4-1.1-2.9-1.7-4.5l0.3-2.7c0.9-1.3,1.4-3.1,3.1-4.1l2.3,1.1c0.1-1.2-1-1.7-0.7-3.1c1.1-1.1,2.9-1.7,3.3-3.8
	c2,0.1,3-1.6,4.5-2.3c1.4-0.6,2.7-1.5,4-2.3c0.7-0.1,1.5-0.3,2.1,0.2l-1,1.2c-0.2,0.9-0.2,1.6,0.9,1.6c0.9-0.2,1.4-1,2-1.7
	c0.2-0.9-1-0.5-0.8-1.1c-0.2-1.1,0.4-1.7,0.9-2.3c2.1-1,4.5-1.1,6.5-2.9c1,0.3,2.1-0.1,3-0.4c0.8,0,0.8,0.8,1.3,1.3l2.2,0.7
	c0.4-0.4,0.4-0.5-1-1.9c0.1-0.6,0.5-0.9,1-1.1c0.4-0.1,0.7-0.2,1.1-0.2c0.5,0,0.9,0,1.5,0c1.4,1.8,3.7,2.6,5.1,4.9
	c-0.5,1.5-0.8,3.2-1.7,4.7c-0.6,0.8-1.3,0.7-2,0.9c-0.7,0.2-1.2,0.9-2,1.4l-3.7,0.5c-2.6,1.5-5.4,3-8.2,4.6
	c-0.2,0.1-0.5,0.2-0.7,0.4c-2.2,1.9-4.5,3.6-6.6,5.5c-1.2,1.1-2.4,2-3.9,2.3c-0.6,1.4-1.8,2.4-2.2,4.1c2.3,1.3,4.8,2.2,6.3,4.2
	c1.8,0.6,3.3,1.1,4.9,1.6c0.7,0.2,1.4,0.3,1.9,0.8c2.2,2.1,5.1,3.2,7.6,4.8c1,0.7,1.7,1.5,2.3,2.6c1.8-0.6,2.6,1.4,4.3,1.5l1.6,1.8
	l2.8-0.7c2.2-1.8,4.5-3.6,6.7-5.5l2.5-0.7c1.8-2,4.1-3.2,6.5-3.8c1.6-0.4,3.1-1.1,4.4-2.1c2.1-1.6,4.3-2,6.5-2.7l2.2,1.3
	c1.2-0.4,1.5-1.9,2.7-2.7c2.7-0.4,5.6-1.1,8.5-0.2c-0.2,0.5-0.2,0.8-0.3,0.9c-1.3,1.1-2.6,2.2-4,3.2c-3.1,2.1-6.2,4.1-9.2,6.5
	c-1.3,1.1-3,1.7-4.4,3c-4.7,4.2-9.6,8.1-14.2,12.6c-0.6,0.6-1.2,1.2-1.7,1.8c1,3,2.2,6.2,2.4,10c-0.1,0.1-0.3,0.6-0.6,1
	c-0.3,0.4-0.6,0.9-0.7,1.1c-0.2,1.2,0.7,1.4,0.9,1.8c0.4,2-0.6,3.8-0.4,5.6c0,0.3-0.1,0.8-0.4,1.1c-1.6,1.8-1.8,4.1-2.6,6.1
	c-0.9,2.4-2.5,4.4-3.9,6.6c-1.2,1.8-2.3,3.5-4,5c-1.1,0.9-1.7,2.4-2.6,3.7c-1.9,1.4-3.9,2.8-5.7,4.6c-0.6,0.6-1.5,1.1-2.2,1.5
	c-2.7,1.7-5.5,3.3-8.5,4C225.3,427.4,224.2,428,222.9,428.5L222.9,428.5z M208.4,340.4c-0.4,0.3-0.3,0.6-0.1,0.8
	C208.7,340.9,208.6,340.7,208.4,340.4z M214.8,333.8c0.3,0.4,0.7,0.3,1.1-0.1C215.5,333.4,215.2,333.3,214.8,333.8z M216.2,363.4
	c0,0-0.1,0.2-0.1,0.3c0,0.4,0.2,0.5,0.6,0.3C216.7,363.6,216.6,363.4,216.2,363.4z M224.7,388.7 M230.4,324.4
	c-0.4,0.3-0.4,0.5-0.1,0.8C230.7,324.9,230.7,324.6,230.4,324.4z M235.5,398.1c1.3-1.5,2.9-2.6,4.1-3.7c0.7-1.5,1.4-2.7,1.9-3.9
	c0.3-0.8,0.7-1.7-0.1-2.4c-1.2,0.2-2,1.1-2.6,2.2c-0.9,1.5-2.1,2.7-3.1,4.1c-1.6,2.1-3,4.3-5.1,7.2C233,400.6,234,399.9,235.5,398.1
	z M238,375.1c0.7,0,1.5,0.1,1.9-1C239,373.9,238.5,374.6,238,375.1L238,375.1z M239.9,402.3c-0.1-0.4-0.3-0.6-0.7-0.7
	c-0.3,0.5-0.2,1-0.1,1.4C239.6,403,239.8,402.7,239.9,402.3z M333.5,394.1c-1.7-0.3-2.7-1.5-4.2-2.4c-0.6-2.7-3.6-4.1-3.7-6.8
	c-1.7-1.4-4-0.8-4.7-2.9c-0.1-0.8,0.5-1.2,0.8-1.7l-4-2.5c-0.1-1.1,0.8-1.6,1.2-2.4c0.5-0.7,2,0.1,1.9-1.4c-1.7-0.3-2.6,1-3.9,2
	l-0.9-0.5c0.1-0.8,0.1-1.4,0.2-2.3c-1.1-1.1-1.7-2.5-1.1-4.2l-0.8,0.4l0.4-5.6c-1.9,5.6-3.8,11.1-5.7,16.6c-0.5,1.5-1.3,2.9-2.1,4.3
	c-0.4,0.6-0.6,1.2-0.8,1.8c-0.5,1.6-1.4,3.1-2.4,4.5c-1.6,1.9-3,4-3.9,6.5c-0.8,0.6-1.7,1.4-2.6,2c-2.7,1.9-3.2,2-6.8,1.3l-2.5-2
	c-1.1-2.2-2.5-4.4-4.1-6.6c-1.8-0.4-3.4-1.2-4.9-2.5c-0.6-1.6-1.1-3.3-1.8-4.9c-0.2-0.4-0.7-0.6-1.1-1l0.1-1.8
	c-0.3-0.5-0.7-1-1.1-1.8c0.7-3-0.7-6.3,0.5-9.7c-1.3-3.5-1.3-3.5-0.8-6l1.4-1.2c-0.6-0.8-1.1-0.2-1.7-0.1c-1-0.9-0.2-1.9-0.1-3
	l3.1-1.7c0.5,0.8,0.5,0.9-0.2,2c0,0.8,0,1.6,0.9,1.9l0,0.1c0,0,0.1,0,0.1,0c0.2,0.3,0.2,1,1,0.8c-0.1-0.6-0.6-0.6-1-0.8l-0.1-0.1
	c0,0-0.1,0-0.1,0c-0.2-0.5-0.5-0.9-0.3-1.2c0.5-1,1.4-1,1.9-1.5c0-0.7-1-0.3-1-0.8c-0.8-1.1-0.7-2.1-0.2-3.1l-1-0.3
	c-0.9,0.3-0.8,1.2-1.4,1.7l-1.9,1.1c-0.6-0.2-0.9-0.5-0.7-1c0.5-0.9,1-1.7,1.6-2.6c-1.1-1.4-2-2.9-0.6-4.5c0.2-1-0.6-1.9-0.1-2.7
	c0.8-1.2-0.4-2.8,1.3-3.7c-0.9-2.7,0.1-5.2,0.1-7.8c0-2.6,0.6-4.9,1.5-7.4l-0.3-2.6c0.6-0.6,1.2-1.1,1.8-1.8c0.3-0.7,0.3-1.7,1-2.3
	l-0.7-0.9c-0.2-1.8,1.3-3.2,0.8-5.1c1.3-0.7,2.7-1.3,3.7-2.4c0.8,0.2,1.4,0.4,2.1,0.4c0.6,0,1.1-0.2,2,0.5c0.5,1,1.4,2.3,2.1,3.7
	c0.8,1.8,0.5,3.6-0.5,5.1c0.4,3.2-0.4,8.8-1.3,13.7l0.6,1.6c-0.2,1.2-1,2.2-0.9,3.6c0.1,1.2-0.8,2.4,0,3.6c-0.4,1.7,0.1,3.4-0.5,5.1
	c-0.2,0.5-0.2,1.1-0.2,1.7c-0.1,1.8,0,3.6-0.2,5.4c-0.1,1.3,0.2,2.5,0.4,3.6l-0.7,2c0,0.2,0,0.5,0,0.7c0.1,0.9,0.4,1.8,0.4,2.7
	c0.1,3.5,0.5,7.1,0.9,10.6c0.1,0.5,0.2,0.9,0.1,1.4c-0.3,1.5,0.5,2.6,1.5,3.8l2.4-3.8c0.5,0,0.9,0.1,1.3,0.1l0,0.1c0,0,0.1,0,0.1,0
	c0.3,0.2,0.5,0.5,0.9-0.1l-0.9,0.1c0,0-0.1,0-0.1-0.1l0,0c-0.4-1.3-0.3-2.5,0.2-3.5c0.6-0.9,1.3-1.1,2.1-1.4l0,0
	c0.1,0,0.2,0.1,0.3,0.1l-0.3-0.2c0,0,0,0-0.1,0c-0.6-1.1,0.2-1.9,0.4-2.9l2.5-1.1c-0.1-1-1.3-0.6-1.4-1.1c-0.6-1.8,0.8-1.9,1.5-2.4
	c0.5-0.6,0.3-1.3,0.2-2.2c1-1.7,1.3-3.9,2.8-5.6c0.6-0.7,0.7-1.9,0.9-2.8l0.9-0.7c-0.5-1.7-0.5-3.3,1.1-4.2c0.9-0.2,1.3,0.3,1.8,0.4
	c0.5-0.2,0.6-0.6,0.5-1.1c-0.5-0.9-1.6,0.3-2.1-0.7c0-1,1-1.7,1.2-2.7c0.2-0.9,0.6-1.7,1-2.5c0.6-1.2,0.9-2.6,1.3-3.9
	c0.6-1.8,0.9-3.8,2.4-5.2c0.3-2.6,2.1-4.9,2.3-7.6c0.9-1.5,0.8-3.9,1.4-5.5c0.7-1.7,1.2-4.6,1.9-6.1c-0.7-1.3,0.2-2.7-0.2-4.1
	l0.9-1.3c-0.1-2.3-0.1-4.6,1.1-6.6c1.3-0.9,2.2,0.7,3.5,0.2c-0.4-1.7-2.3-2.8-1.7-4.9c1.5,0.1,3-0.1,4.5-0.4c1.6-0.3,3,0.3,3.8,1.8
	c0.5,0.9,0.9,1.8,1.3,2.5c0,2.6-0.1,5,0,7.4c0,1.5,0.3,3-0.2,4.5c-0.4,1.3-0.1,2.7-0.5,4.1c-0.5,1.6-0.4,3.5,0.2,5.1l-1.4,3.6
	c0.3,1.2,0.6,2.3,1,3.7c-0.4,2.3-0.1,4.9-0.7,7.5c-0.2,1.1,0.2,2.2,0.3,3.5l-0.9,1.9c0.3,1.3,0.6,2.7,0.4,4.3c-0.2,1-0.1,2,0.1,3
	c0.3,1.9,0.6,3.7,0.2,5.7c-0.2,1.2,0.1,2.5,0.4,3.8c0.8,4.3,0.6,8.8,2.2,13c0.1,0.3,0.3,0.6,0.5,1c3.7-2.6,3.7-2.6,5.4-5.6
	c0.1-0.2,0.2-0.5,0.4-0.7c2.1-2.5,4.2-5.1,6.4-7.5c0.2-0.3,0.6-0.4,0.9-0.5c-0.3-0.9,0-1.8,0.7-2.4c1.1-0.9,1.8-2.1,2.5-3.3
	c0.9-1.5,2-3,3.9-3.5c0.3-2.1,1.4-3.9,2.8-5.3c1.5-1.4,1.8-3.6,3.7-4.8c0.8-0.3,1.5,0.3,2.2,0.2c0.5-0.9-0.7-0.9-0.8-1.5
	c0-0.2-0.1-0.5,0-0.7c0.7-1.8,1.9-3.3,3.1-4.9l1.4-0.1c0.9-0.8,0.7-1.5,0-2.2c0-1,0.6-1.6,1-2.4c0.4-0.8,1.4-1.1,1.6-2.1
	c0.1-1,0.8-1.9,1.4-2.7c0.5-0.7,1.1-1.4,1.6-2.1c0.5-0.7,0.7-1.7,1.6-1.7c0.8,0.4,0.7,0.9,0.7,1.4c0.1,4.3-0.5,8.6-1,12.9
	c-0.1,0.9-0.5,1.7-0.8,2.5c-1.1,4-2,8.1-3.4,12c-1.2,3.3-2.3,6.7-3.8,9.9c-1.5,3.3-3.5,6.4-4.4,9.4c-0.7,1.3-1.8,0.6-2.4,1.5
	l0.1,2.4c-1,1.2-2,2.3-3,3.5c-0.6,2.7-2.2,4.8-4.2,6.6c-2.1,2-3.9,4.3-6,6.3c-0.7,0.7-1.5,1.3-2.3,2
	C337.6,391.9,335.4,392.7,333.5,394.1z M275.9,349c0.4-0.8,1-0.9,1.4-1.1c0.2-0.1,0.3-0.3,0.5-0.5c-0.1-0.5-0.3-0.8-0.9-0.7
	C276.3,347.1,275.7,347.5,275.9,349L275.9,349z M278.3,368.1c-1-0.8-1-0.8-2.1-0.1c-0.2,0.5,0,0.8,0.5,1.1L278.3,368.1z M277,352
	c-0.4,0.1-0.6,0.5-0.7,0.9c0.1,0.6,0.1,1.3,1.2,0.9C277.4,353.2,277.5,352.5,277,352z M277.3,372c-0.1,0.4-0.1,0.9,0.3,1.2
	C277.8,372.7,277.6,372.3,277.3,372z M277.6,343.3l-0.2-0.1l0,0.2L277.6,343.3z M278.4,335.9c-0.7,1.1-0.7,1.1,0.2,1.4
	C278.9,336.8,278.8,336.4,278.4,335.9z M278.4,375.6c0-0.1,0-0.2-0.1-0.3c-0.2-0.2-0.3,0-0.2,0.3c0,0.1,0.1,0.2,0.2,0.2
	C278.3,375.7,278.4,375.7,278.4,375.6z M279.9,328.5c0.1,0,0.5-0.1,0.5-0.2c0-0.5-0.3-0.6-0.7-0.5
	C279.5,328.1,279.6,328.4,279.9,328.5L279.9,328.5z M305.8,354.8c-0.1,0-0.2,0.1-0.2,0.2c0,0.1,0.1,0.2,0.1,0.2c0.1,0,0.2,0,0.3,0
	C306.2,354.9,306.1,354.7,305.8,354.8z M315.5,367.7c-0.5,0.4-0.5,0.8-0.3,1.3c0.4,0.1,0.9,0.4,1.3-0.1
	C316.5,368.3,316.4,367.7,315.5,367.7z M317.6,360.6c-0.3,1-0.6,2-0.9,3c0,0.2,0.1,0.4,0.2,0.6c0.7,0.2,1.5,0.9,2.3-0.3
	C318.9,362.8,317.8,361.9,317.6,360.6z M317.7,360.4c0.4-0.1,0.8-0.1,0.8-0.7C317.8,359.5,317.7,359.9,317.7,360.4L317.7,360.4z
	 M318.8,312c-1.4,1.4-1.4,1.4-0.4,2.6C319.3,313.8,319.4,313,318.8,312z M319.7,356.7c-0.3-0.5-0.4-1.1-1.3-1
	C318.2,357,319,356.8,319.7,356.7L319.7,356.7z M319.4,307.7c0.3-0.1,0.6-0.2,0.7-0.9L319.4,307.7L319.4,307.7z M430.8,290.5
	c1,3.7,2,7.1,2.9,10.6c0.6,2.2,1,4.4,0.4,6.7c-0.3,1-0.3,2.1-0.1,3.2c0.1,0.7-0.1,1.4-0.1,2.1c-0.1,1.6-0.8,3.1-0.6,4.9
	c0.1,1.5-0.7,3-1.1,4.4c-0.4,1.1-0.9,2.2-1.2,3.3c-0.4,1.3-0.9,2.6-1.1,4.1c-0.2,1.3-0.4,2.8-1.4,4c-0.3,0.4-0.4,0.9-0.6,1.3
	c-1,1.5-0.8,3.5-1.7,5c-0.9,1.5-1.9,2.9-2.5,4.7c-0.6,1.9-1.8,3.6-2.8,5.3c-1.1,2-2.4,3.8-3.4,5.8c-0.6,1.1-1.2,2.3-2.4,3
	c-0.8,0.5-1.2,1.4-1.5,2.3c-0.7,2.2-2,4-3.8,5.5c-1.7,1.4-3.2,3.2-5.3,4l-1.6,2.1c-1.8,1.2-4,0.9-5.1,2.5c-2.6-0.1-4.9,0.6-7.1,0.2
	c-3.3-1.7-5.6-4.2-6.9-7.4c-0.4-0.2-0.8-0.4-1.2-0.3c-0.4,0-0.7,0.2-1,0.3c-0.2,0-0.5-0.1-0.7-0.1c-0.6-0.1-1.1-0.1-1.6-0.4
	c-1-0.5-1.7-1.3-2.4-2.1c-0.6-0.7-0.9-1.7-1.4-2.5c-0.2-0.3-0.6-0.4-0.8-0.8c-0.4-1.8-1.3-3.4-2-4.9c-0.2-0.6,0.2-1.2,0-1.5
	c-0.1-0.4-0.3-0.6-0.5-0.7c-0.2-0.1-0.3-0.3-0.3-0.5c0.2-0.9,1.1-1,1.5-1.7c0.1-0.4,0-0.7-0.1-0.9c-0.5-0.6-1.2-0.8-1.9-1.1
	c0.3-2.5-0.9-4.8-0.8-7.5c-0.6-0.5-0.7-1.5-1-2.2c0.1-0.6,0.6-1.1,0.8-1.7c0-0.8-0.3-1.5-0.8-2.1c-0.1-0.6,0.3-0.9,0.6-1.5
	c-0.6-0.8-0.6-1.9-1.3-2.6c0-1.2,0.6-2.3-0.2-3.3c-0.1-0.2,0-0.6,0.1-0.8c0.5-1.3,0.2-2.5,0.2-3.7c0-1,0.1-1.8,1-2.6
	c-1.6-1.2-1.4-2.6-0.2-4c-0.8-0.9-0.5-2.1-0.9-3.3c1.2,0.3,2-1,3.1-0.6c0.4-0.6-0.2-0.6-0.2-0.9c-0.6,0-1.1,0.1-1.6,0.4
	c0,0.1,0,0.1,0,0.2c-0.1,0.3-0.2,0.2-0.2-0.1c-0.1,0.1-0.2,0.2-0.4,0.3c-0.5-0.3-0.9-0.9-1.2-1.5c0.5-1,1.3-1.9,0.6-2.9l0.7-1.2
	c-0.7-0.2-1.2-0.5-1-1.5c0.3-0.7,1.3-0.8,1.8-1.6l-0.2-1.4c0.2-0.4,0.5-0.4,0.7-0.4c0.6,0.3-0.1,0.9,0.2,1.2
	c0.5,0.5,1.2,0.9,0.8,2.2c-0.8,1,0.1,2.4-0.5,3.8l0.4,0.2c0.5-0.5,0.5-1.2,0.7-1.8c-0.1-0.3-0.5-0.5-0.4-1.1c0.5-1.2,1-2.6,1.3-4.1
	l1.5-1.4c-1.2-0.2-1.8-1.1-3-1.2c-0.8,0.5-1.8,0.7-2.8,0.9c-0.5-0.3-0.4-0.8-0.5-1.4l0.6-1.3c-0.1-0.5-0.1-0.9-0.1-1.2
	c0.2-0.8,0.9-0.8,1.5-1.2c-1.4-0.9-1.1-2.5-1.5-3.7c0.1-1,0.8-1.3,1.5-1.7c0.1-0.6-0.8-0.6-0.7-1.2c0.1-1.1,1.1-1,1.9-1.4
	c-0.7-0.6-1.6-0.8-2.2-1.6c-0.2-0.9,0.4-1.9,0.5-2.8c0-1.2-0.2-2.3,0-3.6c0.1-0.4,0.2-0.9,0.1-1.3c0-0.4-0.2-0.8-0.2-1.2
	c0.1-0.8,1-1.3,0.9-2.1c0-0.3-0.3-0.6-0.4-0.9c-0.7-1.2-0.2-2.7,0.6-3.7l-0.2-1.6c0.3-0.8,0.4-1.7,0.2-2.5c0.2-0.5,0.4-0.8,0.7-1.1
	c0.5,0,0.9,0.1,1.4,0l0.9,1.4c1.1-0.9,1.1-0.9,0.7-2.1c-0.6,0-1,0.7-1.6,0.6c-0.4-0.7-1.4,0-1.9-0.8c0.5-1.2,1-2.4-0.1-3.4
	c-0.1-1.2,0.6-1.9,1.1-2.9c-0.9-1-0.5-2,0-3.1c-0.4-1.2-0.4-2.6,0.2-4.7c0.2-0.2,0.4,0,0.6-0.1c0.2,0,0.4-0.1,0.5-0.4l-1-0.8
	c0.4,0.3,0-2.6,0-2.6c-0.1-0.9,0.1-1.5,0.3-2.3c0.3-2.4,0.2-4.8,0.6-7.2l1.1-7.4c0.2-1.7,0.5-3.5,0.3-5.2c-0.1-1.3-0.5-2.6-0.4-3.9
	c0-0.6,0.2-1.1,0.3-1.6l1.4-6.3c0.1-0.6,0.3-1.2,0.3-1.8c0-0.5,0-1.1-0.1-1.6c-0.1-1.2,0-2.3,0.2-3.5c0.2-1.3,0.9-1.6,1.3-2.6
	c0.4-1.1-0.1-0.7-0.3-1.9c-0.2-1,0.5-1.9,0.7-2.9l2.6-1.2c0.8,0.4,1.5,0.8,2.5,1l2-0.5c0.6,0.5,1.1,1.1,1.7,1.4
	c0.3,0.5-0.2,0.8-0.2,1.2c0.5,0.3,0.8,0.8,1.1,1.1c0.1,2.9-0.4,5.7,0,8.6c-0.7,0.8,0.1,2.1-0.6,3.1c0.4,1.2,0.3,2.4,0,3.6
	c-0.3,0.9,0.2,1.6,0.2,2.6c-0.4,0.7,0,1.6-0.2,2.4c-0.3,1.1-0.3,2.2-0.6,3.2c-0.2,0.5-0.2,1,0,1.5c0.7,1.8,0.4,3.5-0.6,5.3
	c0.2,0.8,0.1,1.8-0.1,2.7c0.4,0.5,0.5,1.2,0.6,1.9l-0.6,1.1c0,0.1,0,0.3,0,0.3c0.4,0.3,0.4,0.7,0.3,1.2c-0.2,0.8-0.6,1.6-0.5,2.3
	c0.2,1.7,0.1,3.3,0,5c0,1.2,0.2,2.4,0,3.6c-0.3,1.7-0.9,3.2-0.8,5c0,0.9,0.2,1.8,0,2.7c-0.2,0.8-0.7,1.6-0.8,2.4c-0.1,1,0.5,2,0.7,3
	c0.1,0.7,0,1.5-0.1,2.2c-0.6,3.5-1.1,7-1.1,10.6c0,3.2,0.4,6.3,0.1,9.5c-0.2,1.8-0.2,2.5-0.9,4.2c1.1,1.7,0.7,3.4-0.2,5.2
	c0.7,1.1,0.5,2.3-0.2,3.5c0.6,1,1,2,0.4,3.2c0.5,1.3-0.2,2.7,0.1,4.1c0.1,0.6,0,1.3-0.5,1.9c0.8,0.7,0.3,1.7,0.3,2.5
	c-0.1,0.9,0.3,1.7,0.3,2.8l-0.3,0.9c-0.1,0.7,0.4,1,0.6,1.4c0,0.2,0,0.4-0.1,0.5c-0.4,0.8-0.4,1.7-0.3,2.6c0.2,1.4,0.2,2.9,0.1,4.4
	c-0.1,0.5-0.1,1-0.1,1.6c0.1-0.1,0.1-0.1,0.1-0.2c0.9-0.1,1.2,0.4,1.4,1c-0.7,0.6,0.1,1.7-0.6,2.3l-0.4,0.1c0.2,1,0.2,2-0.4,2.9
	c0.4,0.6,0.6,1.1,0.6,1.8c0,1.4,0.1,2.7,0.2,4.1c0.1,0.8,0.2,1.5,0.1,2.3c-0.2,1.1,0.2,2.1,0.2,3.1c0.1,1.5,0.4,3,0.7,4.5
	c2.1-1.6,3.3-3.9,4.9-5.9c-0.5-1.1-1.1-2.1-1.3-3c-0.2-1.3-2-0.9-2-2.2c0.5-1.1,1.8-0.6,2.2-1.1c1.1-1,0.2-1.8,0.3-2.7l0.7-0.8
	c-0.4-0.4-0.9-0.9-1.3-1.4l2.5-1.2c-0.7-0.7-1.2-1.2-1.8-1.9l0.5-2.1c-0.3-1-1.5-0.6-2-1.3c-0.7-0.9-0.6-1.7,0.4-2.6l1.6,0.2
	c0.8-0.1,0.8-1.1,1.9-1.1L390,320c0-1.1,1.3-1.4,1.6-2.3c0.1-0.3,0-0.6-0.2-0.9c-0.5-0.7-0.9-1.4-0.5-2.3c0.5-0.7,1-0.3,1.6-0.3
	c0.9,0,1.9-0.2,1.9-1.5l-4.3-3.2c0-1,0.6-1.1,1.1-1.3c1-0.1,1.4,0.9,2.1,1.1l0.9-0.5c-0.1-0.5-0.3-1.1-0.4-1.6l1.7-1.4
	c-0.1-0.5-0.2-1-0.3-1.6c-1.1,0.7-1.8,1.8-2.4,2.8c-0.5,0.2-0.8,0.1-1.3-0.3c0.5-1.1,1.1-2.2,1.6-3.4c0.4-1.1,1.3-1.9,2-2.8
	c0.3-3.2,0.5-3.6,2.6-5c1,0.2,0.1,1.3,0.7,1.8c0.9-0.8,0.6-1.9,1-2.7c0.8-0.7,1.8-1,2.9-0.7c0.5,0.1,0.9-0.1,1-0.7l0,0.1l0-0.1
	c0,0,0,0,0.1,0c0.6-0.8,0-1.8,0.3-2.7c-0.3-0.5-0.7-1-0.6-1.6c0.1-0.2,0.1-0.5,0.3-0.6c1.5-1.2,2.8-2.6,4.5-3.5
	c2.4-1.3,5.1-2,7.9-1.9c2,0.1,4-0.2,5.9,0.8c0.8,0.5,2.1,0.2,3.3,0.2c1.3,0.6,2.2,2,3.9,2.3C429.1,287.8,429.8,289.4,430.8,290.5
	L430.8,290.5z M370.6,300c-0.2-0.2-0.5-0.8-0.8,0C370.1,300.2,370.4,300,370.6,300z M371.9,324.7c-0.4,0.8-0.8,1.4-1.5,1.6
	c0.1,0.4,0.3,0.4,0.5,0.5c0.2-0.6,0.8-0.7,1.1-1.1L371.9,324.7z M372.6,298.9c-0.5-0.1-0.9,0.1-1.1,0.5c-0.2,0.3-0.5,0.4-0.8,0.5
	c0.5,0.3,1.1-0.2,1.5,0.1C372.7,299.7,373,299.4,372.6,298.9z M372,295.6c-0.3,0.3-1.1,0.4-0.9,1.2c0.8,0,0.8,0,1.4-0.4
	C372.5,296.1,372.6,295.7,372,295.6z M372.1,321.5c0-0.1,0.1-0.2-0.1-0.3L372.1,321.5L372.1,321.5z M373.1,317.9
	c-0.4-0.1-0.7-0.1-1,0.2c-0.1,0.3,0,0.5,0.2,0.6C372.9,318.7,373.1,318.4,373.1,317.9z M372.7,290.8c0.2-0.2,0.3-0.3,0.3-0.6
	l-0.1-0.1c-0.1,0-0.1,0-0.3-0.1C372.4,290.3,372.5,290.6,372.7,290.8z M373,255.4c-0.2,0.1-0.3,0.2-0.3,0.5
	C373,255.8,373.2,255.8,373,255.4L373,255.4z M372.9,253.4c-0.1,0.1-0.1,0.2,0.1,0.3L372.9,253.4L372.9,253.4z M373.1,258.2
	c0.4,0.4,0.8,0,1.1,0.2c0.4,0.2,0.3,0.8,0.8,0.8c0.1-0.4,0-0.8-0.3-1.3C374.3,258.2,373.7,257.8,373.1,258.2z M373.7,262.5
	c0,0.2,0.1,0.3,0.3,0.2c0.1,0,0.1-0.2,0.1-0.2c-0.1-0.1-0.1-0.2-0.2-0.2C373.8,262.3,373.7,262.4,373.7,262.5L373.7,262.5z
	 M374.3,238.8c0.7,0.1,0.9-0.4,1.4-1l-0.9-0.3C374.6,238,374,238.2,374.3,238.8z M374.8,256.9c0.2-0.7,0.9-0.9,1.2-1.6
	c-0.5-0.1-1-0.4-1.5,0.2C374.2,256,374.3,256.4,374.8,256.9z M375,235.5c0.1,0,0.2,0.1,0.2,0.1l0.1-0.1L375,235.5z M375.2,242.9
	c-0.3,0.5,0.1,0.5,0.4,0.6C375.7,243.2,375.7,242.9,375.2,242.9L375.2,242.9z M375.3,247c0.2,0.1,0.4,0,0.6-0.2l-0.4-0.3L375.3,247z
	 M376.4,237.5c0-0.1,0-0.2,0-0.3C376.3,237.3,376.3,237.4,376.4,237.5L376.4,237.5z M376.8,234.7c0.2,0,0.3-0.2,0.3-0.4l-0.4-0.2
	C376.6,234.4,376.6,234.5,376.8,234.7z M384.8,329.4C384.8,329.4,384.8,329.4,384.8,329.4L384.8,329.4
	C384.8,329.4,384.8,329.4,384.8,329.4L384.8,329.4z M423.4,296.6c-0.7-0.6-1.6,0.1-2.1-0.3l-2-1.4c-0.9,0.4-1.7,1.1-2.5,1.3
	c-2.2,0.5-4.2,1.5-6.1,3c-1.1,2.2-3.5,3.4-5.1,5.6c0,1.9-1.3,3.3-2.4,4.7l-1.8,0.3c0.1,0.9,0.2,1.7,0.3,2.3
	c-0.2,0.4-0.2,0.7-0.4,0.8c-2.2,3-3,6.6-4.6,9.9c0.2,1.4-0.8,2.4-1.4,3.3c0,2.6-1,4.8-1.8,7.1c0.2,1.3,0.7,2.7-0.1,4.1
	c-0.1,0.2-0.2,0.5-0.1,0.7c0.7,2.4-0.6,4.9,0.4,7.4c0.4,1.1-0.2,2.1-1.5,2.4c-1.2,0.4-1.7-1.3-2.8-1.2l-1.3,4.5
	c-0.5,0.1-0.9,0.2-1.5,0.3c0.2,0.8,1.1,1.3,1,2.4c-1,1.8,0,4-0.4,6.1c0,0.1,0,0.2,0,0.3c0,0.1,0.1,0.3,0.1,0.4
	c0.1,0.5,0.5,1.1,1.1,1.4c1.8,0.5,2.7-1.4,4.1-1.5c1.1-0.2,0.8,1.5,1.9,1.3c0.8-0.8-0.1-1.5-0.3-2.4l2.1-2c0.3-1.2,0.6-2.2,0.9-3
	c1.9-1.4,3.2-3,4.3-4.9c1.4-2.5,3-4.8,5.4-6.8l3.1-7.5c0.4-0.5,0.9-1.1,1.4-1.6c1-4.1,3.2-7.5,4.9-11c0-1.4,0.1-2.7,0.9-3.8
	c0.5-0.6,0.7-1.2,0.7-2c0.1-1.8,0.9-3.4,1.8-4.8c0.1-1.2,0-2.1,0.2-3c0.3-1.9,0.5-3.8,1-5.6c0.5-2-0.1-4,0.4-5.9
	C421.8,296.7,422.6,296.6,423.4,296.6z M389.1,316.3c0.5,0.3,0.5,0.6,0.2,1.1c-0.5,0.1-0.8-0.1-1-0.6c0.1-0.2,0.3-0.3,0.4-0.5
	C388.9,316.3,389,316.3,389.1,316.3L389.1,316.3z M389.5,314.3c0,0-0.1,0.3-0.1,0.3c-0.2,0-0.4,0-0.6-0.1c0.1-0.1,0.2-0.4,0.3-0.4
	C389.2,314,389.3,314.2,389.5,314.3L389.5,314.3z M393,319.9c0.6,0,1.2,0.3,1.4-0.6l-1.1-1L393,319.9z M395.2,304.1
	c0.4-0.3,0.9-0.6,0.5-1.3C394.9,303.1,395.1,303.6,395.2,304.1z M400.5,290.5l-0.5-0.1C400.4,289.8,400.4,290.2,400.5,290.5z
	 M401.8,290.6c0.2,0,0.4,0.1,0.6,0.2c-0.1,0.1-0.3,0.4-0.4,0.4c-0.2,0-0.4-0.1-0.6-0.2C401.5,290.9,401.7,290.6,401.8,290.6z
	 M404.9,350l-0.2,0.1l0.2,0.1L404.9,350z M408.6,344.6c-0.9,0.3-1.3,0.8-1.1,1.9C408.1,345.7,408.7,345.4,408.6,344.6z M417.2,329.6
	l-0.2-0.5C417,329.3,416.7,329.6,417.2,329.6z M421.9,314.4c-0.2,0.5-0.1,0.9,0.4,1.2C422.5,315.1,422.4,314.7,421.9,314.4z
	 M423.5,296.6l0.5,0.7C424,296.9,424,296.9,423.5,296.6z M545.7,274.8c-0.1,4.4-0.5,8.6-0.9,13.1c-0.1,0.7-0.5,1.7-0.9,2.4
	c-1.1,4.1-1.9,8-3.3,12.2c-1.3,3.2-2.3,6.6-3.9,9.8c-1.6,3.5-3.6,6.6-4.4,9.3c-0.9,1.5-1.7,0.8-2.4,1.6c-0.1,0.7,0.1,1.5,0,2.5
	c-0.9,1.2-1.9,2.4-3.1,3.6c-0.5,2.6-2.2,4.7-4.2,6.4c-1.9,2.1-3.8,4.5-5.8,6.3c-0.7,0.8-1.5,1.3-2.2,2.2c-2.6-0.5-5,0.1-6.7,1.8
	c-1.7-0.5-3-1.7-4.4-2.6c-0.4-2.7-3.6-4-3.7-6.8c-1.6-1.1-4-0.8-4.5-2.9c-0.2-0.6,0.6-1.1,0.9-1.5c-1.5-0.9-2.7-1.8-4.1-2.6
	c0.1-1,0.9-1.5,1.3-2.2c0.4-0.7,1.9,0.1,1.8-1.4c0,0-0.1-0.3-0.4-0.2c-0.6,0.2-1.1,0.6-1.7,0.8c-0.6,0.2-1.3,1-1.8,1.4
	c-0.4-0.2-0.4-0.5-0.8-0.7l-0.1-0.3c-1.4-3.1-1.6-6.1-1.5-9.3c0.2-2.6-0.4-4.9-0.4-7.4c0-2.2,0.3-4.8,0.3-7c-0.3,1-1.1,1.9-1.5,2.6
	c-0.1,1-0.2,1.6-0.2,2.6c-1.4,1.9-2.3,4.4-2.8,7c-0.2,0.4-0.3,1-0.5,1.7c-1.4,1.9-2.1,4-2.7,6.3c-0.4,0.7-1.1,1.6-2.2,2.5
	c0.3,1.2-0.1,1.9-0.6,2.4c-0.1,0.7,0,1.2,0.2,1.8c-0.6,0.2-1.1,0.6-1.6,1.1c-0.7,2.1-1.6,4.5-2.3,6.6c-0.4,0.7-0.9,1.2-1.6,1.1
	c-0.2,0.4-0.5,0.4-0.4,0.7c-0.1,1-0.5,1.7-1.2,2.5c-1.4,1.6-2.1,3.7-3,5.2c-0.9,1.2-1.6,1.1-2.4,1.6c-0.4,0.7-1.1,1.6-1.6,2.3
	c-1,0.9-1.9-0.1-3.1,0.2c-0.6,0.2-0.6,1.4-1.1,1.6c-1.1-0.6-2.2-1.3-3.6-1.8c-0.3-1.2-0.3-2.4-0.9-3.5c-0.6-1.1-1.5-2.1-1.7-3
	c-1.4-1.8-3.5-1.3-4.7-2.5c-1.1-1.9-2-3.9-1.6-6.1c0.2-2.6,1.8-3.9,3-5.2c0.1-0.7-0.2-0.9-0.5-0.8c-0.8,0.5-1.1,1.6-2.1,1.5
	c-0.8-0.7-0.8-1.7-0.6-2.3c0.6-1.4,1.6,0.2,2-0.8c-0.5-0.8-1.2-2.2-2.3-1.6c0.3-2.3,0.4-4.2,0.6-6.1c0.3-1,1.2-1.3,1.6-2.3l2,0.4
	c0.1-0.7,0.3-1.3-0.3-2.1c-0.5,0.4-1.2,0-1.8,0.2c-0.7-1.4,0.1-3.2-0.7-3.9c0.2-1.6,0.6-2.4,1.5-2.6c0.5-0.4,1-0.9,1.1-1.8
	c0.3-0.1,0.7,0.1,0.8-0.5c-0.4-0.2-0.6,0.2-0.8,0.5c-0.3,0.1-0.7-0.1-1.1-0.6c0.1-1,0.4-2,0.8-3c0.7-0.8,0-2.2,0.8-2.7
	c1-0.9,0.7-2.1,1-3.1l0.9-0.2c0.2,0.6,0.5,0.8,1,0.1c-0.3,0.1-0.6,0.2-1-0.1c-0.2-0.6-0.4-1.5-0.3-2.4c0.9-1.5,0.7-4.3,2.3-5.6
	c0.1-0.7,0.1-1,0.2-1.6c0.6-1.1,0.9-2.4,2-3c0.1-1-0.1-1.5,0-2.5c0.1-0.7,0.6-1.1,1.1-1.6c0.5-0.4,1.3,0.3,1.9,0.1
	c0.4-0.7-0.2-0.9-0.4-1.5c-0.3-1.2,0.4-2,0.2-2.9c0.7-0.8,1.1-1.6,1.3-2.2c1.2-0.3,1,1.3,1.6,1.4c0.2-0.4,0.4-0.7,0.3-1
	c-0.5-0.8-0.8-1.7-0.8-2.9c1.4-1.9,2.6-4.1,3.9-6.4c2.4-1.6,3.7-5,6.3-5.7c2.5,0,4.7-1,7.3-2c0.7,0.4,2.1,0.7,2.7,0.8
	c1.5,0.9,1.8,2,2.1,3.2c0.4,0.5,0.8,0.7,1.2,0.9c1.2-0.3,2.1-1.5,2.7-2.6c1.6,0.2,3.1-0.2,4.5-0.6c-0.2-0.9-1-0.1-1.6-0.2
	c-1.2,0-1.6-1.1-1.4-1.8c0.4-2,1.1-4.1,1.8-6.1c-0.1-0.3,0.1-0.7,0.4-0.7c2.5-1.3,4.4,0.1,6.8,0.7c1.3,0.3,3.9,0.5,3.8,2.4
	c-0.2,4.1,0.3,8.1-0.8,12.1c-0.4,2-0.4,4.5-0.1,6.6c0.8,6.7-0.2,13.2,0,19.7c0.2,4.3,0.4,8.4,0.3,12.7c0,1.2,0,2.2,0,3.4
	c-0.3,1,0,2.5,0.4,3.7c0.6,4.5,0.5,8.9,2,13.2c0.4,0.2,0.4,0.5,0.5,0.8c3.7-2.6,3.7-2.6,5.4-5.5l0.4-0.7c2.2-2.5,4.3-4.9,6.4-7.7
	l0.9-0.2c-0.3-1.2,0.1-1.9,0.5-2.6c1.3-1,1.9-2.1,2.6-3.2c0.9-1.5,2-3,4-3.6c0.4-2,1.2-3.8,2.7-5.1c1.5-1.3,1.8-3.6,3.7-4.8
	c0.8-0.5,1.6,0.2,2.2,0c0.4-0.7-0.5-0.8-0.7-1.4c-0.1-0.3-0.2-0.6,0.1-0.7c0.7-2.1,1.6-3.5,3.1-4.9l1.2-0.3c1.1-0.6,0.9-1.5,0-2.2
	c0.1-1,0.8-1.8,0.9-2.4c0.4-0.7,1.6-1.1,1.7-2c0.1-1,0.8-1.8,1.5-2.6c0.4-0.7,1.1-1.6,1.6-2.3c0.5-0.4,0.9-1.5,1.7-1.7
	C545.8,273.8,545.6,274.5,545.7,274.8z M453,314c-0.2,0.4-0.8,0.5-0.6,1.4C453,315.3,453,315.3,453,314z M455.5,295.5
	c0.8-0.5,1.3-1,1.9-1.1C456.7,294.3,455.9,293.5,455.5,295.5z M483.3,270.9c-0.5-0.8-1.6-1.1-2.3-1.6l-2.4,1.6
	c-0.1,0.7-0.3,1.3-0.8,1.8c-0.6,0.2-0.9,0.2-1.5,0.1c-1.1,2.8-3,5.2-4.1,8c-1.7,2-2.5,4.7-3.4,7.2c-0.5,1.7-1,3.1-1.5,4.8
	c-0.1,0.7-0.3,1.3-0.7,2.1c-1.3,2.2-1.7,5.2-2.6,7.9c-0.5,1.7-1,3.4-1.6,4.5c-0.3,4.8-1.3,9.1-2.8,12.9c0.3,2.1,0.1,4-0.3,6
	c-0.3,1.3-0.5,2.9-0.4,4.2c-0.1,0.7,0,1.2,0.5,1.8c0.7-0.8,1.1-1.6,1.5-2.6c0.6-1.1,1.3-2.2,2-3c0.6-1.1,1.5-2.6,2.1-4
	c1-2.1,1.9-4.6,3-6.1c0.8-2.7,1.7-5.2,2.7-7.3c0.4-0.7,0.9-0.2,1.4-0.7l0.2-2.9c1.1-1.8,0.9-4.6,2.8-5.8c0.8-0.5,1.8,0.8,2.7-0.4
	c-0.5-0.8-0.8-0.7-1.1-0.6c-0.7-0.1-1-0.3-1.2-0.9c-0.2-0.9,0.6-1.4,0.6-2.4c0.1-3.2,1.6-5.7,2.4-8.5c0.8-1.8,1.6-3.3,1.7-5.2
	c0.4-0.7,0.6-1.1,1.1-1.6c0-1.2-0.3-2.4,0.4-3.2c0.6-1.1,0-2.5,0.3-3.5C482.5,272.6,483.3,271.8,483.3,270.9z M463.9,329.2l-0.3,0.1
	c0.1,0.3,0.1,0.3,0.4,0.2L463.9,329.2z M470.8,266.1c0.3-0.1,0.4,0.2,0.4,0.2l-0.1-0.3l-0.1-0.3L470.8,266.1z M472.4,312.9
	c-0.1-0.3,0.1-0.7,0.3-1c-0.9,0.2-1.2,0.3-1.3,1c0.2,0.6,0.6,1.1,1.1,1.6c0.4,0.2,0.7,0.1,0.9-0.2
	C473.2,313.6,472.6,313.8,472.4,312.9z M478.6,297.5c0.4,0.5,0.7,0.4,1,0.1C479.4,297,479.1,297,478.6,297.5L478.6,297.5z
	 M479,293.3c-0.1-0.3-0.4-0.2-0.4-0.2c-0.1,0.7-0.1,1,0.3,1.2C479.2,293.9,479.1,293.6,479,293.3z M483.8,283.2
	c-0.1-0.3-0.2-0.6-0.4-0.5c0,0-0.2,0.4-0.1,0.7S483.6,283.6,483.8,283.2z M490.1,319.4l-0.3,0.1c-0.6,0.2-0.4,0.7-0.3,1.3
	c0.3-0.1,0.7,0.4,1.2-0.3C490.6,320.2,490.7,319.6,490.1,319.4z M493.5,315.7c-0.1-0.3-0.2-0.6-0.5-0.8c-0.2-0.9-1.1-1.6-1-2.5
	l-1,3.1c0,0,0.1,0.3,0.2,0.6c0.4,0.2,0.7,0.1,1,0.3C492.7,316.5,493,316.4,493.5,315.7z M494,308.4c-0.4-0.5-0.6-1.1-1.2-0.9
	C492.5,308.8,493.4,308.5,494,308.4z M556.5,339.2c-2.3-0.8-4.8-1.3-6.9-3.4l-1.9-4.4c-0.1-0.7,0.6-0.9,0.8-1.4l-1-2.4
	c1.6-2.2,1.7-5,3.2-7.4c-1.5-2.9-2.3-6.1-0.9-9.8c0.8,0.1,0.4,1.1,0.9,1.5c0.1,0,0.3,0,0.3,0c0.8-1.3,0.4-2.8,1.4-4l-0.5-2.2
	c0.2-0.6,0.5-1.2,1-1.2c1.3-0.2,2.1-1.5,3.4-2.2c-0.5-1-1.3-1.9-1-3.3c0.2-1.2,0.8-2.2,1.8-3.2l3.1-0.4c0.7-1.4-0.5-2.6,0.3-4.1
	c1.4-1.2,1.7,1.1,3,0.5c0.5-1.1,0.4-2.4,0.5-3.5c-0.3-0.9-0.8-1.5-1.4-1.7c-1.6-0.4-2.4-2.2-4.2-2.2c-0.2,0-0.5-0.1-0.6-0.3
	c-1.5-2.3-4.2-2.6-6.4-4c-0.4-1-0.9-1.8-2-2.1l0.6-1.2c-1,0.1-1.9,0.1-2.7,0.2c-1-0.5-1.7-0.9-2.6-1.3c-0.7-0.3-1.5-0.6-2-0.8
	c-0.5-0.4-0.2-0.8-0.1-1.4l-3-4.8c-0.3-1.5,0.5-3.5-0.5-4.8c0.5-1.7,1.5-2.8,2.3-4.1l0.2-3.2c-0.5-1.4-1.1-2.9-1.7-4.5l0.3-2.7
	c0.9-1.3,1.4-3.1,3.1-4.1l2.3,1.1c0.1-1.2-1-1.7-0.7-3.1c1.1-1.1,2.9-1.7,3.3-3.8c2,0.1,3-1.6,4.5-2.3c1.4-0.6,2.7-1.5,4-2.3
	c0.7-0.1,1.5-0.3,2.1,0.2l-1,1.2c-0.2,0.9-0.2,1.6,0.9,1.6c0.9-0.2,1.4-1,2-1.7c0.2-0.9-1-0.5-0.8-1.1c-0.2-1.1,0.4-1.7,0.9-2.3
	c2.1-1,4.5-1.1,6.5-2.9c1,0.3,2.1-0.1,3-0.4c0.8,0,0.8,0.8,1.3,1.3l2.2,0.7c0.4-0.4,0.4-0.5-1-1.9c0.1-0.6,0.5-0.9,1-1.1
	c0.4-0.1,0.7-0.2,1.1-0.2c0.5,0,0.9,0,1.5,0c1.4,1.8,3.7,2.6,5.1,4.9c-0.5,1.5-0.8,3.2-1.7,4.7c-0.6,0.8-1.3,0.7-2,0.9
	c-0.7,0.2-1.2,0.8-2,1.4l-3.7,0.5c-2.6,1.5-5.4,3-8.2,4.6c-0.2,0.1-0.5,0.2-0.7,0.4c-2.2,1.9-4.5,3.6-6.6,5.5
	c-1.2,1.1-2.4,2-3.9,2.3c-0.6,1.4-1.8,2.4-2.2,4.1c2.3,1.3,4.8,2.2,6.3,4.2c1.8,0.6,3.3,1.1,4.9,1.6c0.7,0.2,1.4,0.3,1.9,0.8
	c2.2,2.1,5.1,3.2,7.6,4.8c1,0.7,1.7,1.5,2.3,2.6c1.8-0.6,2.6,1.4,4.3,1.5l1.6,1.8l2.8-0.7c2.2-1.8,4.4-3.6,6.7-5.5l2.5-0.7
	c1.8-2,4.1-3.2,6.5-3.8c1.6-0.4,3.1-1.1,4.4-2.1c2.1-1.6,4.3-2,6.5-2.7l2.2,1.3c1.2-0.4,1.5-1.9,2.7-2.7c2.7-0.4,5.6-1.1,8.5-0.2
	c-0.2,0.5-0.2,0.8-0.3,0.9c-1.3,1.1-2.6,2.2-4,3.2c-3.1,2.1-6.2,4.1-9.2,6.5c-1.3,1.1-3,1.7-4.4,3c-4.7,4.2-9.6,8.1-14.2,12.6
	c-0.6,0.6-1.2,1.2-1.7,1.8c1,3,2.2,6.2,2.4,10c-0.1,0.1-0.3,0.6-0.6,1c-0.3,0.4-0.6,0.9-0.7,1.1c-0.2,1.2,0.7,1.4,0.9,1.8
	c0.4,2-0.6,3.8-0.4,5.6c0,0.3-0.1,0.9-0.4,1.1c-1.6,1.8-1.8,4.1-2.6,6.1c-0.9,2.4-2.5,4.4-3.9,6.6c-1.2,1.8-2.3,3.5-4,5
	c-1.1,0.9-1.7,2.4-2.6,3.7c-1.9,1.4-3.9,2.8-5.7,4.6c-0.6,0.6-1.5,1.1-2.2,1.5c-2.7,1.7-5.5,3.3-8.5,4
	C558.9,338,557.8,338.7,556.5,339.2L556.5,339.2z M542,251c-0.4,0.3-0.3,0.6-0.1,0.8C542.3,251.6,542.2,251.3,542,251z M548.4,244.4
	c0.3,0.4,0.7,0.3,1.1-0.1C549.2,244,548.8,243.9,548.4,244.4z M549.8,274c0,0-0.1,0.2-0.1,0.3c0,0.4,0.2,0.5,0.6,0.3
	C550.3,274.2,550.2,274,549.8,274z M558.3,299.4 M564,235c-0.4,0.3-0.4,0.5-0.1,0.8C564.3,235.5,564.3,235.3,564,235z M569.1,308.7
	c1.3-1.5,2.9-2.6,4.1-3.7c0.7-1.5,1.4-2.7,1.9-3.9c0.3-0.8,0.7-1.7-0.1-2.4c-1.2,0.2-2,1.1-2.6,2.2c-0.9,1.5-2.1,2.7-3.1,4.1
	c-1.6,2.1-3,4.3-5.1,7.2C566.7,311.2,567.6,310.5,569.1,308.7z M571.6,285.8c0.7,0,1.5,0.1,1.9-1
	C572.6,284.5,572.1,285.2,571.6,285.8L571.6,285.8z M573.5,312.9c-0.1-0.4-0.3-0.6-0.7-0.7c-0.3,0.5-0.2,1-0.1,1.4
	C573.2,313.6,573.4,313.3,573.5,312.9z M704.8,232.2c-0.1,4.4-0.5,8.6-0.9,13.1c-0.1,0.7-0.5,1.7-0.9,2.4c-1.1,4.1-1.9,8-3.3,12.2
	c-1.3,3.2-2.3,6.6-3.9,9.8c-1.6,3.5-3.6,6.6-4.4,9.3c-0.9,1.5-1.7,0.8-2.4,1.6c-0.1,0.7,0.1,1.5,0,2.5c-0.9,1.2-1.9,2.4-3.1,3.6
	c-0.5,2.6-2.2,4.7-4.2,6.4c-1.9,2.1-3.8,4.5-5.8,6.3c-0.7,0.8-1.5,1.3-2.2,2.2c-2.6-0.5-5,0.1-6.7,1.8c-1.7-0.5-3-1.7-4.4-2.6
	c-0.4-2.7-3.6-4-3.7-6.8c-1.6-1.1-4-0.8-4.5-2.9c-0.2-0.6,0.6-1.1,0.9-1.5c-1.5-0.9-2.7-1.8-4.1-2.6c0.1-1,0.9-1.5,1.3-2.2
	c0.4-0.7,1.9,0.1,1.8-1.4c0,0-0.1-0.3-0.4-0.2c-0.6,0.2-1.1,0.6-1.7,0.8s-1.3,1-1.8,1.4c-0.4-0.2-0.4-0.5-0.8-0.7l-0.1-0.3
	c-1.4-3.1-1.6-6.1-1.5-9.3c0.2-2.6-0.4-4.9-0.4-7.4c0-2.2,0.3-4.8,0.3-7c-0.3,1-1.1,1.9-1.5,2.6c-0.1,1-0.2,1.6-0.2,2.6
	c-1.4,1.9-2.3,4.4-2.8,7c-0.2,0.4-0.3,1-0.5,1.7c-1.4,1.9-2.1,4-2.7,6.3c-0.4,0.7-1.1,1.6-2.2,2.5c0.3,1.2-0.1,1.9-0.6,2.4
	c-0.1,0.7,0,1.2,0.2,1.8c-0.6,0.2-1.1,0.6-1.6,1.1c-0.7,2.1-1.6,4.5-2.3,6.6c-0.4,0.7-0.9,1.2-1.6,1.1c-0.2,0.4-0.5,0.4-0.4,0.7
	c-0.1,1-0.5,1.7-1.2,2.5c-1.4,1.6-2.1,3.7-3,5.2c-0.9,1.2-1.6,1.1-2.4,1.6c-0.4,0.7-1.1,1.6-1.6,2.3c-1,0.9-1.9-0.1-3.1,0.2
	c-0.6,0.2-0.6,1.4-1.1,1.6c-1.1-0.6-2.2-1.3-3.6-1.8c-0.3-1.2-0.3-2.4-0.9-3.5c-0.6-1.1-1.5-2.1-1.7-3c-1.4-1.8-3.5-1.3-4.7-2.5
	c-1.1-1.9-2-3.9-1.6-6.1c0.2-2.6,1.8-3.9,3-5.2c0.1-0.7-0.2-0.9-0.5-0.8c-0.8,0.5-1.1,1.6-2.1,1.5c-0.8-0.7-0.8-1.7-0.6-2.3
	c0.6-1.4,1.6,0.2,2-0.8c-0.5-0.8-1.2-2.2-2.3-1.6c0.3-2.3,0.4-4.2,0.6-6.1c0.3-1,1.2-1.3,1.6-2.3l2,0.4c0.1-0.7,0.3-1.3-0.3-2.1
	c-0.5,0.4-1.2,0-1.8,0.2c-0.7-1.4,0.1-3.2-0.7-3.9c0.2-1.6,0.6-2.4,1.5-2.6c0.5-0.4,1-0.9,1.1-1.8c0.3-0.1,0.7,0.1,0.8-0.5
	c-0.4-0.2-0.6,0.2-0.8,0.5c-0.3,0.1-0.7-0.1-1.1-0.6c0.1-1,0.4-2,0.8-3c0.7-0.8,0-2.2,0.8-2.7c1-0.9,0.7-2.1,1-3.1l0.9-0.2
	c0.2,0.6,0.5,0.8,1,0.1c-0.3,0.1-0.6,0.2-1-0.1c-0.2-0.6-0.4-1.5-0.3-2.4c0.9-1.5,0.7-4.3,2.3-5.6c0.1-0.7,0.1-1,0.2-1.6
	c0.6-1.1,0.9-2.4,2-3c0.1-1-0.1-1.5,0-2.5c0.1-0.7,0.6-1.1,1.1-1.6c0.5-0.4,1.3,0.3,1.9,0.1c0.4-0.7-0.2-0.9-0.4-1.5
	c-0.3-1.2,0.4-2,0.2-2.9c0.7-0.8,1.1-1.6,1.3-2.2c1.2-0.3,1,1.3,1.6,1.4c0.2-0.4,0.4-0.7,0.3-1c-0.5-0.8-0.8-1.7-0.8-2.9
	c1.4-1.9,2.6-4.1,3.9-6.4c2.4-1.6,3.7-5,6.3-5.7c2.5,0,4.7-1,7.3-2c0.7,0.4,2.1,0.7,2.7,0.8c1.5,0.9,1.8,2,2.1,3.2
	c0.4,0.5,0.8,0.7,1.2,0.9c1.2-0.3,2.1-1.5,2.7-2.6c1.6,0.2,3.1-0.2,4.5-0.6c-0.2-0.9-1-0.1-1.6-0.2c-1.2,0-1.6-1.1-1.4-1.8
	c0.4-2,1.1-4.1,1.8-6.1c-0.1-0.3,0.1-0.7,0.4-0.7c2.5-1.3,4.4,0.1,6.8,0.7c1.3,0.3,3.9,0.5,3.8,2.4c-0.1,4.1,0.3,8.1-0.8,12.1
	c-0.4,2-0.4,4.5-0.1,6.6c0.8,6.7-0.2,13.2,0,19.7c0.2,4.3,0.4,8.4,0.3,12.7c0,1.2,0,2.2,0,3.4c-0.3,1,0,2.5,0.4,3.7
	c0.6,4.5,0.5,8.9,2,13.2c0.4,0.2,0.4,0.5,0.5,0.8c3.7-2.6,3.7-2.6,5.4-5.5l0.4-0.7c2.2-2.5,4.3-4.9,6.4-7.7l0.9-0.2
	c-0.3-1.2,0.1-1.9,0.5-2.6c1.3-1,1.9-2.1,2.6-3.2c0.9-1.5,2-3,4-3.6c0.4-2,1.2-3.8,2.7-5.1s1.8-3.6,3.7-4.8c0.8-0.5,1.6,0.2,2.2,0
	c0.4-0.7-0.5-0.8-0.7-1.4c-0.1-0.3-0.2-0.6,0.1-0.7c0.7-2.1,1.6-3.5,3.1-4.9l1.2-0.3c1.1-0.6,0.9-1.5,0-2.2c0.1-1,0.8-1.8,0.9-2.4
	c0.4-0.7,1.6-1.1,1.7-2c0.1-1,0.8-1.8,1.5-2.6c0.4-0.7,1.1-1.6,1.6-2.3c0.5-0.4,0.9-1.5,1.7-1.7
	C704.8,231.2,704.7,231.9,704.8,232.2z M612,271.4c-0.2,0.4-0.8,0.5-0.6,1.4C612.1,272.7,612.1,272.7,612,271.4z M614.6,252.9
	c0.8-0.5,1.3-1,1.9-1.1C615.8,251.6,615,250.9,614.6,252.9z M642.4,228.2c-0.5-0.8-1.6-1.1-2.3-1.6l-2.4,1.6
	c-0.1,0.7-0.3,1.3-0.8,1.8c-0.6,0.2-0.9,0.2-1.5,0.1c-1.1,2.8-3,5.2-4.1,8c-1.7,2-2.5,4.7-3.4,7.2c-0.5,1.7-1,3.1-1.5,4.8
	c-0.1,0.7-0.3,1.3-0.7,2.1c-1.3,2.2-1.7,5.2-2.6,7.9c-0.5,1.7-1,3.4-1.6,4.5c-0.3,4.8-1.3,9.1-2.8,12.9c0.3,2.1,0.1,4-0.3,6
	c-0.3,1.3-0.5,2.9-0.4,4.2c-0.1,0.7,0,1.2,0.5,1.8c0.7-0.8,1.1-1.6,1.5-2.6c0.6-1.1,1.3-2.2,2-3c0.6-1.1,1.5-2.6,2.1-4
	c1-2.1,1.9-4.6,3-6.1c0.8-2.7,1.7-5.2,2.7-7.3c0.4-0.7,0.9-0.2,1.4-0.7l0.2-2.9c1.1-1.8,0.9-4.6,2.8-5.8c0.8-0.5,1.8,0.8,2.7-0.4
	c-0.5-0.8-0.8-0.7-1.1-0.6c-0.7-0.1-1-0.3-1.2-0.9c-0.2-0.9,0.6-1.4,0.6-2.4c0.1-3.2,1.6-5.7,2.4-8.5c0.8-1.8,1.6-3.3,1.7-5.2
	c0.4-0.7,0.6-1.1,1.1-1.6c0-1.2-0.3-2.4,0.4-3.2c0.6-1.1,0-2.5,0.3-3.5C641.6,230,642.3,229.2,642.4,228.2z M623,286.6l-0.3,0.1
	c0.1,0.3,0.1,0.3,0.4,0.2L623,286.6z M629.8,223.5c0.3-0.1,0.4,0.2,0.4,0.2l-0.1-0.3l-0.1-0.3L629.8,223.5z M631.4,270.3
	c-0.1-0.3,0.1-0.7,0.3-1c-0.9,0.2-1.2,0.3-1.3,1c0.2,0.6,0.6,1.1,1.1,1.6c0.4,0.2,0.7,0.1,0.9-0.2
	C632.3,271,631.7,271.2,631.4,270.3z M638.6,254.9c-0.2-0.6-0.4-0.5-1-0.1C638.1,255.4,638.4,255.3,638.6,254.9z M638.1,250.7
	c-0.1-0.3-0.4-0.2-0.4-0.2c-0.1,0.7-0.1,1,0.3,1.2C638.2,251.3,638.2,251,638.1,250.7z M642.9,240.6c-0.1-0.3-0.2-0.6-0.4-0.5
	c0,0-0.2,0.4-0.1,0.7S642.7,241,642.9,240.6z M649.1,276.8l-0.3,0.1c-0.6,0.2-0.4,0.7-0.3,1.3c0.3-0.1,0.7,0.4,1.2-0.3
	C649.7,277.6,649.8,276.9,649.1,276.8z M652.5,273.1c-0.1-0.3-0.2-0.6-0.5-0.8c-0.2-0.9-1.1-1.6-1-2.5l-1,3.1c0,0,0.1,0.3,0.2,0.6
	c0.4,0.2,0.7,0.1,1,0.3C651.8,273.9,652.1,273.8,652.5,273.1z M653.1,265.7c-0.4-0.5-0.6-1.1-1.2-0.9
	C651.6,266.1,652.5,265.9,653.1,265.7z M766.3,93.5c2.1,1.7,3.3,3.9,3.9,6.3c0.2,0.9-0.1,1.8-0.4,2.7c-0.3,0.7-0.5,1.4-0.7,2.1
	c-0.7,0.8-1.5,1.1-2.6,1.3c-0.7-0.3-1.6-0.2-2.4-0.5l-0.9-1.5c0.1-0.9,1.7-0.1,1.6-1.3c-0.5-0.6-0.7,0.7-1.2,0.1
	c-0.4-1.5,1.7-1.4,1.9-2.6c-0.4-0.8-1.1-0.2-1.8-0.7c-0.3-0.2-0.7-0.9-1.4-1.3c-0.6-0.4-1.5,0.1-1.8-0.9c-0.5-0.2-0.9,0.1-1.4,0.1
	c-0.5-0.1-0.9-0.5-1.4-0.9c-1,1.5-2.7,1.3-4.5,1.3c-0.2-0.1-0.1-0.8-0.8-0.9c-1,0.5-2,1.1-3.1,1.7c-0.4,0.2-0.9,0.5-1.4,0.3
	c-0.8-0.4-1.5-0.1-2.3,0.1l-1-0.7c-0.5,0.6-1.4,0.5-1.8,1c-0.7,1-1.5,0.9-2.4,0.6c-0.2,0-0.3,0-0.6,0l-1.5,1.8
	c-0.6,0-1.1-0.2-1.7-0.4c-0.4,0.6-0.8,1.1-1.5,1.4c-0.7,0.4-1.4,0.6-2.1,0.4c-0.8,0.9-1.6,1.5-2.9,1.1l-0.8,1.3
	c-1.3,0.2-2.4,0.7-3.3,1.7c-0.2,0.3-0.5,0.4-0.8,0.5c-0.9,0.1-1.5,0.6-2.2,1c-0.6,0.4-1.2,0.5-1.9,0.3c-0.9,2-3.3,1.6-4.7,2.8
	c-0.3,0.3-0.5,0.8-0.7,1.4l-0.5-1c-0.5-0.2-0.8,0-1.3,0.3c0.2,1.1,0.4,2.2-0.6,3.1c-0.4,0.3-0.7,0-1.1,0c-0.7,0.4-1.3,0.8-1.5,1.6
	l-1.3-0.1c-0.4,0.5-0.6,1.2-1.2,1.3c-0.5,0.5,0,1.1-0.4,1.5c-0.4,0.4-0.7-0.1-1-0.1c-0.9,0.2-0.9,1.3-1.4,1.8c-0.5,0.5-1.1,1-2,1.1
	c0.1,1-1,1.6-0.5,2.6c-0.9,0.9-2.2,1.3-2.8,2.5c-0.3,0.4,0.4,0.5,0.4,0.8c-0.1,0.8-1,1.2-1.2,1.9c-0.4,0.4-0.9,0-1.4,0.3l-0.6,0.6
	c-0.6-0.1-1.2-0.3-1.9-0.4c0.3,0.8,1.1,0.8,1.4,1.3c0.1,0.9-0.8,0.9-1,1.4c-0.3,0.6,0.4,1.2,0,1.9c-2.1,0.2-2,2.1-2.3,3.6
	c-0.3,1.3-0.5,2.6-1.4,3.6c-0.5,0.6-0.3,1.3-0.2,2c-0.3,0.6-0.5,1.1-1,1.5c-0.8,0.8-1,1.8-0.8,3c0.3,1.3,0.4,2.7-0.2,4
	c0.9,1,0.5,2.2,0.4,3.4c0.7,1.2-0.1,3,1.5,3.8c0.1,0.8-0.2,1.6,0.4,2.2c0.5,0.5,1.1,0,1.5,0.4c0.5,0.2,0.4,0.8,0.4,0.9
	c0.6,0.6,1.1,0.7,1.6,0.9l0.4,1.5c0.6,0.8,1.2,0.9,1.9,0.9c0.3,0.7,1.4,0.9,1.1,2.1c-0.8-0.5-1.4-1.3-2.4-0.7c0.6,0.5,1.3,1,2.1,1.2
	l0.7-0.5c0.9,0.8,2.3,0.4,3.3,1.3c0.4,0.6,0.7,1.3,0.8,2.1c0.7,0.4,0.8-0.4,1.4-0.4c0.6,0.3,1.3,0.6,1.8,1.1c0.3,0.5-0.5,0.9,0,1.5
	c-0.1-0.1,0,0.1,0.1,0.1c1.3,0,2.5,0.3,3.4,1.2c0.8,0.8,2.1,0.7,2.8,1.6l1.6-0.3c0.6,0.4,0.9,1.1,1.2,1.5c0.4,0.4,0.8,0.3,1.2,0.3
	c0.4,0.3,0.5,0.9,1.1,1.2c0.7,0.4,1.5-0.1,2.2-0.1c1.5,0.7,1.5,0.8,1.2,2.3c0.2,0.2,0.5,0.2,0.8,0.2c0.3,0,0.5,0,0.8,0
	c0.4,0.1,0.4,0.5,0.7,0.7l0.9,0.1c0.6,0.6,1.2,1.2,1.6,2c1.3-0.1,2.6-0.8,3.9,0.4l0.5,1c1,0.3,1.8,1.2,2.7,1.1
	c0.6,0.6,0.5,1.4,1,1.9c0.6,0.3,1.5-0.3,2.1,0.4c0.5,0.6,1,1.1,1.8,1.3c0.4,0.6,0.4,1.4,1.1,1.8c0.4,0.2,0.7-0.1,1.1,0
	c0.4,0.5,1.2,0.9,1.2,1.6c0,0.6,0.2,0.9,0.9,1.1c0.6,0.2,1.1,0.5,1.6,0.8c0.5,0.6,1,1.3,1.3,2.1c1.6,0.5,2.3,1.9,3.7,2.6
	c0.2,0.7-0.3,1.3-0.1,1.7c0.3,0.7,1.1,0.4,1.6,1c0.3,0.8,0.5,1.9,1.8,1.8c0.6,0.7-0.1,1.2,0,2c1.2,0.6,1.7,2.3,3.3,2.8
	c0.8,0.3,1,0.9,1,2.2c0.8,0.9,2.1,1.6,1.6,3.1c1,0.5,1.8,1.2,3.1,1.1c0.3-1.2,1.2-1.8,2.5-2c0.7-0.1,1-0.8,2-0.8
	c0.5,0.1,1,0.8,1.9,0.5c-0.8,0.9-1.4,1.6-2.4,1.7l-0.4,1.7c-1.1,0.8-2,1.9-3,2.9c-0.1,0.8,0.7,1.6,0.2,2.3c0.4,0.8,1,1.1,1.5,1.5
	c0.2,1.3,0.6,2.6,0.5,4c0,0.5,0.2,1,0.5,1.4c0.9,1.3,1.4,2.6,1.5,4.2c0.1,1.3,0.7,2.7,0.7,4c0,1.4,0.1,2.8,0.6,3.9
	c0.1,0.8-0.4,1.2-0.5,1.8c1.4,1.6,0.9,3.3,0.2,4.9c0.8,2.1,0.4,4-0.4,5.8c-0.1,0.7,0.3,1.3,0.3,2c-0.3,0.6-0.3,1.4-0.5,2.2
	c-0.5,2.7-0.6,5.6-2.2,8l0.2,1.3c-1.3,3-1.9,6.3-3.6,9.2c-0.2,0.4-0.8,0.3-1.1,0.8c-0.1,0.7-0.3,1.4-0.3,2.1c0,1.3-0.5,2.4-1.4,3.3
	c-0.7,0.7-1.4,1.4-1.4,2.3c-0.4,0.6-1,0.4-1.3,0.9c-0.3,0.5,0.2,1-0.1,1.6c-1.1,0.7-2.3,1.6-3.2,2.8l0.2,1.3
	c-0.2,0.7-1.3,1.3-2.5,1.4c-0.4,1-0.4,1-0.1,1.9l-1.1,1.3c-0.4,0.1-0.8-0.2-1.2,0.1c-0.7,1.1-1.5,2.1-2.9,2.8
	c-0.5,0.3-1,0.8-1.4,1.3c-0.7,1.1-1.7,1.8-2.9,2.1c-0.7,0.2-1.1,0.8-1.8,0.8c-0.6,0-1-0.5-1.7-0.5c-0.8,0.8-2.3,0.6-3.1,1.7
	c-0.3-0.6-0.6-1.4-1.4-1.4c-0.5-0.1-0.7,0.4-1,0.5c-0.6,0-1.1-0.2-1.5-0.5c-0.6,0-0.8,0.7-1.4,0.7c-0.4-0.5-0.4-1.1-0.7-1.7
	c-0.7-0.2-1.4-0.4-1.7-1.3c-1.2,0-2-0.5-2.5-1.6c-0.7-1.5-1.8-2.5-3.4-2.7c-1-0.1-1.9-0.5-2.9-0.8c-0.6-1,0.1-2.5-0.9-3.2
	c-0.5-1.1,1.2-0.9,0.7-1.9c-0.6-0.3-0.8,0.6-1.4,0.3c-0.3-0.2-0.4-0.5-0.1-0.9c0.3-0.3,0.2-0.7,0.1-1l0.7,0.1
	c0.3-0.2,0.4-0.4,0.4-0.7l-1.1,0c0,0.2,0,0.4,0,0.6l-0.5,0.1c-0.5-1.3-1.1-2.6-2.2-3.5c0.1-0.8,0.7-0.3,1-0.5c0.2-0.5-0.3-0.7-0.5-1
	c0.3-1.5,0.6-1.9,1.7-2c0.3,0.5,0.1,0.9,0,1.4c0.6,0.7,0.6,1.8,1.5,2.2c-0.1,0.6-0.5,1-0.8,1.4l1,1.1c0.4-0.2,0.3-0.6,0.3-1
	c0-0.6,0-1.2,0-1.8c0.2-0.5,0.8-0.7,1.1-1.3c-0.5-0.4-1.3,0.3-1.8-0.4c-0.3-0.8,0.1-1.7-0.6-2.5c-0.6,0.1-1.3,0.2-2-0.6
	c-0.2-0.2-0.3-0.6-0.1-1.3c0.1-0.4,0.8-0.3,1.1-0.7c0.1-0.7-0.9-1-0.6-1.9c1.1-0.8,1.1-2.3,1.6-3.6c0.2-0.1,0.4-0.1,0.6-0.2
	c0.1,0,0.3,0.1,0.4,0.1c0.3,0.5,0,1.1,0.6,1.6c0.8-1,0.9-2.1,1.1-3.3l1-0.4c0.1-0.5-0.2-1,0-1.5c-1.1-0.5-2.1-1.2-2.6-2.5
	c0-0.7,0.5-1.2,1.3-1.3c0.1-1.2,0.2-2.3,1.3-2.8c0.3-0.6,0.2-1.2,0-1.7l0.7-0.6c0.5,0.1,0.3,0.7,0.8,0.9c0.4,0.1,0.7-0.1,0.8-0.5
	c-0.1-0.7-1-0.5-1.1-0.7c-0.3-0.8,0-1,0.4-1.1c0.2-0.6,0-1.3,0.4-1.9c0.2-0.3,0.5,0,0.8-0.2c0.6-1.4,0.7-3.1,1.9-4.4
	c0.3-0.2,0.8-0.2,1-0.3c0.8,0.1,0.8,0.7,1.3,1l0.8-1.3c-0.5,0-1.1,0.2-1.6-0.3c-0.6-1.5,1.5-2,1.1-3.5c1.2-0.1,1.5-1.4,2.6-1.7
	c-0.4-0.8-0.2-1.5,0.5-2.1c0.7-0.6,1.3-1.2,2-1.8c0.7-0.5,1.3-1,1.6-1.9c0.2-0.9,1-1.2,1.9-1l-0.1-1c0.3-0.3,0.5,0.1,0.9,0l-0.2-1.2
	c0.4-1.6,1.9-2.3,2.8-3.4c0.7-0.9,1.7-1.6,2.3-2.6c0.8-1.4,3.2-3.3,4.8-3.9c0.2-1.9,1.6-2.6,3.2-3.2c-0.5-1.7-1.1-3.3-0.6-5.1
	l1.5,1.2c0.1-0.4,0.2-0.8,0.4-1.4c-0.7,0.5-1.3,0.1-1.9,0.2c-0.1-0.5,0-1.1,0.1-1.6c-0.2-0.5-1-0.5-1-1.3c-0.5,0.2-1,0.6-1.6,0.1
	c-0.5-0.7-0.6-1.4,0.2-2.2c0.4-0.4,0.6-1,0.2-1.6c-0.5-0.5-1.5-0.3-1.8-1c0.2-0.8,0.9-0.7,1.4-0.9c0.6,0.1,1,0.5,1.3,0.8
	c0.2-0.2,0.3-0.4,0.2-0.8c-0.7-0.4-1.3-1-1-2c-0.6,0-0.8,0.6-1.3,0.5c-0.6-0.1-0.7-0.2-1.5-1.8c0.1-0.4,0.6-0.3,0.6-0.7
	c-0.5-0.7-1.1-0.3-1.7-0.2c-0.2,0.6-0.5,1.3-1.4,1.3c-0.4-0.1-0.7-0.3-0.8-0.8c-0.1-0.7,0.7-0.8,0.8-1.3c-0.2-0.3-0.4-0.6-0.8-0.8
	c-0.3-0.2-0.7,0.1-1.2,0c-0.7-0.7-1.2-1.6-1.7-2.7c-1.1-0.4-2-1-2.7-2.1c-0.8-1.2-2.3-2-3.5-2.9c-0.9-0.7-1.8-1.4-2.9-1.9
	c-0.8-0.4-1.5-0.9-1.9-1.8c0.3-0.1,0.7-0.2,0.3-0.6c-0.4,0.1-0.3,0.4-0.3,0.6l-0.5,0.1c-0.8-1.4-2.1-2-3.8-2c-0.8,0-1.7-0.3-2.3-0.9
	c-0.1-0.4,0.1-0.6,0.3-0.8l1,0.3c-0.7-0.7-1.2-1.2-1.8-1.7L718,191c-1.5-0.8-2.7-2.3-4.5-2.7c-0.5-0.4-0.4-1-0.7-1.3
	c-0.6-0.4-0.8,0.3-1.3,0.4c-1-0.7-2.1-1.5-3.3-1.7c-0.5-0.4-0.4-1.1-0.9-1.5c-0.5-0.2-1-0.1-1.4-0.2c-0.6,0-0.7,0.5-1.4,0.5
	l-0.2-0.1c-0.4-0.6,0.1-1.1-0.1-1.3c-0.6-0.6-1.3-0.4-1.8-0.9l-0.3-1.1c-0.3-0.2-0.7-0.5-1.1-0.9c-0.1,0.5,0.4,0.8,0.1,1.2
	c-0.4,0.4-0.8,0.3-1.1,0c-0.4-0.4-0.4-1-0.7-1.5c-1.1-0.2-1.1-0.2-2.1-1.3l-0.8-0.1c-0.3-0.6,0.4-1,0.1-1.5
	c-0.2-0.3-0.4-0.5-0.7-0.5c-1.2,0.4-2.1-0.3-2.8-1c-0.9-0.8-1.9-1.5-2.8-2.2c-0.8-0.6-1.4-1.3-1.6-2.2l-0.9-0.2
	c-0.7-0.8,0.3-0.9,0.5-1.3l-0.3-1c-0.8,0-1.5-0.2-2.2-0.6c-0.4,0.8,0.8,1,0.4,1.8c-0.5,0.2-0.8-0.1-1.2-0.5c-0.9-0.8-1.6-2-2.9-2.4
	c-0.1-1.2-1.7-1.4-1.5-2.7c-1.1-0.1-1.6-0.8-1.9-1.6c-0.4-1-1-1.9-1.6-2.7c-0.1-0.7,0.7-0.9,0.9-1.4c-0.3-0.3-0.6,0-0.7-0.1
	c-0.7-0.3-0.2-1-0.6-1.4c-0.2-0.5-0.9-0.2-1.3-0.8c0.1-0.6-0.1-1.2-0.3-1.9c-0.2-0.6-0.9-1-0.7-1.9c0.5-0.8,1.6-1.3,2.3-2.3
	c-0.6-0.3-1.1,0.2-1.8,0c-0.4-0.2-0.7-0.6-1-1.1c-0.2-0.8,0.3-1,0.9-1.3l-1-1.2c0.8-2,0.9-4.3,1.7-6.4c1.3,0.1,2.2,0.5,2.7,1.7
	l1.9,0.6c-0.6-1.5-2.4-1.3-2.7-2.6c-0.7-0.3-1.4-0.3-1.9-0.9c-0.2-0.6,0.4-0.5,0.6-0.8c-0.1-0.8,0.4-1.7,0.1-2.5
	c1-1.4,1.3-3.2,3-4.1l-0.6-0.6c0.1-0.5,0.4-0.7,0.8-0.8c0-0.1,0.1-0.2,0.1-0.3c-0.3-0.8,0-1.4,0.6-1.9c0.6-0.5,1-1,1.2-1.8
	c0.2-0.9,1.6-2.2,2.4-2.4c-0.3-1.5,0.6-2.5,1.5-3.5c1.6-0.1,1.8,1.2,2.3,2.3l2.3-0.4c-0.3-0.4-0.5-0.7-0.8-0.8
	c-0.5-0.3-1.1,0.3-1.6,0c-0.2-0.9-0.2-0.9,0.7-1.7l-0.3-0.2c-0.4,0-0.5,0.2-0.7,0.4c-0.1,0.1-0.2,0.2-0.3,0.3
	c-0.4-0.1-0.4-0.1-0.8-0.8c0.3-1.3,1.7-1.7,2.1-2.8l0.9,0c0.4-1.4,1.2-2.5,2.4-3.3l0.8,0.3c0.5-0.3,0.1-1,0.6-1.4l1.3-0.5
	c0-0.6,0-1.2,0.5-1.7c1.3-0.5,2.2-1.6,3.2-2.6c0.6-0.6,1.2-1.2,1.9-1.7c1.7-1.3,3.3-2.6,4.9-4c0.9,0,1.8,0,2.8-0.5
	c0.4-0.3,0.5-1,0.6-1.5c1.1-1.2,2.8-1.1,4-1.7c0.2-0.1,0.5-0.1,0.8-0.2c1.3-0.4,1.4-0.5,2-2.2c1.9-0.4,3.5-1.8,5.6-2.3
	c1.4-0.4,2.8-1,4.1-1.8c1.3-0.8,2.8-1.2,4.4-1.2c1.2,0,2.3-0.3,3.3-1.1c0.8,0.2,1.6,0.1,2.1-0.5c1.2-0.1,2.3-0.3,3.4-0.4
	c1.7-0.2,3.4-1.1,5.2-0.2c2-1.1,4.1-0.2,6.1-0.9c0.7,0.8,1.7,1,2.3,1.6c1,0.1,1.1-0.6,1.3-1.2l0.9-0.2c0.7,0.8,1.6,0.9,2.3,0.8
	c0.6,0.2,0.7,0.8,1.2,1c0.9-0.9,2-0.3,3-0.1c0.8,0.1,1.7,0.4,2.1,1.1c0.7,1.2,1.8,1.7,3,1.9C766.1,92.3,766.1,93,766.3,93.5
	L766.3,93.5z M679.4,134c-0.4,0-0.9,0-1.3,0.5c0.1,0.8-0.7,1.4-0.5,2.4c0.7-0.2,0.9-0.7,1.4-1c0.3-0.2,0.8,0.3,1.2-0.2
	C680.6,134.9,680.1,134.4,679.4,134z M681.2,157c0.3-0.6,0.1-1-0.1-1.3c-0.4-0.2-0.8,0.2-1.2-0.2c-0.6-0.6-0.7-1.8-1.8-2.2
	c-0.6,0.6-0.3,1.2-0.1,1.8l1.1,0.7c0.3,0.4,0.2,0.7,0.2,1C680,157,680.6,157,681.2,157L681.2,157z M679.4,138.4l-0.3,0.1
	C679.3,138.6,679.4,138.7,679.4,138.4z M680.8,137.1l0.1,0.3C680.9,137.3,681,137.1,680.8,137.1z M682.2,137.4c0.5,0,1,0.4,1.4-0.1
	l-1-0.7c-0.3-0.4-0.2-0.9-0.6-1.3c-0.2,0-0.4,0-0.6,0.3C681.8,136.1,681.9,136.7,682.2,137.4L682.2,137.4z M682.9,134.5
	c0.1-0.5,0.5-1,0-1.8C682.7,133.5,682.7,134,682.9,134.5L682.9,134.5z M693,117.1c-0.5-0.4-1.1-0.6-2-0.5
	C692.1,117.4,692.1,117.4,693,117.1z M693.3,133c-0.5,0-0.9,0-1,0.4c0,0.5,0.3,0.6,0.6,0.8C693.2,133.9,693.3,133.5,693.3,133z
	 M693.1,120.9l0.5,0.3C693.6,120.7,693.4,120.6,693.1,120.9z M694,114.5c0.3,0,0.7,0.1,0.5-0.5C694.2,114,694.1,114.2,694,114.5
	L694,114.5z M699,112.9c-0.3-0.2-0.5-0.5-0.9-0.4C698.1,113,698.4,113.1,699,112.9z M703.1,179.6c-0.3,0.5-0.3,0.5,0.2,0.7
	C703.4,180,703.3,179.8,703.1,179.6L703.1,179.6z M704.8,117.6c-0.1-0.1-0.1-0.2-0.2-0.4c-0.5,0.2-1.1,0.3-1.4,1L704.8,117.6z
	 M710.6,113.2c0.1-0.7-0.2-0.9-0.9-1C709.7,112.9,710,113.2,710.6,113.2L710.6,113.2z M712.6,283.8c0-0.1,0.1-0.3,0.3-0.3
	c0.2,0,0.3,0.1,0.3,0.2c0.1,0.2,0,0.3-0.2,0.4C712.8,284.1,712.6,284,712.6,283.8z M714,291.3c0.5,0.7,0.1,1.2-0.4,1.7
	c-0.4-0.5-0.5-1-0.5-1.5c0.1-0.1,0.2-0.2,0.4-0.3C713.7,291.2,713.9,291.3,714,291.3z M715.4,105.6c-0.3-0.3-0.7-0.6-1.2-0.2
	l0.5,0.6C715.1,105.9,715.3,105.9,715.4,105.6z M715.2,290.6C715.2,290.6,715.2,290.6,715.2,290.6L715.2,290.6
	C715.2,290.6,715.2,290.6,715.2,290.6L715.2,290.6z M717.7,271.9c0.5,0.3,0.4,0.8,0.6,1.3c-1.5,0.5-1.5,0.5-2.4,0
	C716.4,271.8,716.4,271.8,717.7,271.9L717.7,271.9z M716.4,107.2c0.1-0.2,0.4-0.4,0-0.9C716.2,106.6,716.2,106.9,716.4,107.2
	L716.4,107.2z M716.5,271c-0.2-0.1-0.3-0.2-0.1-0.4C716.6,270.8,716.6,270.9,716.5,271z M719,282c-0.4-0.3-0.5-0.8-1.1-1.1
	c-0.1,0.5-0.5,0.7-0.3,1.1C718,282.4,718.5,282.3,719,282z M719.3,296.2c-0.4-0.6-1.1-0.5-1.7-0.7c0.2,0.4,0.2,0.8,0.9,1
	L719.3,296.2z M718.3,273.1C718.3,273.1,718.3,273.1,718.3,273.1L718.3,273.1L718.3,273.1L718.3,273.1z M719.1,267
	c0.4,0.2,0.4,0.8,0.9,0.7c0.3-0.3,0.3-0.6,0.1-0.9C719.7,266.7,719.4,266.7,719.1,267z M721.4,264.4l0.7,0.1c0.3-0.4,0.4-0.7,0-1.1
	C721.2,263.5,721.5,264,721.4,264.4z M723.3,259.9c-0.1-0.3-0.2-0.6-0.6-0.3C722.8,260,723.1,259.9,723.3,259.9z M723.6,286.9
	c0.2-0.1,0.7,0.1,0.5-0.4C723.7,286.2,723.7,286.6,723.6,286.9z M724.5,257.3l-0.1-0.2C724.4,257.2,724.2,257.4,724.5,257.3z
	 M724.6,262.4c0.4,0.1,0.5-0.1,0.2-0.4C724.6,262.1,724.5,262.3,724.6,262.4z M752.3,238.2c-0.3-1.4-0.5-2.8-1.3-4.1
	c-0.8,0.5-0.9,1.4-1.4,2c-0.5,0.6-0.7,1.6-1.3,1.7c-1.6,2-2,4.4-3.7,5.8l-0.4,1.9c-1.1,0.5-0.8,2.2-2.2,2.5c-0.4,1.4-1,2.6-1.7,3.7
	c-0.8,1.3-1.6,2.5-2,4c-0.2,0.6-0.4,1.1-0.7,1.6c-0.9,1.5-1.9,2.9-2.2,4.8c0,0.2-0.2,0.5-0.4,0.7c-0.7,0.6-1,1.4-0.9,2.3
	c-0.4,0.4-0.7,0.8-1,1.1c-0.3,0.4-0.9,0.4-1.4,0.6l0.9,0.8c-0.2,1.6-2.3,6.5-3.4,8c0.1,1.1-0.5,1.9-1.3,2.4l0.4,1.5
	c-0.4,1.1-0.8,2-0.5,3.2c-1,0.5-0.7,1.3-0.8,2.1c0,1-0.2,2-0.9,2.8c-0.4,0.5-0.5,1.2-0.7,1.7c0.4,0.4,0.8,0.7,1,1.2l-0.2,0.9
	c-1.4,0.7-1.4,0.7-1.1,2c0.8-0.3,1.7-0.2,2.5,0c0.9-0.8,2.2-0.7,3.1-1.2c0.4-0.4,0.1-1,0.6-1.4c1.6-0.1,2.3-2,3.9-2.1
	c0.5-0.8,0.4-1.8,1-2.3c0.6-0.5,0.8-1.1,1.1-1.7c0.2-0.3,0.4-0.6,0.7-0.9c1.8-1.5,3.2-3.4,4.2-5.5c0.4-0.9,0.7-1.8,1.2-2.6
	c1.2-1.7,1.7-3.7,3-5.3c0.1-0.1,0.2-0.3,0.2-0.4c-0.3-1,0.6-1.7,0.6-2.6c0-0.7,0.3-1.4,0.8-2.1c0.4-0.6,0.8-1.3,0.9-2
	c0.1-0.9,0.5-1.7,1-2.5l1.4-0.4c-0.4-0.7-0.6-1.4-1-1.9c0.1-0.8,0.2-1.5,0.2-2.2c0-0.8,0.7-1.2,0.8-1.9c0.2-0.8-0.6-1.3-0.4-2
	c0.4-1.2,0.3-2.6,0.7-3.8c0.5-1.5,0.6-2.8,0-4.2c0.1-0.8,0.5-1.5,0.3-2.2C751.5,240.7,751.9,239.5,752.3,238.2L752.3,238.2z
	 M729.2,248.2c0.1,0.1,0.3,0.3,0.5,0L729.2,248.2z M729.3,297.8c0,0.3-0.4,0.6,0.2,0.8C729.7,298.3,729.7,298.1,729.3,297.8z
	 M731.1,299.6c-0.1-0.2-0.1-0.5-0.5-0.4C730.7,299.4,730.9,299.5,731.1,299.6z M730.9,294.3l-0.1-0.3
	C730.8,294.2,730.6,294.3,730.9,294.3z M731.5,299.8l-0.2-0.1C731.3,299.7,731.4,299.7,731.5,299.8z M732,247.3
	c0.3,0.3,0.6,0.3,0.9,0.2C732.7,247.4,732.5,246.8,732,247.3z M734.5,200.8c0.3,0.4,0.6,0.3,0.9,0
	C735,200.4,734.8,200.5,734.5,200.8z M739.4,287.4c-0.1,0-0.3-0.1-0.3,0.1L739.4,287.4z M740.6,235.7c0.3,0.1,0.5,0.1,0.7-0.2
	c0-0.2,0-0.4-0.3-0.6C740.7,235.1,740.5,235.3,740.6,235.7z M742.8,209.7c0.2,0.8,1,1.3,0.6,2.4c-0.5-0.1-0.7-0.2-1.1-0.5
	c-0.1-0.5,0.3-1.2-0.5-1.4C742.1,209.6,742.4,209.6,742.8,209.7z M744.2,232.1l0.4-0.7C743.9,231.6,743.9,231.6,744.2,232.1z
	 M748.7,226.9c-0.1,0.2,0,0.4,0.2,0.5C748.9,227.2,748.9,227,748.7,226.9L748.7,226.9z M750.1,219l0.1,0.3
	C750.2,219.2,750.3,219,750.1,219z M751,222.1c-0.5,0.3-0.6,0.6-0.7,1l0.6,0.2C751.3,222.8,751.4,222.5,751,222.1L751,222.1z
	 M751.7,221.9c0.2,0.3,0.4,0.5,0.6-0.1C752.1,221.7,751.9,221.8,751.7,221.9z M752.1,263.5c-0.4,0.3-0.3,0.5,0,0.7
	C752.3,264,752.5,263.8,752.1,263.5z M753.2,291c0.2-0.1,0.3,0,0.4,0.1c0.1,0.2,0.1,0.4-0.2,0.5c-0.2,0-0.3,0-0.3-0.1
	C753,291.2,753.1,291.1,753.2,291L753.2,291z M755.6,250.7c-0.7,0.1-1.2,0.2-1.2,1.2C755.8,251.8,755.8,251.8,755.6,250.7z
	 M754.6,248c0,0,0.1,0,0.1-0.1l-0.1-0.1C754.7,247.9,754.6,247.9,754.6,248L754.6,248z M761,219.8c0,0.3,0,0.5,0.5,0.7
	c0-0.3,0-0.4,0-0.6C761.4,219.7,761.2,219.6,761,219.8L761,219.8z M768.5,213.1c0.4-0.4,0.7-1.2,1.7-0.8c0.1,0.2,0.1,0.5,0,0.6
	c-1,0.5-1.5,1.6-2.5,2.1c-0.5-0.4-0.9-0.6-1-1.1C767.1,213.3,767.8,213.4,768.5,213.1L768.5,213.1z M887.2,183.3
	c-0.1,4.4-0.5,8.6-0.9,13.1c-0.1,0.7-0.5,1.7-0.9,2.4c-1.1,4.1-1.9,8-3.3,12.2c-1.3,3.2-2.3,6.6-3.9,9.8c-1.6,3.5-3.6,6.6-4.4,9.3
	c-0.9,1.5-1.7,0.8-2.4,1.6c-0.1,0.7,0.1,1.5,0,2.5c-0.9,1.2-1.9,2.4-3.1,3.6c-0.5,2.6-2.2,4.7-4.2,6.4c-1.9,2.1-3.8,4.5-5.8,6.3
	c-0.7,0.8-1.5,1.3-2.2,2.2c-2.6-0.5-5,0.1-6.7,1.8c-1.7-0.5-3-1.7-4.4-2.6c-0.4-2.7-3.6-4-3.7-6.8c-1.6-1.1-4-0.8-4.5-2.9
	c-0.2-0.6,0.6-1.1,0.9-1.5c-1.5-0.9-2.7-1.8-4.1-2.6c0.1-1,0.9-1.5,1.3-2.2c0.4-0.7,1.9,0.1,1.8-1.4c0,0-0.1-0.3-0.4-0.2
	c-0.6,0.2-1.1,0.6-1.7,0.8s-1.3,1-1.8,1.4c-0.4-0.2-0.4-0.5-0.8-0.7l-0.1-0.3c-1.4-3.1-1.6-6.1-1.5-9.3c0.2-2.6-0.4-4.9-0.4-7.4
	c0-2.2,0.3-4.8,0.3-7c-0.3,1-1.1,1.9-1.5,2.6c-0.1,1-0.2,1.6-0.2,2.6c-1.4,1.9-2.3,4.4-2.8,7c-0.2,0.4-0.3,1-0.5,1.7
	c-1.4,1.9-2.1,4-2.7,6.3c-0.4,0.7-1.1,1.6-2.2,2.5c0.3,1.2-0.1,1.9-0.6,2.4c-0.1,0.7,0,1.2,0.2,1.8c-0.6,0.2-1.1,0.6-1.6,1.1
	c-0.7,2.1-1.6,4.5-2.3,6.6c-0.4,0.7-0.9,1.2-1.6,1.1c-0.2,0.4-0.5,0.4-0.4,0.7c-0.1,1-0.5,1.7-1.2,2.5c-1.4,1.6-2.1,3.7-3,5.2
	c-0.9,1.2-1.6,1.1-2.4,1.6c-0.4,0.7-1.1,1.6-1.6,2.3c-1,0.9-1.9-0.1-3.1,0.2c-0.6,0.2-0.6,1.4-1.1,1.6c-1.1-0.6-2.2-1.3-3.6-1.8
	c-0.3-1.2-0.3-2.4-0.9-3.5c-0.6-1.1-1.5-2.1-1.7-3c-1.4-1.8-3.5-1.3-4.7-2.5c-1.1-1.9-2-3.9-1.6-6.1c0.2-2.6,1.8-3.9,3-5.2
	c0.1-0.7-0.2-0.9-0.5-0.8c-0.8,0.5-1.1,1.6-2.1,1.5c-0.8-0.7-0.8-1.7-0.6-2.3c0.6-1.4,1.6,0.2,2-0.8c-0.5-0.8-1.2-2.2-2.3-1.6
	c0.3-2.3,0.4-4.2,0.6-6.1c0.3-1,1.2-1.3,1.6-2.3l2,0.4c0.1-0.7,0.3-1.3-0.3-2.1c-0.5,0.4-1.2,0-1.8,0.2c-0.7-1.4,0.1-3.2-0.7-3.9
	c0.2-1.6,0.6-2.4,1.5-2.6c0.5-0.4,1-0.9,1.1-1.9c0.3-0.1,0.7,0.1,0.8-0.5c-0.4-0.2-0.6,0.2-0.8,0.5c-0.3,0.1-0.7-0.1-1.1-0.6
	c0.1-1,0.4-2,0.8-3c0.7-0.8,0-2.2,0.8-2.7c1-0.9,0.7-2.1,1-3.1l0.9-0.2c0.2,0.6,0.5,0.8,1,0.1c-0.3,0.1-0.6,0.2-1-0.1
	c-0.2-0.6-0.4-1.5-0.3-2.4c0.9-1.5,0.7-4.3,2.3-5.6c0.1-0.7,0.1-1,0.2-1.6c0.6-1.1,0.9-2.4,2-3c0.1-1-0.1-1.5,0-2.5
	c0.1-0.7,0.6-1.1,1.1-1.6s1.3,0.3,1.9,0.1c0.4-0.7-0.2-0.9-0.4-1.5c-0.3-1.2,0.4-2,0.2-2.9c0.7-0.8,1.1-1.6,1.3-2.2
	c1.2-0.3,1,1.3,1.6,1.4c0.2-0.4,0.4-0.7,0.3-1c-0.5-0.8-0.8-1.7-0.8-2.9c1.4-1.9,2.6-4.1,3.9-6.4c2.4-1.6,3.7-5,6.3-5.7
	c2.5,0,4.7-1,7.3-2c0.7,0.4,2.1,0.7,2.7,0.8c1.5,0.9,1.8,2,2.1,3.2c0.4,0.5,0.8,0.7,1.2,0.9c1.2-0.3,2.1-1.5,2.7-2.6
	c1.6,0.2,3.1-0.2,4.5-0.6c-0.2-0.9-1-0.1-1.6-0.2c-1.2,0-1.6-1.1-1.4-1.8c0.4-2,1.1-4,1.8-6.1c-0.1-0.3,0.1-0.7,0.4-0.7
	c2.5-1.3,4.4,0.1,6.8,0.7c1.3,0.3,3.9,0.5,3.8,2.4c-0.2,4.1,0.3,8.1-0.8,12.1c-0.4,2-0.4,4.5-0.1,6.6c0.8,6.7-0.2,13.2,0,19.7
	c0.2,4.3,0.4,8.3,0.3,12.7c0,1.2,0,2.2,0,3.4c-0.3,1,0,2.5,0.4,3.7c0.6,4.5,0.5,8.9,2,13.2c0.4,0.2,0.4,0.5,0.5,0.8
	c3.7-2.6,3.7-2.6,5.4-5.5l0.4-0.7c2.2-2.5,4.3-4.9,6.4-7.7l0.9-0.2c-0.3-1.2,0.1-1.9,0.5-2.6c1.3-1,1.9-2.1,2.6-3.2
	c0.9-1.5,2-3,4-3.6c0.4-2,1.2-3.8,2.7-5.1c1.5-1.3,1.8-3.6,3.7-4.8c0.8-0.5,1.6,0.2,2.2,0c0.4-0.7-0.5-0.8-0.7-1.4
	c-0.1-0.3-0.2-0.6,0.1-0.7c0.7-2.1,1.6-3.5,3.1-4.9l1.2-0.3c1.1-0.6,0.9-1.5,0-2.2c0.1-1,0.8-1.8,0.9-2.4c0.4-0.7,1.6-1.1,1.7-2
	c0.1-1,0.8-1.8,1.5-2.6c0.4-0.7,1.1-1.6,1.6-2.3c0.5-0.4,0.9-1.5,1.7-1.7C887.2,182.4,887.1,183,887.2,183.3z M794.5,222.5
	c-0.2,0.4-0.8,0.5-0.6,1.4C794.5,223.8,794.5,223.8,794.5,222.5z M797,204c0.8-0.5,1.3-1,1.9-1.1C798.2,202.8,797.4,202,797,204z
	 M824.8,179.4c-0.5-0.8-1.6-1.1-2.3-1.6l-2.4,1.6c-0.1,0.7-0.3,1.3-0.8,1.8c-0.6,0.2-0.9,0.2-1.5,0.1c-1.1,2.8-3,5.2-4.1,8
	c-1.7,2-2.5,4.7-3.4,7.2c-0.5,1.7-1,3.1-1.5,4.8c-0.1,0.7-0.3,1.3-0.7,2.1c-1.3,2.2-1.7,5.2-2.6,7.9c-0.5,1.7-1,3.4-1.6,4.5
	c-0.3,4.8-1.3,9.1-2.8,12.9c0.3,2.1,0.1,4-0.3,6c-0.3,1.3-0.5,2.9-0.4,4.2c-0.1,0.7,0,1.2,0.5,1.8c0.7-0.8,1.1-1.6,1.5-2.6
	c0.6-1.1,1.3-2.2,2-3c0.6-1.1,1.5-2.6,2.1-4c1-2.1,1.9-4.6,3-6.1c0.8-2.7,1.7-5.2,2.7-7.3c0.4-0.7,0.9-0.2,1.4-0.7l0.2-2.9
	c1.1-1.8,0.9-4.6,2.8-5.8c0.8-0.5,1.8,0.8,2.7-0.4c-0.5-0.8-0.8-0.7-1.1-0.6c-0.7-0.1-1-0.3-1.2-0.9c-0.2-0.9,0.6-1.4,0.6-2.4
	c0.1-3.2,1.6-5.7,2.4-8.5c0.8-1.8,1.6-3.3,1.7-5.2c0.4-0.7,0.6-1.1,1.1-1.6c0-1.2-0.3-2.4,0.4-3.2c0.6-1.1,0-2.5,0.3-3.5
	C824,181.1,824.7,180.3,824.8,179.4z M805.4,237.7l-0.3,0.1c0.1,0.3,0.1,0.3,0.4,0.2L805.4,237.7z M812.3,174.6
	c0.3-0.1,0.4,0.2,0.4,0.2l-0.1-0.3l-0.1-0.3L812.3,174.6z M813.9,221.4c-0.1-0.3,0.1-0.7,0.3-1c-0.9,0.2-1.2,0.3-1.3,1
	c0.2,0.6,0.6,1.1,1.1,1.6c0.4,0.2,0.7,0.1,0.9-0.2C814.7,222.1,814.1,222.3,813.9,221.4z M821,206c-0.2-0.6-0.4-0.5-1-0.1
	C820.5,206.5,820.8,206.4,821,206z M820.5,201.8c-0.1-0.3-0.4-0.2-0.4-0.2c-0.1,0.7-0.1,1,0.3,1.2
	C820.6,202.4,820.6,202.1,820.5,201.8z M825.3,191.7c-0.1-0.3-0.2-0.6-0.4-0.5c0,0-0.2,0.4-0.1,0.7S825.1,192.1,825.3,191.7z
	 M831.6,227.9l-0.3,0.1c-0.6,0.2-0.4,0.7-0.3,1.3c0.3-0.1,0.7,0.4,1.2-0.3C832.1,228.7,832.2,228.1,831.6,227.9z M834.9,224.2
	c-0.1-0.3-0.2-0.6-0.5-0.8c-0.2-0.9-1.1-1.6-1-2.5l-1,3.1c0,0,0.1,0.3,0.2,0.6c0.4,0.2,0.7,0.1,1,0.3
	C834.2,225,834.5,224.9,834.9,224.2z M835.5,216.9c-0.4-0.5-0.6-1.1-1.2-0.9C834,217.3,834.9,217,835.5,216.9z M945.2,93
	c0.4,1-0.2,1.3-0.8,1.4c-1,0.2-2.1,0.3-3.2,0.4l-1.7,1.5c-4,1.3-8.5,1.1-11.6,4.3c-3.8,1.5-7.8,1.6-11.3,3.8l-1.7-0.1
	c-0.6,0.4-1.3,1-2.1,1.4c-0.8,0.4-1.8,0.5-2.6,0.8c-2.2,0.6-2.5,0.7-4.5,1.9c-0.4,0.3-0.9,0.5-1.5,0.6l0,0.3c0,0.4,0,0.9-0.1,1.3
	c-0.9,2.5-1.2,5-1.2,7.6c0,2.1-0.5,4.2-1.4,6.1l1.3,1.7c-0.2,1.7,0.3,3.5-0.8,5.2c-0.3,0.4-0.2,1.2-0.1,1.8c0.1,1.3-0.2,2.5-0.5,3.7
	c0,0,0,0.1-0.1,0.3c-0.1,0.7-0.2,1.5-0.1,2.2c0,0.1,0,0.1,0,0.2c0,0.1,0,0.2,0,0.4c0.2,4.2-0.1,8.5-0.7,12.7c-0.1,1-0.1,2.1-0.2,3.4
	l-1.3,1.7c-0.2,1.2,1.3,1.6,1.2,3.5c-0.4,1.2-0.5,3.1-0.4,5c0.2,3.8,0.1,1.2-0.2,5c-0.1,1.5-0.2,2.9-0.1,4.5l0.1,0
	c0.2,1.9-0.4,3.8-0.7,5.8c0.3,1.3,0.6,2.8,0.9,4.5c-1.6,3.2-0.1,6.8-0.3,10.3c0.1,0.8,0.3,1.5,0.3,2.2c0.1,0.2,0.2,0.5,0.4,0.7
	c0,0.1,0,0.1,0,0.2c0.2,0.4,0.3,0.9,0.2,1.4c-0.2,2.4,0.1,4.8-0.3,7.2c-0.1,0.6,0.1,1.1,0.2,1.7c0.1,0.3,0.1,0.5,0.2,0.8
	c-0.1,0.1-0.2,0.1-0.2,0.2c0,0.1,0.1,0.2,0.2,0.3c0.1,0,0.1,0,0.1,0c0.3,0.9,0.6,1.7,0.4,2.6c-0.1,0.6-0.2,1.3,0.1,1.9
	c0.5,1.5,0.2,3.2,0.6,4.7c0.1,0.6-0.2,1.2-0.3,2c0.9,1.5,0.9,3.4,1.5,5c0.4,0.2,0.3,0.2,0.4,0c1-1.9,2.8-3,4.2-4.5
	c1.2-1.3,2.1-2.8,3.2-4.1c1.1-1.4,2.1-2.9,4-3.4c0.1-0.3,0.2-0.5,0.2-0.8c-0.2-1.1,0.1-1.8,1.1-2.3c1.4-0.6,1.7-2.1,2.5-3
	c0.9-0.7,2.1-0.4,2.7-1.2c0.1-0.8-0.8-0.6-1-1c0.6-1.7,1.9-3.4,3.3-4l0,0c0,0,0,0,0,0c0.6,0.7,0.6,0.7,1,0c-0.3-0.2-0.6-0.1-1,0l0,0
	c0,0,0,0,0,0c-0.1-0.5,0-1,0.2-1.4c0.3-0.6,0.9-0.7,1.3-1.1c0-1.5,0.8-2.3,1.9-2.7c0.7-0.9,0.5-2.3,1.7-2.9c0.5,0.7,0,1.5,0.3,2.1
	c0.2,0.2,0.4,0.3,0.6,0.3l0,0c0,0,0,0,0,0c0.1,0.5,0.1,1.1,0.9,1.3c0.1-0.8-0.2-1.2-0.9-1.3l0,0c0,0,0,0,0,0
	c-0.1-0.9-0.2-1.8-0.3-2.8c0-0.2,0-0.5,0.1-0.7c1.1-1.7,1.5-4.1,3.9-4.5c0.1-1,0.1-1-0.3-2c0.3-0.9,1.1-0.8,1.8-1
	c0.7-0.2,1.1-0.7,1.4-1.2c0.1-0.8-0.8-0.8-0.9-1.4c0.1-1.1,1.2-1.2,1.7-1.9c0.4-0.5-0.1-1.1,0.3-1.5c1,0.2,1,0.2,1.8-0.1
	c-0.1-0.6-0.8-0.3-1-0.9c0.6-0.8,1.2-1.6,1.4-2.6c0.9-0.8,2.4-0.3,2.8-1.4c-0.1-0.8-0.7-0.7-1.1-1c0-0.9,0.4-1.6,1-2.3l1.6-0.5
	c-0.3-0.6-0.5-1.2-0.1-1.9c0.4-0.6,1.2-0.5,1.8-1.1c0.3-0.3-0.1-1,0.3-1.6c0.8-0.2,1.1-1.2,1.8-1.8c0.8,1.1-0.3,2.1,0.2,3l-0.8,1.6
	c0.3,3.1-1,5.7-2.2,8.4c0.2,1.2-0.1,2.4-0.7,3.4c-0.2,0.3-0.4,0.7-0.4,1c0.1,1.5-0.7,2.6-1.6,3.8c0.1,2.5-1.3,4.5-2.5,6.8
	c0.6,2.3-0.9,4.1-1.8,6c-0.6,1.3-0.9,2.7-1.2,4c-0.1,0.4-0.1,0.9-0.4,1.2c-0.9,0.8-1.2,1.9-1.4,2.9c-0.3,0.8-1,0.6-1.6,1.3
	c-0.4,2-1.5,3.9-1.7,5.9c-0.6,0.7-1.2,0.1-1.5,0.6c-0.3,0.4-0.1,0.9-0.1,1.3c0,0.6,0,1.4-0.5,1.8c-1.6,1.5-2,3.6-2.6,5.6l-2.1,2.1
	c-0.2,1.5-1,2.7-2.2,3.6c-0.5,1.7-1.1,3.3-2.9,3.7c-0.7,0.7-0.7,1.6-0.9,2.4c-1.7,1-2.1,3.4-4.1,3.9c-0.8,0.9-1,2-1.7,2.6
	c-0.6,0.2-0.8-0.4-1.3-0.5c-0.1,0.4,0.2,0.8-0.2,1.3c-1.2,0.4-2.5,0.8-4,0.7l-0.7,0.7c-0.7,0.2-0.9-0.7-1.7-0.7
	c-0.5,0-0.5,0.8-1.1,1c-1,0.1-1.4-0.7-1.9-1.5c-1.1-1.8-2-3.6-3-5.4c-0.5-0.8-1-1.6-1.3-2.5l0.6-0.9l-0.7,1l-1.8-1.4
	c-2.5,0.4-3.9-1.6-5.4-2.9c-0.5-0.8,0-1.4-0.3-1.9c-0.2-0.6-0.7-0.7-1-1.4c0-1.1-0.9-2.2-0.8-3.5c0-0.7-0.2-1.5-0.5-2.2
	c-0.5-1.4-1-2.8-0.9-4.3c0-0.5-0.2-1-0.3-1.5c-0.1-0.4-0.3-0.9-0.2-1.3c0.3-1.4,0-2.8,0.1-4.1c-1.2-2.6-1.3-7.3-0.1-9.2
	c-0.4-0.7-0.5-5.3-0.4-6.2c-0.1-1.6-0.1-7.4-0.2-9.1l-0.8-1c0.4-3.1,0.1-7.9,0.5-11.4c-0.2-1.7-0.2-3.4,0-5.2c0.3-2.6,0.5-5.1,0-7.7
	c-0.1-0.4-0.2-1-0.1-1.3c1-2,0-4.3,1-6.2c0.4-0.7,0.7-1.4,0.4-2.2c-0.8-2.2,0.2-4.2,0.8-6.3l-0.6-0.9c0.1,0.5,0.1,0.8-0.2-0.3
	c-0.1-1,0-0.7,0.1-0.2c0.9-1.9,0.2-3.4,1.2-5.4c0.1-0.3,0.2-0.6,0.1-0.9c-0.9-1.8-0.1-3.6,0.2-5.3c0.2-1.4-0.2-2.7-0.2-4.1
	c0-1.3,1.4-2.4,0.7-3.9c0.7-2,0.3-4.2,0.7-6.2c0.3-1.2,0.2-2.4,0.2-3.7c-2.4-0.3-3.8,0.2-6.4,1.9l-2.7,0c-0.7,0.5-1.4,1.1-2.3,1.8
	c-0.7-0.1-1.6-0.4-2.4-0.4c-1.1,0-2.1,0.4-3,1c-0.7,0.5-1.4,1.1-2,1.6l-7.1,1.9c-0.8-0.1-1.8-0.3-2.9-0.5c-2,0.3-3.8,0.9-5.1,2
	c-1.6,0-2.5-0.4-2.8-1.6c-0.1-1.8,1.6-3,1.6-4.5c0.4-1.4-1.1-2.3-0.5-3.6c1-1.3,2.5-0.7,3.9-1.3l2.6-2.2c1.8,0.5,3.2-1.1,4.9-0.7
	c2.7-2,5.9-2.3,9.2-2.7l3-2.2c0.8,0,1.7,0.1,2.8,0.2l2.3-1.4c0.5,0.1,1.1,0.2,1.9,0.4c0.1,0,0.5,0,0.7-0.2c1.2-1.1,0.9-0.8,2.4-1.2
	c1.4-0.4,2.8-0.7,3.5-2c0-0.3,0.1-0.6,0.1-0.9l0.4-1.1c-0.1-0.1-0.2-0.2-0.2-0.4c1-3.3-0.9-7.1,0.7-10.7c-1.1-4-0.2-4.2,0.5-7
	l1.6-1.2c-0.6-0.9-1.2-0.3-1.8-0.3c-1-1.1-0.1-2.1,0.1-3.3l3.5-1.5c0.5,1,0.4,1.1-0.3,2.2c0,0.9-0.1,1.7,0.8,2.2
	c-0.2-0.6-0.4-1.1-0.3-1.3c0.7-1.1,1.6-1,2.2-1.5c0.1-0.8-1.1-0.4-1-0.9c-0.8-1.2-0.6-2.3,0-3.4l-1.1-0.4c-1,0.2-1,1.2-1.6,1.8
	l-2.2,1c-0.6-0.3-1-0.7-0.6-1.2c0.6-0.9,1.3-1.8,2-2.8c-1-1.6-2-3.3-0.2-5c0.3-1.1-0.3-4.4,0.4-5.3c0-0.6,0.1-1.2,0.3-1.8
	c0.2-0.7,0.6-1.4,1-2.2c-0.3-2.3-0.7-4.7,1.1-6.8c3.3-0.9,6.3,0.1,9.1,2.1l1.5,4.6c-0.4,3.1-1,6.5-0.8,10c0.1,1.2-0.1,2.5-0.5,3.6
	c-0.9,2.1-0.7,4.1-0.5,6.2c0.5,5.3-0.5,10.6-0.4,15.9c-0.8,1.6-0.5,3.1-0.3,4.8c0.1,0.6,0.1,1.3,0,1.9c0.1,0.1,0.1,0.2,0,0.3
	c0,0.3-0.1,0.7-0.2,1c0,0,0.1,0,0.1,0c1.1-0.3,0-1,1.8-1l2.3,0.4c0.4-0.4,0.9-0.9,1.4-1.4l2.4,0.5c2.3-0.8,5.1-0.8,7.6-2.2
	c1.7,1.1,3.7-0.1,5.4,0.8c1.2-1.2,2.3-2.3,4.3-1.4c1.2,0.5,2.7,0.3,4,0.4l2.5-1.4c0.6,0.1,1.3,0.3,2.1,0.5
	C940.4,92.6,942.9,93.3,945.2,93L945.2,93z M886.1,176c0,0.1-0.1,0.2-0.1,0.2C886,176.2,886,176.1,886.1,176c-0.1-0.5-0.3-1-0.4-1.5
	C885.8,175,885.9,175.5,886.1,176z M893.1,115.8c-0.1-0.7,0-1.5-0.6-2C893.1,114.4,893,115.1,893.1,115.8c-0.1,0-0.1,0-0.2,0.1
	C892.9,115.9,893,115.8,893.1,115.8L893.1,115.8z M893.8,227.6c-0.1,0-0.2,0.1-0.2,0.2c-0.1,0.2-0.1,0.4,0,0.6c0-0.2,0-0.4,0-0.6
	C893.6,227.7,893.7,227.6,893.8,227.6z M893.9,228.9c-0.1-0.1-0.1-0.1-0.2-0.2C893.7,228.8,893.8,228.9,893.9,228.9z M894.2,227.6
	c-0.1,0-0.2-0.1-0.3,0C894,227.5,894.1,227.6,894.2,227.6c0.1,0.1,0.2,0.1,0.2,0.2C894.4,227.7,894.3,227.7,894.2,227.6z M894,95.9
	c0.5,0.5,0.6,1,0.2,1.6C894.5,96.9,894.4,96.4,894,95.9z M896.2,87.4c0-0.6-0.3-0.7-0.8-0.6C895.9,86.7,896.3,86.8,896.2,87.4
	c0,0.1-0.2,0.2-0.4,0.2C896,87.6,896.2,87.5,896.2,87.4L896.2,87.4z M896.7,78.3c0.4,0.2,0.9,0.3,1,0.9
	C897.6,78.6,897.1,78.5,896.7,78.3z M897.9,210.4C897.9,210.4,897.9,210.4,897.9,210.4L897.9,210.4z M897.9,210.4L897.9,210.4
	C897.9,210.4,897.9,210.4,897.9,210.4L897.9,210.4z M898.5,210.9c-0.1,0-0.3-0.1-0.6-0.5C898.2,210.8,898.4,211,898.5,210.9z
	 M898.9,210.5c-0.1-0.1-0.2-0.1-0.3-0.1C898.7,210.4,898.8,210.4,898.9,210.5c-0.1,0.2-0.2,0.3-0.3,0.4
	C898.7,210.8,898.8,210.7,898.9,210.5z M901.3,137c0-0.1,0-0.2,0.1-0.3c0.1,0.2,0.2,3.9-0.1,2.7C901.3,138.6,901.3,137.8,901.3,137
	L901.3,137z M902.9,238.8c0,0-0.1,0-0.1,0.1l0.1,0.1c0,0,0.1,0,0.2,0C903.1,238.9,903,238.8,902.9,238.8z M909.1,235.6
	c0.6,0.3,0.9,0.6,1.7,0.3C910.2,235.1,909.8,235,909.1,235.6z M926.9,202.9c0.2,0.1,0.3-0.1,0.3-0.3c0-0.1-0.2-0.1-0.2-0.2
	c-0.1,0.1-0.2,0.1-0.2,0.2C926.7,202.7,926.8,202.9,926.9,202.9z M982.3,140.3c2.2,3.9,2.3,8.4,3.2,12.6c1.2,5.5,0.8,11.2,1.1,16.9
	c0.1,2.1-0.8,4-1.2,6c-1.3,7.5-2.6,15.1-6.3,22.2c-0.6,1.1-0.2,2-0.6,3c-2.9,7.2-5.6,14.5-11.5,20.5c-1.6,1.6-4.1,3.1-6.5,2.6
	c-2.5-0.5-5.3-1.4-5.7-4.3c-0.2-1.6-1.3-2.7-2.4-3.5c-4.3-3-4.9-7.7-6.6-11.9c1.1-1.4-1.2-2-0.8-3c0.4-1.2-1.1-3.1,1.5-3.7
	c0.4-0.1,0.6-0.5,0.3-0.7c-2.7-1.3-1.1-4-2-6c-0.9-1.9-0.2-4.6,0.3-6.9c0.5-2.7-0.7-4.8-1.7-7c-0.6-1.4-0.8-2.6,1.7-2.5
	c0.8,0,1.1-0.6,1-1.2c-0.1-0.6-0.6-1-1.3-1.1c-0.9-0.1-2.8,1.5-2.6,0c0.2-1.3-1-3.1,1-4.1c1-0.5,1-0.8,0.6-1.6
	c-1-1.8-1.6-3.6-1.3-5.8c0.2-1.6-0.1-3,2.5-2.7c0.9,0.1,1.5-0.4,1.7-1.3c0.2-0.9,0.3-1.7,0.7-2.6c0.9-2.4-1-1.3-2-1.4
	c-1.2-2.3-1-4.3,0.2-6.7c1.2-2.7,2.3-5.5,3.3-8.2c1.6-4.4,5.5-7,9.3-9.7c0.6-0.4,1.5-0.7,2.3-0.8c3.5-0.3,7-0.9,10.4,0.1
	c3.7,1.1,6.8,2.4,8,6.4C979.1,136.2,981.1,138.2,982.3,140.3L982.3,140.3z M972.3,162.7c-0.2-1.4-0.5-2.9-0.2-4.3
	c1.4-5.6-1.4-10.4-2.8-15.4c-0.6-2-2.3-2.5-3.9-1c-1.8,1.7-3.8,3.2-4.8,5.4c0.7,0.8,1.6,0.6,2.4,0.6c3.5,0.1,3.5,0.2,4.6,3.3
	c0.7,1.9,0.9,3.4-2.1,3.8c-0.3,0-0.6,0.6-0.9,1c-3.8,5-5.3,10.8-7,16.4c-1.4,4.8-2.2,9.8-2.1,14.9c0,4.6-0.7,9.3,0,13.8
	c0.5,3.1,0.1,6.5,2.2,9.2c0,0.4,0,0.8,0.1,1.1c0.1,0.2,0,0.3-0.1,0.3c0,0,0.1,0,0.2,0c0.3,0.1,0.4-0.1,0.2-0.5
	c-0.2-0.4-0.4-0.7-0.5-1.1c2-1.3,3.6-2.8,4.1-5.1c0.2-0.9,0.6-1.7,1.8-1.7l0.8-0.1c-0.3,0-0.6,0.1-0.8,0.1c-0.7-2.8,2.2-4.7,2.8-7.3
	c0.1-0.6,1.1-0.2,1.6,0.1c0.4,0.3,0.9,0.4,1.2-0.2c0.2-0.5-0.2-0.7-0.5-1c-0.8-0.7-2.3,0.5-3-0.8c0.8-3.6,4-6.8,3.1-10.7
	c0-0.1,0.1-0.3,0.2-0.4c2-1.7,1.4-4,1.7-6c0.2-1.3-0.3-2.6,0.5-3.9C973.1,169.7,972.7,166.2,972.3,162.7L972.3,162.7z M973.1,186
	c-0.2-1.1-0.9-1.3-1.7-1c-0.4,0.1-0.9,0.6-0.9,0.8c0.1,0.8,0.6,1.3,1.6,1.2C972.8,186.9,973.2,186.5,973.1,186L973.1,186z
	 M976.2,178.5c0.6-0.4,1-0.7,0.4-1.3c-0.4-0.4-0.8-0.8-1.4-1c-0.7-0.2-1.2,0.3-1.3,0.9c-0.1,0.8-0.6,1.7,0.2,2.8
	C975,179.3,975.6,178.8,976.2,178.5L976.2,178.5z M975.1,174.1c0.2-0.2,0.6-0.3,0.7-0.5c0.1-0.2-0.2-0.6-0.4-0.6
	c-0.5-0.1-0.8,0.2-0.8,0.7C974.5,173.8,974.9,173.9,975.1,174.1z M976,163.6c0.4-0.1,1-0.2,0.7-0.7c-0.2-0.3-0.8-0.3-1.1-0.5
	c-0.3,0.3-0.7,0.5-0.6,0.7C975.1,163.6,975.5,163.7,976,163.6L976,163.6z M976.2,153.3c-0.2-0.3-0.5-0.4-0.7-0.1
	c-0.1,0.2-0.1,0.6,0,0.8c0.1,0.3,0.5,0.4,0.7,0.1C976.4,153.9,976.2,153.6,976.2,153.3z M975.9,167.6l-0.3,0.1l0.2,0.3L975.9,167.6z
	 M822.2,463.6c0,0.2,0.1,0.3,0.1,0.5c1.3,3.9,2.4,7.8,2.6,11.7c0.1,1.9,0.4,3.8,0.5,5.7c0.1,0.6,0,1.3-0.1,1.9
	c-0.2,1.5-0.2,4.9,0,6.6c-0.6,1.1-0.5,2.5-0.6,3.8c-0.1,0.6-0.1,1.3-0.3,1.8c-0.1,0.3-0.2,0.6-0.2,0.9c0.2,2.2-0.6,4.1-0.6,6.1
	c0,0.7-0.4,1.2-0.5,1.8c-0.2,1-0.2,2-0.4,3.6c0-0.1-0.3,0.1-0.6,0.3l-0.4,1.8c0.1,0.5,0.2,1,0.4,1.5c-0.4,1.2-0.7,2.5-1.4,3.5
	c-0.6,1.1,0,2.6-0.7,3.6l-0.6,0.2c-0.1,0.9,0.1,2-0.2,2.8c-0.6,1.3-0.5,3-1.6,3.8c0,0.5,0.2,1.1,0.1,1.5c-0.5,1.8-1.5,3.4-1.8,5.4
	c-0.9,1.1-1.2,2.6-1.7,3.9c-0.2,0.5-0.3,1-0.5,1.7l-0.7,0.7c-0.3,0.4-0.1,1-0.2,1.6l-1.2,1.5c-0.1,0.6-0.2,1.2-0.3,1.8l-1.4,1.8
	c0,0.4-0.1,0.8-0.1,1.4c-1.4,1.6-1.5,4.2-3.1,5.6c-0.2,1.3-0.4,2.6-1.6,3.2c0.1,1.4-0.6,2.1-1.6,2.6c-0.1,0.1-0.1,0.2-0.1,0.2
	c0,0.3,0,0.6,0,1c-1.3,1.5-2.5,3.2-3.4,5.1c-0.5,1.1-1.4,1.8-1.8,3c0,0.1-0.2,0.3-0.3,0.3c-0.9,0.3-1.2,1.2-1.8,1.9
	c-0.6,0.6-1.1,1.4-1.1,2.3c-0.4,0.2-0.9,0.3-1,0.5c-0.2,1-1.2,1.2-1.5,2.1c-0.2,0.6-0.7,1.1-1.4,1.3c-0.2,0-0.4,0.2-0.5,0.4
	c-1.1,1.7-2.6,2.9-3.6,4.8c-0.8,0.3-1.5,1-2.5,1.1c-0.6,1.8-0.6,1.8-2.5,1.7c-0.4,0.3-0.4,0.8-0.6,1.4c-0.7,0.4-1.3,1.1-1.8,1.9
	l-2,0.7c-0.2,0.3-0.4,0.6-0.6,0.9l-2.6,0.7c-0.4,0.3-0.8,0.9-1.6,1c-0.7,0.1-1.4,0.4-2.1,0.5l-1.9-0.5c-0.3,0.3-0.5,0.6-0.7,1
	c-1-0.1-2.1-0.1-3.2-0.2c-0.5,0-0.9-0.2-1.4-0.4c-1.4-0.9-2.5-2.2-3.8-2.7c-1.3-1.1-1.5-2.6-2.6-3.9c-2.2-1.1-3.9-2.9-5-5.5l0.2-1
	c-0.2-0.2-0.4-0.4-0.6-0.7l-0.2-6.7c0.1-1.1,0.7-1.2,1-1.6c0.2-0.7,0.2-1.4-0.2-2.1c0.3-1,0.6-1.9,1-2.8c0.2-0.6,0.5-1.2,0.9-1.8
	c0.5-0.9,0.8-1.8,0.8-2.3c1.8-4.7,4.3-8.4,7-12l1.3-0.5c0-0.1,0.1-0.3,0.1-0.4c0-0.6,0.1-1.1,0.5-1.5c0,0,0.1-0.1,0.1-0.1
	c0-0.4-0.1-0.9-0.3-1.3c-0.1-0.3-0.2-0.7-0.1-1c0.4-1.3-0.1-2.5-0.2-3.8c0-1.2,0-2.4-0.5-3.4l0.4-1.9c-0.1-0.3-0.3-0.5-0.4-0.8
	c0.2-1.3,0.2-2.5-0.2-3.7l0.5-1.9c-0.6-1.2-0.3-2.5-0.7-3.8l0.5-1.2c-0.4-1.5-0.5-3-0.3-4.6c0.2-1.6,0.3-3.2-0.2-4.7
	c0.6-1.5,0.6-1.5,0.1-2.6c-0.1-0.9,0.5-1.8-0.1-2.7c0.1-0.6,0.2-1.2,0.4-1.8c0-0.1,0.3-0.3,0.5-0.4c-0.3-0.9-0.5-1.9-0.5-2.9
	c0-0.6-0.1-1.3-0.2-2l0.4-1c-0.7-2,0-3.8,0.1-6.2l-0.4-1.5c0.1-0.9,0.6-1.7,0.4-2.5l1-1c-0.3-0.3-0.5-0.5-0.8-0.8
	c-0.1-0.3-0.2-0.6-0.2-0.8c0.5-1.9,0.4-3.9,0.7-5.8c0-0.3-0.1-0.7,0.2-0.8c0.7-0.3-0.3-1,0.5-1.2l-0.7-0.7c0.6-1.5,0.1-3.1,0.7-4.7
	c-0.6-0.7,0-1.3,0.1-2c0.2-0.9,0.1-1.8,0-2.7c-0.1-1.2,0-1.7,0.7-2.8l-0.5-1c0.3-0.7,0.8-1.5,0.7-2.1c0.4-0.8,1.2-0.6,1.8-1
	l-1.7-0.5c0-0.4,0-0.9,0-1.4l0.6-0.6c0.1-0.5-0.6-0.4-0.8-0.8l0.2-1.1c0.2-0.1,0.4-0.3,0.6-0.4c0.4-0.3,1.2,0,1.5-0.6
	c-0.2-0.6-1-0.2-1.7-1c-0.4-0.5,0.1-1.5,0.3-2.4l0.8-0.8c0-0.1,0.1-0.3,0-0.4c-0.4-1.4-0.2-2.8,0.3-4.1c0.3-0.8,0.4-1.6,0.6-2.5
	c0.1-0.5,0.1-0.8,0-1.3c0,0-0.2,0-0.5,0c-0.2,0.3-0.3,0.7-0.8,0.8c-0.5,0.1-1,0.1-1.5,0.2c-1.5,1.3-3.3,2-4.8,3.2
	c-0.7,0.5-1.6,0.3-2.4,0.7l-0.4,1.5c-0.7,0.4-1.4,0.7-1.8,1.5c-0.4,0.7-1.6,0.5-1.8,1.5c-1.5,0.9-2.3,2.8-4.2,3.2
	c-0.3,0.8-0.8,1.3-1.3,1.8c-2.2,2-3.9,4.4-5.7,6.8c-0.5,0.7-0.8,1.6-1.2,2.4c-0.4,0.3-0.8,0.5-1.4,0.3c-0.7-0.4-0.7-1.2-1-1.8
	l-2.5-2.7c0.2-0.8,0.2-0.8,0.7-1.3l-0.3-0.8c0.5-1.6,1-3.3,2.5-4.2c0.7-0.4,1.1-1.3,1.5-2.1c0.9-1.7,2-3,3.4-4.2
	c1.4-1.1,2.4-2.7,4.1-3.5c1-1.4,2.6-2.2,3.9-3.3c0.1-0.1,0.3-0.1,0.4-0.2l1.1,0.3c0-0.3,0-0.7,0-1.1l1.4-1.7
	c1.8-0.4,3.2-1.7,4.8-2.7c0.5-0.3,0.9-0.3,1.4-0.3l1.7-1.2c0.7-0.2,1.3,0.1,1.9,0.6l-0.2-1c0.5-1.2,1.7-1.2,2.9-0.9l0.1,0
	c0.3,0.3,0.6,0.3,1,0.2c0.4-1,1.2-1.6,2.3-2.3c1.2-0.3,2.4-0.6,3.5-1.3c0.8-0.5,1.8-0.7,2.7-0.8c2.1-0.1,4.1-0.6,6.2-0.8
	c1.1-0.1,2.1-0.1,3.2-0.1c0.7,0,1.4,0,2.1,0l1.2,0.5c0.5-0.1,1.1-0.2,1.7-0.3c2.1,0.3,4.2,1,6.4,1.6l1.4,1.4c0.6,0.3,1-0.1,1.9,0
	c1,0.3,2.2,0.9,3.2,1.9c0.8,0.8,1.6,1.2,2.5,1.8c0.1,0.3,0.2,0.7,0.5,0.8c1.5,1.2,2.8,2.5,3.9,4.1c0.7,1.1,1.8,1.9,2.9,3
	c0.2,0.2,0,0.8,0.2,1.4c1,1,2.2,2,2.8,3.7l-0.2,1.2c0.3,0.3,0.7,0.5,1,0.8c0.4,0.6,0.1,1.2,0.2,1.7l1.3,1.2c0.8,1.9,1.5,3.8,2.3,5.7
	L822.2,463.6L822.2,463.6z M754,578c-0.1-0.1-0.2-0.2-0.3-0.3c0,0.1-0.1,0.1-0.1,0.2c0.1,0.1,0.2,0.2,0.3,0.3L754,578z M766.1,567.9
	l1-0.6c0.3-1.1-0.2-2-1-2.7c-0.3-0.3-0.8-3.1-0.8-5.5c-0.3,0.3-0.5,0.5-0.7,0.7c-0.4,1-0.8,2.1-1.1,3.2c-0.3,1.3-0.8,2.5-1.5,3.5
	c-0.7,1.1-1.1,2.3-1.4,3.6c-0.5,2.6-1.1,5.2-1.1,8c0.5,1.1,0.7,2.3,0.9,3.5c0.9,0.7,1.8,0.6,2.6,1.1c0.9-0.2,1.7-0.3,2.5-0.2
	c1.3-0.6,2.5-1.2,3.7-1.7c-0.1-0.3-0.3-0.6-0.3-1c0-0.7-0.5-1.4-0.6-2.2c-0.1-0.8-0.3-1.7,0-2.3c-0.2-0.8-0.5-1.3-1.3-1.7
	c0.7-0.7,0.5-1.5,0.8-2.3C767,570.4,766.3,569.2,766.1,567.9z M760.1,441.4c0-0.1-0.1-0.1-0.2-0.2l-0.1,0.1c0.1,0.1,0.2,0.1,0.3,0.2
	L760.1,441.4z M761.3,550.9c-0.2,0-0.3,0.4-0.2,0.5c0,0.1,0.1,0.1,0.2,0.1c0.3,0,0.4-0.2,0.3-0.4C761.6,551.1,761.4,551,761.3,550.9
	L761.3,550.9z M763.4,505.7c0.2,0.2,0.1,0.5,0.5,0.5c0.2-0.1,0.3-0.3,0.1-0.5H763.4z M764.3,538.3c0.1,0.1,0.4,0.1,0.6,0.2
	c0.1,0,0.3,0.1,0.4,0.1c0.2-0.4,0-0.8-0.2-1.1c-0.2,0.1-0.4,0.3-0.5,0.4C764.4,537.9,764.1,538.1,764.3,538.3z M765,508.8
	c0,0,0.1,0.1,0.1,0.1c0,0,0.1,0,0.2,0C765.3,508.8,765.2,508.8,765,508.8z M765.5,519.2c0.2-0.3,0.1-0.5-0.1-0.7
	C764.9,518.9,764.9,518.9,765.5,519.2z M766.9,471.7c-0.7-0.2-0.8,0.1-0.7,0.6C766.7,472.3,766.8,472,766.9,471.7L766.9,471.7z
	 M767.2,465.9l0.9-0.6c-0.1-0.4,0-0.8-0.6-0.7C767.2,465.2,767.2,465.2,767.2,465.9z M767.6,460.7c0.5,0.2,0.7-0.1,0.8-0.6
	C767.7,460.1,767.7,460.5,767.6,460.7z M768,436.1L768,436.1l0-0.4c0.1,0,0.2,0.1,0.3,0.1L768,436.1z M768,467.1c0,0,0-0.1,0.1-0.1
	C767.9,467,767.9,467.1,768,467.1z M768.3,595.7l-0.1,0.2c-0.1-0.1-0.2-0.1-0.2-0.1C768,595.5,768.1,595.5,768.3,595.7z
	 M768.2,466.7c0,0,0,0.1,0,0.1C768.3,466.8,768.3,466.7,768.2,466.7z M769.1,448.1c0.2,0.8,0.2,0.8,1,1.2c0,0,0.1-0.1,0.2-0.1
	l-0.1-1.3C769.7,447.6,769.3,447.7,769.1,448.1z M818.6,467.8c0-0.5,0.7-0.6,0.5-1.2c-0.3-0.6-0.8-0.8-1.3-0.9
	c-0.6-0.1-1.1-0.3-1.4-0.9c-0.2-1,0.7-1.4,0.8-2.3l-0.6-0.8c0.3-0.2,0.6-0.5,0.8-0.7c0-0.4-0.1-0.7-0.4-0.9
	c-0.6-0.2-0.6,0.7-1.2,0.4c-0.4-0.2-0.6-0.5-0.6-1c0.1-0.5,0.7-0.5,0.9-0.9c0.2-0.6-0.1-1.2-0.3-2l-1.9-0.4c-0.1-1,0.6-0.9,1.1-1.1
	c0.1-0.5-0.5-0.7-0.7-1c-0.2-0.4-0.2-0.8-0.6-1.1c-0.3,0.2-0.4,0.6-0.8,0.6c-0.5-0.5-0.6-1-0.6-1.6l0.7-0.5
	c-0.2-0.1-0.4-0.2-0.7-0.3l-0.9-1.4c0.1-0.3,0.2-0.6,0.4-0.8c-0.1-0.7-0.6-1.1-1-1.4c-0.5-0.3-0.7,0.4-1.3-0.1c-1-1.5-2.4-3-3.8-4.5
	c-0.7-0.8-1.6-1.4-2.5-1.7c-0.9-0.3-1.6-0.9-2.3-1.5c-0.7-0.4-1.2,0.5-2.2-0.1c-0.5-0.5-0.4-1.5-1-2.2l-0.4,1.2
	c-0.7,0.3-1.1-0.2-1.6-0.5c-0.6-0.2-1.1,0.1-1.8-0.3c-0.5-0.3-0.9-0.7-1.3-1.2c-0.5,0.1-0.3,0.8-0.7,1c-0.4,0.2-0.9,0.1-1.3,0
	c-0.6,0.1-0.7,0.8-1.3,0.7c-0.7,0-0.9-0.8-1.4-1l-2.1,1.2c-0.5-0.1-1.2-0.2-1.9-0.3c-1.1,1-2.7,1.3-4.3,1.6l-1.1-0.4
	c-0.5,0.4-1.1,0.8-1.6,1.2c0,0,0,0.1,0,0.1c0.1,0.1,0.2,0.1,0.3,0.2c0.2,0.2,0.2,0.4,0.2,0.6c-0.2,0.7-0.4,0.6,0,1.2
	c0.3,0.4,0.6,0.9,0.5,1.4c-0.1,0.3-0.4,0.7-0.4,1c0,0.2,0.2,0.5,0.1,0.7c-0.1,0.3-0.5,0.5-0.6,0.8c-0.1,0.2-0.1,0.4-0.1,0.6
	c0,0.6,0.1,1.2,0,1.7c0,1.2-0.3,2.3-1.3,3.1c0.2,0.4,0.5,0.8,0.5,1.1c0,1.1-0.1,2.2-0.2,3.3c0,0.4-0.2,0.7-0.2,1
	c0.3,1.5-0.1,3.1-0.2,4.6c-0.1,1-0.1,2-0.7,2.9c0.7,0.6,0.5,1.4,0.7,2.2l-0.8,2.2c0.4,1,0.2,2-0.1,3.1c0.4,0.6,0.6,1.3,0.7,2
	c-0.5,1.4-0.7,2.8-0.4,4.2c0.2,1.1,0.3,2.2,0,3.4c-0.2,0.9-0.2,2,0,2.9c0.2,0.9,0,1.8,0,2.7c0,2.9,0,5.8-0.2,8.6c0,1,0,2.1-0.4,3.1
	c-0.3,0.8-0.3,1.8-0.1,2.7c0.3,0.9,0.1,1.8,0,2.7c-0.2,2.3-0.4,4.6-0.6,6.9c-0.1,0.8,0,1.5,0.1,2.3c0.1,0.6-0.3,1.1-0.5,1.6l0.4,1
	c-0.2,0.9-0.5,1.8-0.4,2.9c0.1,0.7-0.2,1.4-0.4,2l0.4,0.8c0,0.2,0,0.3,0,0.4c-0.3,0.9-0.5,1.8-0.2,2.7c0.1,0.3,0,0.7,0,1
	c-0.2,2.2-0.5,4.3-0.7,6.5c-0.1,1-0.3,2,0.1,2.8l-0.5,1.3c0,0.2,0,0.3,0,0.4c0.1,0.5,0.2,1,0.2,1.4c0.5-0.2,1-0.5,1.6-0.8
	c1.4-0.6,2.8-1.1,4.4-0.9c0.6,0.1,0.8-0.7,1.4-0.3c0.2,0.3,0.2,0.7,0,0.9c-0.2,0.2-0.3,0.5-0.6,0.6c-3.2,1.8-5,4.9-7,7.8
	c-0.2,0.3-0.4,0.7-0.6,1c-0.1,1-0.1,2.1-0.1,3.1c0,1,0.1,2.1-0.2,3.1c-0.1,0.2,0,11.6-1,13.3c0.1,1,0.3,1.8,0.1,2.8
	c-0.2,0.8,0,1.7,0,2.5c0,0.6,0,1.1-0.1,1.7c-0.1,1-0.5,2.1,0.2,3.1c0.2,0.3,0.1,0.8,0.1,1.2c0,0.7-0.2,1.4,0,2.1
	c0.4-0.2,0.8-0.4,1.2-0.5c0.4-0.2,0.8-0.2,1-0.7c0.1-0.2,0.4-0.4,0.7-0.5c1.1-0.6,2.2-1.1,2.8-2.2c1.5-0.9,2.5-2.3,3.9-3.4
	c0.7-0.6,1.3-1.2,1.8-1.9c0.4-0.7,1.4-0.8,1.7-1.6c0.3-0.7,0.7-1.3,1.4-1.5c0.4-1.3,1.7-1.9,2.2-3.2l1.4-0.5
	c0.7-2.1,1.9-3.8,3.1-5.4l1.4-0.1c-0.1-0.5-0.2-1-0.3-1.4c0.2-0.8,1-1.1,1.4-1.9l0.4-1.6c0.8-0.3,1-1.5,1.9-1.8
	c0.4-2.3,1.6-3.9,3.3-5.3c0.1-0.2-0.3-0.6-0.2-0.9c0.1-0.7,0.5-1,1-1.2c-0.2-0.4-0.3-0.8,0-1.1c0.7-1.1,1.2-2.4,2.1-3.2
	c0.1-0.7-0.1-1.4,0.3-1.9c0.2-0.5,0.7-0.5,1.1-0.7c0.3-0.4-0.1-0.8-0.1-1.2c0.4-0.8,0.7-1.6,1.1-2.4c0.1-0.3,0.4-0.5,0.4-0.8
	c-0.1-1.2,0.5-1.9,1-2.8c0.5-1,1.2-1.8,1.2-3.1c0-0.4,0.3-0.6,0.7-0.7c0.6,0.1,1,0.6,1.2,1.1l0.7-0.4c0-0.6,0-1.1,0-1.6
	c-0.5-0.2-0.4,0.6-0.9,0.5c-0.4,0.1-0.8-0.2-1.1-0.6c0-0.2-0.1-0.5,0-0.7c0.4-1.4,1.2-2.5,1.5-4c0.1-0.4,0.5-0.7,0.8-1l-0.3-0.6
	c0.1-1.1,1.2-1.3,1.4-2.1c0.2-0.4,0.1-1.1,0.4-1.4c-0.6-1.5-0.6-1.5,0.5-2.3c-0.2-1.3,0.3-2.3,0.7-3.2c0.6,0,0.6,0.6,0.9,0.8
	c0.4-1.5,0.1-3.1-0.4-4.7c1-0.2,2,0.3,2.5-0.5c-0.6-0.4-0.6-0.4-1.4-0.1l-0.5-0.6c0.2-1,0.6-1.9,1.3-2.7l1.1,0.2
	c0.4-0.2,0.3-0.6,0.3-1c-0.2-0.7-1-0.2-1.1-0.7c-0.5-0.5-0.1-0.7,0-1.1l-0.3-1.3c0.2-0.4,0.4-0.8,0.6-1.2c0-0.8-0.4-1.6,0.1-2.3
	c0.3-0.5-0.2-1.4,0.3-2.4c0.3-0.2,0.6-0.9,0.9-1.5h1.2c0.2-0.2,0.2-0.4,0.1-0.7c-0.5-0.6-1.1-0.1-1.6-0.5c-0.1-0.1-0.3-0.3-0.3-0.4
	c-0.2-1.8,0.6-2.8,1.8-3.6c0.2-0.2,0.5-0.3,0.7-0.4c0.1-0.9,0.1-0.9-0.4-1.9c-0.4,0.3-0.1,1.1-0.8,1.3c-0.3,0-0.5-0.2-0.7-0.5
	c-0.4-0.9,0.5-1.3,0.3-2.2l-0.4-0.7c0-0.7,0.4-1.3-0.1-2.1c-0.5-0.9,0.5-1.4,0.1-2.3c-0.4-0.8-0.2-1.5-0.1-2.1
	c0.8-0.4,1.5,0.6,2.3,0.4c0.3-0.9-0.4-1.7-0.6-2.6l0.4-2.1c-0.1-0.4-0.4-1.1-0.3-1.6C819.2,468.6,818.8,468.3,818.6,467.8
	L818.6,467.8z M773,435c-0.1-0.3-0.4-0.4-0.6-0.4C772.4,435.3,772.7,435.3,773,435z M774.3,580c-0.1,0-0.1,0.1-0.1,0.1
	c0,0.1,0.1,0.1,0.1,0.2c0.1,0,0.2,0,0.2,0C774.5,580.2,774.5,580.1,774.3,580z M782.3,573c-0.6-0.3-0.6-0.3-1.1,0.2L782.3,573z
	 M782.7,573.1c0-0.2-0.1-0.2-0.3-0.2c0,0.1,0.1,0.1,0.1,0.2C782.5,573.2,782.7,573.1,782.7,573.1L782.7,573.1z M783.9,571.4
	c0,0-0.1,0-0.1,0c0,0.1,0,0.1,0,0.2c0.1,0.2,0.2,0.2,0.2,0C784,571.5,783.9,571.4,783.9,571.4z M785.2,569.7c0-0.1,0-0.2-0.1-0.2
	c-0.2-0.1-0.2-0.1-0.2,0.1c0,0.1,0.1,0.1,0.1,0.2C785.1,569.8,785.1,569.7,785.2,569.7L785.2,569.7z M785.1,571.9l-0.1,0l0.1,0.1
	L785.1,571.9z M789.4,566.1c-0.1-0.2-0.1-0.3-0.2-0.5c-1.3,0.8-1.3,0.8-1,1.1L789.4,566.1z M791.4,563.2c-0.6-0.5-1.1-0.4-1.5,0
	c0.2,0.5,0.5,0.6,0.8,0.7C791,563.7,791.3,563.6,791.4,563.2z M792.6,572c-0.3-0.4-0.6-0.5-1-0.3c-0.1,0.2-0.1,0.4,0.2,0.6
	C792.2,572.5,792.5,572.4,792.6,572z M794.3,558.2l-0.1,0l0.1,0.1L794.3,558.2z M796.5,554.4c0,0-0.1,0-0.2,0l-0.1,0.1
	c0.1,0,0.1,0.1,0.2,0.1C796.5,554.6,796.6,554.5,796.5,554.4z M802.8,543.1l-0.4,0.1C802.6,543.2,802.8,543.4,802.8,543.1z
	 M808.2,530.5c-0.1,0-0.1-0.1-0.2-0.1c-0.1,0-0.1,0.1-0.2,0.1l0.2,0.1L808.2,530.5z M808.4,533.2c-0.1-0.1-0.3-0.1-0.4-0.1l0,0.4
	c0.1,0,0.3,0.1,0.4,0.1C808.4,533.5,808.5,533.3,808.4,533.2z M809.3,527.8l-0.8,0.5c0.5-0.1,0.6-0.1,0.7-0.1
	C809.2,528.1,809.2,527.9,809.3,527.8z M810.1,542.3c-0.1,0-0.1-0.1-0.2-0.1c-0.1,0-0.2,0-0.2,0.1c-0.1,0.1,0,0.2,0.2,0.2
	C810,542.4,810.1,542.3,810.1,542.3z M811.8,522c0.4-0.2,0.9-0.2,0.8-0.9c-0.6-0.6-1.4-0.9-2.1-1.2c0.4,0.8,0.8,1.5,0.8,1.8
	c0,1.2-0.9,1.2-1.1,1.7c0.8,0.9,1.1,0,1.7,0c0.2,0,0.3-0.1,0.2-0.3L811.8,522L811.8,522z M814.2,513.3l-1.6,0.2
	C813.2,514,813.7,513.8,814.2,513.3z M815.9,457.7c-0.1,0.3-0.3,0.3-0.5,0.1c-0.2-0.2-0.1-0.4,0-0.6L815.9,457.7L815.9,457.7z
	 M816,463.1l-0.1,0l0-0.2L816,463.1z M818,467.9c-0.3,0.5-0.6,0.4-0.8,0.1c-0.2-0.5-0.1-1,0.1-1.3
	C817.9,466.8,817.9,467.3,818,467.9z M817.2,497c0.3,0.2,0.6,0.1,0.7-0.2C817.6,496.6,817.4,496.7,817.2,497L817.2,497z M818,499.1
	c-0.1-0.1-0.2-0.2-0.4-0.3c-0.1,0.1-0.2,0.2-0.2,0.3c0,0.1,0.2,0.3,0.3,0.3C818,499.6,818.2,499.3,818,499.1z M818.2,464.2
	c-0.2-0.2-0.4-0.1-0.5,0.2c0.2,0.4,0.4,0.5,0.7,0.2C818.4,464.5,818.3,464.2,818.2,464.2z M818.6,471c-0.5,0.2-0.5,0.2-0.7-0.5
	C818.2,470.5,818.5,470.6,818.6,471z M820.1,480.7c-0.7-0.2-1.3,0.1-1.9,0.8C819.9,481.7,820,481.6,820.1,480.7z M822.6,491.8
	l-0.3,0c0,0,0.1,0.1,0.1,0.1C822.4,491.9,822.5,491.9,822.6,491.8z M887,507.4c-0.3,3.1-1.3,6.3-2.1,9.3c-0.1,0.5-0.4,1-0.7,1.8
	c-1.3,2.9-2.4,5.7-3.7,8.4c-1.2,2.4-2.5,4.6-3.7,6.7c-1.4,2.4-3.4,4.6-4.3,6.4c-0.6,1.1-1.3,0.3-1.8,0.9c-0.1,0.5-0.1,1.2-0.2,1.7
	c-0.9,0.9-1.6,1.6-2.6,2.3c-0.6,2-2.1,3.3-3.6,4.4c-1.8,1.2-3.4,2.8-5.1,4.1l-1.8,1.2c-1.8-0.7-3.6-0.4-5.2,0.5
	c-1.2-0.4-1.7-1.4-2.8-2c-0.1-2-2-3.4-1.9-5.5c-1-1.1-2.8-0.9-3.2-2.4c-0.9-0.9-3.3-4.4-4.3-5c0-0.9,0.6-1.1,0.9-1.8
	c0.4-0.3,1.4,0.1,1.3-1l-0.2,0.1c-0.4,0.1-0.9,0.2-1.3,0.3c-0.4,0.3-0.7,0.7-1.3,1.3c-0.3-0.2-0.3-0.4-0.6-0.5l-0.1-0.2
	c-1-2-1.1-4.1-1.1-5.9c-0.5-0.3-1-0.4-0.8-0.5c0-0.7-1.1-0.8-1.2-2c0.2-1,1.5-2,2.4-3.2l0.2-0.3c0,0,0.2-0.3,0.4-0.3l-0.1-0.2
	c0.3-0.5,0.3-0.5-0.2-0.9c-0.4-0.6-0.7-1-0.5-1.7l0.2-0.1c0.3,0.2,0.3,0.4,0.6,0.5c0.4-0.3,0.6-0.4,0.5-0.8c-0.6-0.5-1.7-0.5-2.3-1
	c-0.7-0.7-0.5-1.7,0.1-2.3c-0.3-0.4-0.4-0.8-0.8-1.2c0.2-1,0.5-1.7,0.7-2.7c0.5,0.1,0.8,0.3,1,0.4c0.4-0.1,0.9-0.2,1-0.5
	c-0.1-0.4-0.1-0.4-2.2-1.5c-0.2-0.9,0.6-1.1,0.9-1.6c-0.2-0.6-0.9-0.7-0.8-1.4l0.5-0.8c0.3,0.2,0.5,0.1,0.7,0c1,0.2,1,1.1,1.6,1.9
	c0.5-0.8-0.2-1.6,0.3-2.4c-0.6-0.5-1-1.1-1.6-1.6c-0.1-0.4,0-0.9,0.6-1.3c0.3,0.2,0.7,0,1,0.2c-0.1-0.4-0.4-0.8-0.6-1.2
	c-0.1-0.4,0.3-0.8,0.7-0.9c0.3,0.2,0.5,0.3,0.9,0c-0.5-0.1-0.7,0-0.9,0c-1-1.1-1-1.1-1.2-2.7c1.3-0.1,1.1,1.5,2.2,1.5
	c0.2-0.1,0.2-0.3,0.4-0.3c0-0.7-0.9-0.7-1-1.1c-0.2-0.6,0.5-0.8,0.9-0.9c-0.3-1.1-1.2-2-1-2.9c0.6-0.4,1.2-0.8,1.8-0.9
	c-0.3-1.1-0.3-2-0.5-2.8c0.5-0.8,1.4-0.6,2-1c0.1,0.4,0.4,0.8,1,0.4c0.1-0.5-0.1-1.1-0.5-1.7c-0.3,0.5-0.2,1-0.6,1.3
	c-0.3-0.4-0.9-0.7-1-1.1c0-0.9,0.6-1.3,1.1-1.9c1.1-0.1,1.6,0.9,2.6,1.1c0.1-0.5,0.3-0.8,0.1-1.2c-0.7-0.7-2.1-0.1-2.4-1.4
	c0.1-0.5,0.5-0.8,0.9-0.9c1.3-0.3,2.5,0.9,4-0.4c0.2-0.3-0.2-0.9-0.4-1.5c-0.5,0.6-0.9,0.9-1.3,1.3c-0.7,0-1.2-0.1-1.5-0.5
	c0.7-1.6,1.5-2.9,3.3-3.9c0.4-0.1,0.7-0.7,0.9-0.9l3.2-0.9c2,0.6,4.2,1.2,6.6,1.5c1,1.3,2,2.4,3.2,3.5c0.1,2,0.1,2,1.3,4
	c0,1.8,0.1,3.9-0.3,5.6c-0.2,1,0.3,2,0.1,3c-0.6,2.2-0.9,4.4-2,6.3c-0.2,0.3,0,0.7-0.2,1c0,0.7-0.4,1-0.9,1.6
	c0.4,2.2-1.7,3.9-2.9,6.3c0.1,0.2,0,0.7,0.1,1.1c-0.2,0.1-0.4,0.3-0.3,0.5c-1.2,0.8-1.7,2.1-2.6,3.2c-0.8,1.4-1.5,2.9-3,4.2
	c-0.9,1.8-2.9,3.1-3.7,4.9l-0.5,0.8c0.5,2.8,2,9.1,2.9,11.9c0.1,0.2,0.4,0.6,0.7,0.7l0.9-0.2c3-1.5,3-1.5,4.5-3.7
	c0,0,0.2-0.3,0.4-0.3c1.6-1.6,3.5-3.2,5.4-4.9l0.6-0.2c-0.2-0.9,0.1-1.4,0.7-1.8c1-0.5,1.5-1.3,2.2-2.2c0.9-0.9,1.8-1.9,3.4-2
	c0.3-1.5,1.4-2.7,2.5-3.6c1.2-0.8,1.7-2.3,3.1-2.9c0.6-0.2,1,0.2,1.7,0.2c0.3-0.5-0.4-0.8-0.6-1.2c0.2-0.1,0.2-0.3,0.1-0.5
	c0.8-1.1,1.7-2.1,2.8-3.3c0.3,0.2,0.7,0,1.2,0.1c0.6-0.4,0.6-1.1,0-1.6c0.3-0.8,0.6-1.1,1.2-1.7c0.3-0.5,1-0.7,1.2-1.5
	c0.3-0.8,0.8-1.1,1.4-1.7c0.4-0.3,0.9-0.9,1.3-1.3c0.5-0.6,0.8-1.1,1.3-1C887,506.7,887.1,506.9,887,507.4z M838.6,532.8l-0.3-0.2
	c-0.4,0.3-0.3,0.8-0.2,1c0.3,0.2,0.5,0.3,0.9,0C839.2,533.3,839.1,532.9,838.6,532.8z M838.4,519.1c0.1,0.2,0.3,0.4,0.6,0.5
	C839.3,518.8,839,518.7,838.4,519.1z M845.7,518c0.1,0.4,0.6,0.5,1.4,0.8c0-0.7-0.1-1.1-0.8-1.2C846,517.5,845.9,517.8,845.7,518z
	 M845.8,515.9c0.4-0.1,0.9-0.2,1.3-0.1c0.4-0.1,0.8,0.5,1.2,0.1c0-0.7-0.9-0.9-0.9-1.6c0.7-0.7,0.4-1.9,1.1-2.8
	c0.6-0.4,1.2,0.4,1.9,0.2c0.2-0.1,0.4-0.3,0.5-0.6l-1.4-0.8c-0.1-0.4-0.2-0.9,0.1-1.2c0.2-0.3,0.5-0.6,1-0.7c-0.3-0.4-0.6-0.5-0.5-1
	c0.6-0.4,1.1-1,1.5-1.3c0.3-0.8,0.3-1.5,0.6-2c0.3-0.8,0.8-1.1,1.2-1.7c0.1-0.5-0.1-1.1-0.2-1.6c0.1-0.5,0.1-1.2,0.7-1.8
	c0.2-0.3,0.9,0,1.2-0.8c0.1-0.5,0-0.9,0-1.6c0.4-0.3,0.6-0.4,0.7-0.7c0.2-0.3,0.9-0.2,0.7-0.7c-0.6,0.2-1.2,0.6-1.8,0
	c0.1-0.5,0.4-1,0.2-1.7c0.1-0.5,0.9-0.9,0.8-1.4c-0.1-0.4-0.2-0.6-0.7-0.7c-0.4,0.3-1,0.5-1.4,0.8c-0.5,0.8-1.2,1.5-1.6,2.5
	c-0.9,1.8-1.9,4-2.5,6c-0.5,0.8-0.8,1.4-1.5,2.2c0.4,0.6,0.3,1.1,0.2,1.6c-0.8,1.4-0.9,2.8-1.4,4.3c-0.3,0.5-0.5,1.5-0.3,2.4
	c-0.1,1.4-0.4,2.6-1,4.2L845.8,515.9z M854.4,505.8l-0.2,0.1l0.1,0.2l0.2-0.1C854.6,505.8,854.6,505.8,854.4,505.8z M855.8,501.5
	l-0.2,0.1c-0.2,0.3-0.6,0.4,0.1,0.4C855.9,502,856.1,501.7,855.8,501.5z M881.5,519.5c-0.3-0.2-0.8-0.3-1-0.2
	c-0.6,0.2-1,0.5-0.8,1.1c0.4,0.6,0.9,0.7,1.6,0.7c0.2-0.3,0.4-0.3,0.5-0.6L881.5,519.5z M896.4,548.8c-1.7-0.6-3.6-1-5.1-2.5
	l-1.4-3.2c0-0.5,0.4-0.6,0.6-1l-0.7-1.7c1.1-1.6,1.2-3.7,2.4-5.4c-1.1-2.2-1.7-4.5-0.6-7.2c0.6,0.1,0.3,0.8,0.7,1.1
	c0.1,0,0.2,0,0.2,0c0.6-0.9,0.3-2.1,1-3l-0.4-1.6c0.1-0.4,0.3-0.9,0.7-0.9c1-0.2,1.5-1.1,2.5-1.6c-0.3-0.8-0.9-1.4-0.7-2.4
	c0.2-0.9,0.6-1.7,1.3-2.4l2.3-0.3c0.5-1-0.4-1.9,0.2-3c1-0.8,1.2,0.8,2.2,0.4c0.4-0.8,0.3-1.8,0.4-2.6c-0.3-0.6-0.6-1.1-1-1.3
	c-1.1-0.3-1.8-1.6-3.1-1.6c-0.2,0-0.4-0.1-0.5-0.2c-1.1-1.7-3.1-1.9-4.7-2.9c-0.3-0.7-0.7-1.3-1.5-1.5l0.4-0.9c-0.7,0-1.4,0.1-2,0.1
	c-0.7-0.4-1.3-0.7-1.9-1c-0.5-0.2-1.1-0.5-1.5-0.6c-0.4-0.3-0.2-0.6-0.1-1L884,497c-0.2-1.1,0.3-2.6-0.4-3.5c0.4-1.2,1.1-2.1,1.7-3
	l0.2-2.3c-0.4-1-0.8-2.1-1.2-3.3l0.3-2c0.7-1,1.1-2.2,2.3-3l1.7,0.8c0.1-0.9-0.7-1.2-0.5-2.3c0.8-0.8,2.1-1.3,2.4-2.8
	c1.5,0.1,2.2-1.2,3.3-1.7c1-0.5,2-1.1,2.9-1.7c0.5-0.1,1.1-0.2,1.5,0.2l-0.7,0.9c-0.1,0.6-0.1,1.2,0.6,1.2c0.6-0.2,1.1-0.7,1.5-1.3
	c0.2-0.6-0.7-0.4-0.6-0.8c-0.1-0.8,0.3-1.3,0.6-1.7c1.6-0.8,3.3-0.8,4.8-2.2c0.7,0.2,1.5-0.1,2.2-0.3c0.6,0,0.6,0.6,1,0.9l1.6,0.5
	c0.3-0.3,0.3-0.4-0.7-1.4c0.1-0.5,0.4-0.7,0.7-0.8c0.3-0.1,0.5-0.1,0.8-0.1c0.4,0,0.7,0,1.1,0c1.1,1.3,2.8,1.9,3.8,3.6
	c-0.4,1.1-0.6,2.3-1.3,3.4c-0.4,0.6-1,0.5-1.5,0.7c-0.5,0.2-0.9,0.6-1.4,1l-2.7,0.4c-1.9,1.1-4,2.2-6,3.4c-0.2,0.1-0.3,0.2-0.5,0.3
	c-1.6,1.4-3.3,2.7-4.9,4c-0.9,0.8-1.8,1.5-2.9,1.7c-0.4,1.1-1.4,1.8-1.6,3c1.7,1,3.5,1.7,4.6,3.1c1.3,0.4,2.5,0.8,3.6,1.2
	c0.5,0.2,1,0.2,1.4,0.6c1.6,1.5,3.7,2.3,5.6,3.5c0.7,0.5,1.3,1.1,1.7,1.9c1.3-0.4,1.9,1,3.1,1.1l1.1,1.3l2.1-0.5
	c1.6-1.3,3.3-2.6,4.9-4l1.9-0.5c1.4-1.5,3-2.3,4.8-2.8c1.2-0.3,2.3-0.8,3.3-1.6c1.5-1.2,3.2-1.4,4.8-2l1.6,0.9c0.9-0.3,1.1-1.4,2-2
	c2-0.3,4.1-0.8,6.2-0.2c-0.1,0.3-0.1,0.6-0.2,0.7c-1,0.8-1.9,1.6-2.9,2.3c-2.3,1.5-4.6,3-6.7,4.8c-1,0.8-2.2,1.3-3.2,2.2
	c-3.5,3.1-7.1,6-10.4,9.2c-0.4,0.4-0.9,0.9-1.3,1.3c0.8,2.2,1.6,4.5,1.7,7.3c-0.1,0.1-0.2,0.4-0.4,0.8c-0.2,0.3-0.4,0.6-0.5,0.8
	c-0.1,0.9,0.5,1.1,0.7,1.4c0.3,1.5-0.4,2.8-0.3,4.1c0,0.3-0.1,0.6-0.3,0.8c-1.2,1.3-1.3,3-1.9,4.5c-0.7,1.8-1.8,3.3-2.9,4.8
	c-0.8,1.3-1.7,2.6-2.9,3.6c-0.8,0.6-1.2,1.7-1.9,2.7c-1.4,1-2.9,2-4.2,3.4c-0.5,0.5-1.1,0.8-1.6,1.1c-2,1.2-4,2.4-6.3,2.9
	C898.1,548,897.3,548.4,896.4,548.8L896.4,548.8z M885.7,484c-0.3,0.2-0.2,0.4-0.1,0.6C886,484.5,885.9,484.3,885.7,484z
	 M890.4,479.2c0.2,0.3,0.5,0.2,0.8-0.1C891,478.9,890.7,478.9,890.4,479.2z M891.4,501c0,0-0.1,0.1-0.1,0.2c0,0.3,0.2,0.4,0.4,0.2
	C891.8,501.1,891.7,501,891.4,501z M897.6,519.6 M901.9,472.3c-0.3,0.2-0.3,0.4-0.1,0.6C902.1,472.7,902.1,472.5,901.9,472.3z
	 M905.6,526.5c1-1.1,2.2-1.9,3-2.7c0.5-1.1,1-1.9,1.4-2.8c0.3-0.6,0.5-1.3-0.1-1.8c-0.9,0.2-1.5,0.8-1.9,1.6c-0.7,1.1-1.6,2-2.3,3
	c-1.2,1.5-2.2,3.2-3.7,5.3C903.8,528.3,904.5,527.8,905.6,526.5z M908.8,508.9c-0.6-0.2-1,0.3-1.4,0.7
	C907.9,509.6,908.5,509.7,908.8,508.9z M908.9,529.5c-0.1-0.3-0.2-0.5-0.5-0.5c-0.2,0.4-0.1,0.7-0.1,1
	C908.6,530,908.7,529.8,908.9,529.5z M954,528.8c-1.9-0.4-3.5,0.1-5,1.2c-1.2-0.2-2-1.1-3.1-1.8c-0.4-2-2.7-3-2.7-5
	c-1.2-1-2.9-0.6-3.4-2.1c-0.1-0.6,0.4-0.9,0.6-1.2l-2.9-1.8c-0.1-0.8,0.6-1.2,0.9-1.8c0.4-0.5,1.5,0.1,1.4-1c-0.1,0-0.2,0-0.3,0
	c-0.5,0.2-0.9,0.3-1.3,0.4c-0.4,0.3-0.8,0.7-1.3,1.1l-0.6-0.4c0-0.1,0-0.2,0-0.3c-0.1,0-0.1,0-0.1,0c-1-2.1-1-4.5-0.9-6.7
	c0.1-1.9-0.4-3.7-0.4-5.5c0-2.6,0.7-5.3-0.4-7.9c-0.2-0.5,0.3-0.7,0.8-0.8c-1.1-1.9-1.1-4.2-0.8-6.1c0.2-1.5,0.3-3.1,0.2-4.6
	c-0.1-1.8,0.9-3.2,1-4.9c0.1-0.9,1.4-0.6,1.9-1.3c-0.7-0.6-2.2,0.1-2.3-1.2c-0.1-1.4-0.5-3.1,1.1-3.9c1-0.5,0.9-1,0.4-1.7
	c-0.1-0.2-0.3-0.4-0.3-0.6c-0.6-2.1-0.3-2.5,2.1-3.1c-0.2-0.9-0.8-0.3-1.2-0.4c-0.9-0.1-1.2-0.7-1.1-1.4c0.3-1.5,0.8-3,1.3-4.4
	c0.1-0.2,0.2-0.4,0.4-0.5c1.7-1,3.3,0,4.8,0.4c1,0.3,3,0.5,2.9,1.8c-0.2,3,0,6-0.7,9c-0.4,1.4-0.1,3.2,0,4.7c0.6,4.9-0.2,9.8,0,14.7
	c0.1,3.1,0.2,6.2,0.1,9.3c0.1,0.8,0.1,1.7-0.1,2.6c-0.2,0.9,0.1,1.8,0.3,2.8c0.6,3.2,0.5,6.5,1.6,9.6c0.1,0.2,0.3,0.5,0.4,0.7
	c2.7-1.9,2.7-1.9,3.9-4.1c0.1-0.2,0.2-0.3,0.3-0.5c1.5-1.9,3.1-3.7,4.7-5.5c0.2-0.2,0.5-0.3,0.7-0.4c-0.2-0.7,0-1.3,0.5-1.8
	c0.8-0.7,1.3-1.5,1.8-2.4c0.7-1.1,1.5-2.2,2.9-2.6c0.2-1.5,1-2.8,2.1-3.9c1.1-1,1.4-2.7,2.7-3.5c0.6-0.3,1.1,0.2,1.6,0.1
	c0.4-0.7-0.5-0.7-0.6-1.1c0-0.2,0-0.4,0-0.5c0.5-1.3,1.4-2.4,2.3-3.6l1-0.1c0.7-0.6,0.5-1.1,0-1.7c0-0.7,0.5-1.2,0.7-1.8
	c0.3-0.6,1.1-0.8,1.1-1.5c0.1-0.8,0.6-1.4,1-2c0.4-0.5,0.8-1,1.2-1.5c0.4-0.5,0.5-1.2,1.2-1.2c0.6,0.3,0.5,0.6,0.5,1
	c0,3.2-0.3,6.3-0.7,9.5c-0.1,0.6-0.4,1.2-0.6,1.9c-0.8,3-1.5,6-2.5,8.8c-0.9,2.4-1.7,4.9-2.8,7.3c-1.1,2.4-2.6,4.7-3.3,6.9
	c-0.5,1-1.3,0.4-1.8,1.1l0,1.8c-0.7,0.9-1.5,1.7-2.2,2.6c-0.4,2-1.6,3.5-3.1,4.9c-1.6,1.5-2.9,3.2-4.4,4.7
	C955.1,527.8,954.6,528.3,954,528.8L954,528.8z M936.2,510.6c-0.1,0-0.2-0.1-0.3-0.1c-0.3,0.3-0.3,0.6-0.3,1l0,0
	c0.3,0,0.6,0.3,0.9-0.1C936.6,511.1,936.5,510.8,936.2,510.6z M936.3,415.2c-0.1-0.3,0-0.7,0.4-0.8c0.5-0.2,0.9,0,1.1,0.4
	c0,0.5-0.4,0.7-0.7,1L936.3,415.2z M936.4,417.3c-0.4-0.6,0.3-1,0.6-1.4c0.1,0.4,0.5,0.8,0.1,1.3
	C936.9,417.4,936.7,417.5,936.4,417.3z M941.1,440.8c-0.5,0.1-0.7-0.2-1-0.6l0.2-2.3c-0.1-0.7-1-1-0.9-2l0.8-0.9
	c-0.4-0.5-1.1-0.5-1.8-0.9l0.5-3.3c-0.2-0.3-0.4-0.7-0.6-1.2c0.3-0.3,0.7-0.6,0.7-1.1c-0.2-0.6-1-0.3-1.1-0.5c-0.9-1-0.8-2-1.2-2.9
	l0.5-2.1c0-0.6-0.9-1.1-0.4-1.9c0.9-0.7,1.4,0.1,2,0.3c0.5-0.4,1.3-0.2,1.7-0.9l-2.8-1.6c0.1,0.3,0.2,0.6-0.2,0.9
	c-0.6-0.2-0.4-0.6-0.1-1c-0.3-0.9,0.5-1.3,1.2-1.8c-0.4-0.8,0.1-1.6,0.5-2.5l-0.8-2.1c0.3-0.7,0.9-0.8,1.4-1
	c0.6-0.2,1.3-0.1,1.9-0.6c0.5-0.4,1.1-0.2,1.7,0c0.8,0.7,0.9,1.8,1.5,2.7l1,0c1.1,1.4,1.1,3.2,0.7,4.9c-0.3,1.3-0.6,2.6-0.7,3.9
	c-0.1,0.7-0.3,1.4-0.4,2.1c-0.2,1.3-0.6,2.6-0.7,3.9c0,0.8-0.2,1.6-0.6,2.3c-0.4,0.9-0.6,1.7-0.6,2.6c0,0.5-0.1,1-0.3,1.6
	c-0.4,1.6-1,3.2-1.3,4.8C941.9,440.2,941.6,440.7,941.1,440.8L941.1,440.8z M937.6,508.3c0.3,0.1,0.6,0,1-0.5
	c-0.1-0.2-0.2-0.4-0.3-0.6c-0.3-0.6-0.8-1.1-0.9-1.9c-0.2,0.7-0.4,1.5-0.6,2.2c0,0.1,0.1,0.3,0.1,0.5
	C937.1,508.2,937.4,508.3,937.6,508.3L937.6,508.3z M937,415.8C937,415.8,937,415.8,937,415.8L937,415.8
	C937,415.9,937,415.9,937,415.8L937,415.8z M939,502.5c-0.2-0.3-0.3-0.8-1-0.7C937.9,502.7,938.4,502.5,939,502.5L939,502.5z
	 M938.2,429.7c-0.1,0-0.2,0-0.2,0C938,429.6,938.1,429.6,938.2,429.7L938.2,429.7z M939.3,424.4l-0.6-0.3c-0.4,0.6-1,1.2-0.2,1.8
	C939.2,425.6,939.5,425.1,939.3,424.4z M938.2,429.7C938.3,429.7,938.3,429.7,938.2,429.7L938.2,429.7
	C938.3,429.8,938.3,429.8,938.2,429.7L938.2,429.7z M940.2,435.1c0.1,0.2,0.1,0.6,0.6,0.5C940.9,435.2,940.6,435.1,940.2,435.1z
	 M940.4,442.2c0-0.2,0.1-0.3,0.3-0.2c0,0,0,0.1,0,0.2c-0.1,0-0.1,0.1-0.2,0.1C940.5,442.3,940.4,442.3,940.4,442.2z M990.2,616.2
	c-2.1-1.3-3.7-3.1-4.6-5.4c-0.3-0.7-0.7-1.3-1.2-1.9c-0.3-0.4-0.7-0.8-1.1-1.1c-2.3-1.7-3.3-4.3-4.4-6.8c-0.2-0.6-0.2-0.7,0.2-1.6
	c0-0.5-0.6-0.1-0.6-0.4c-0.1-0.2-0.3-0.4-0.3-0.5c-0.3-1-0.5-1.9-0.8-3l0.6-1.1c-1.5-1.4-1.6-3.3-2.2-5.3c0.7-1.2-0.2-2.7,0.9-4
	c-1.3-1.4-1-3.1-1.2-4.7c-0.2-1.7,0.5-3.2,0.7-4.9c-0.6-1.5-0.6-3.2-0.1-4.8c0.2-0.6,0.4-1.3,0.3-2c-0.1-1.1,0.3-2.1,0.7-3l-0.5-0.9
	c0.9-3.1,1-6.6,2.3-10c-0.1-1.7,0.3-3.5,1.1-5.3c0.8-2,1.2-4.1,2.2-6.3l0.6-0.4c0.5-0.9,0.3-1.8,0.2-2.5c0.1-0.8,0.6-1.2,0.9-1.8
	l-0.1-1.1c0.1-0.1,0.1-0.3,0.2-0.4c0.7-0.7,0.9-1.6,1.2-2.4c0.3-1,0.4-2,0.7-2.9c0.4-0.9,0.9-1.8,1.5-2.9c0.2-0.6-0.2-1.5,0.4-2.2
	c0.5-0.7,1-1.3,1.6-2c0.2-2.2,1.2-4.1,2.2-5.9c0.8-1.5,1.1-3.1,2-4.5c0.2-0.3,0.2-0.7,0.3-0.9c1.1-1.7,1.8-3.5,2.8-5.3
	c0.5-0.9,1-1.7,1.5-2.5l1-0.2c-0.1-0.3-0.2-0.5-0.3-0.9c0.2-0.7,0.6-1.5,1.2-2.2l0.7-0.2c-0.4-0.6-0.3-1.3,0.1-1.8
	c0.4-0.5,0.8-0.8,1.3-1.3c0.5-2,2.1-3.5,2.7-5.6l1.5-1.5c0.1-1.3,1.1-2.3,1.8-3.1c0.5-1.2,0.1-2.2,0.3-3.1c0.2-1,0-1.9-0.2-2.9
	c-0.2-1.3-0.1-2.6-0.2-3.7c0.3-0.9,1.1-0.7,1.5-1.2c-0.1-0.8-1-0.3-1.3-0.8c-0.9-1.2-0.2-2.1,0.3-3.2c-1.2-0.9-1.5-2.5-2.3-3.6
	l0.6-1.2c0-0.1,0-0.2-0.1-0.2c-0.4-0.3-1-0.2-1.2-0.8c0.2-0.7,0.8-0.3,1.3-0.6c-0.2-1.5-0.2-3-0.1-4.5c-0.2-0.6-1-0.6-1.2-1.3
	c-0.2-0.6,0.5-0.5,0.8-0.9c-0.3-0.9-0.5-1.9-0.1-2.8l-1.1-1.3c-0.2,0.6-0.2,1.2-0.5,1.6c-0.7,1.3-1,2.6-1.1,4.1
	c-0.1,0.9-0.1,1.8-0.6,2.6c-0.5,0.8-0.1,2-0.8,2.8c-0.6,0.7-0.5,1.7-0.7,2.6c-0.4,1.5-0.7,3.1-1.4,4.5c-0.4,1.1-0.4,2.2-1,3.3
	c-0.6,1-0.9,2.1-1.3,3.2c-0.3,0.9-0.7,1.9-0.9,2.9c-0.4,1.5-1.2,2.9-1.8,4.3c-0.9,0.1-1.1,0.2-1.6,0.5c0.1,0.6,0.9,0.4,1.1,0.9
	c-0.1,0.6-0.5,1.2-0.5,1.9c0,1.1-0.6,1.9-1.7,2.4c0.5,1,0.4,1.9-0.2,2.8c-0.5,0.9-0.9,1.8-1.7,2.5c0,1.7-0.9,3.1-1.8,4.4l-0.5,2
	c-0.4,0.7-0.8,0.9-1.2,1.2l-0.5,1.8c-0.2,0.2-0.5,0.4-0.9,0.8c-0.3,0.9-0.7,2-1.5,2.9c-0.1,0.1-0.3,0.3-0.3,0.4
	c-0.1,1.9-1.6,2.9-2.9,3.9c-0.5,0.4-1,0.9-1.4,1.4c-0.7,0.3-1.4,0.6-2.1,0.6c-0.6-0.1-1.1-0.3-1.6-0.6c-1.3-1.7-1.8-3.8-2.4-5.8
	l-1.8-0.3c-1-0.6-1.2-1.6-1.9-2.1c-0.5-2.4-1.1-4.7-0.3-7.1l-0.5-0.7c-0.1-0.7,0.2-1.4,0.4-2.2c0.2-0.6,0.5-1.2,0.7-1.9
	c0.5-0.7,1.5,0.2,1.8-0.6c0.5,0.1,0.7,0.7,1.2,0.4c0.3-0.9-0.7-0.8-0.7-1.5l-1.4,0.7c-0.5-0.1-0.8-0.5-1-0.8c-0.1-0.5,0.2-0.8,0.6-1
	l0.9,0.2c0-0.1,0-0.3,0-0.4c-0.3-0.9-0.5-1.7-0.6-2.7l0.9-0.3c-0.3-0.3-0.7-0.3-1-0.2c-0.3-1.1,0.5-2.1,0.2-3c0.3-0.8,1-0.5,1.4-0.8
	c0.1-0.8-0.9-0.9-1-1.7c0.7-0.9,0.9-2.1,1.3-3.2l0.6-0.1c0.5-0.7-0.4-1.2-0.2-1.7c0.2-0.8,0.7-1.1,1.2-1.4l-0.1-2.3
	c0.4-0.8,0.9-1.2,1.7-1.3l-0.5-0.6c0.2-0.6,0.4-1.2,0.6-1.8l1.1-0.7c-0.2-0.3-0.3-0.6-0.5-0.9c0-0.2,0-0.4,0.1-0.6
	c0.8-1.8,1.6-3.6,2.5-5.4c0.2-0.5,0.8-0.9,1.2-1.3l0.4-1.9c1.7-2.4,2.7-5.3,4.6-7.6c0.4-0.4,1-0.4,1.6-0.6l1.4,0.3
	c-0.4-0.8-1.3-0.8-1.5-1.6c0.5-0.7,0.9-1.5,1.8-1.9c0.2-0.1,0.4-0.3,0.5-0.5c1.3-2.5,3.8-3.7,6.2-4.8c2.2-1.1,4.8-1.5,7.3-1.2
	c0.2,0,0.4,0.2,0.7,0.3c0.1,0,0.3,0,0.5,0l0-1.5c0.1-0.6,0.8-0.6,1-1l-0.1-0.5c-0.2,0-0.5-0.1-0.7-0.1c-0.5-0.5-0.6-1,0.1-1.3
	c0.6,0.1,0.6,0.7,0.8,1.1l0.3-0.9c0.4-0.4,0.9-0.3,1.4-0.3c0.3,0,0.6-0.3,0.8-0.4c1,1.1,1.5,2.6,2.1,3.9c0.7,1.5,1.4,3,2.2,4.7
	c-0.5,1.9,1.6,3.3,1.9,5.4l-0.3,1.2c0.2,0.3,0.5,0.5,0.7,0.8l-0.3,1.1c1.3,2.7,1.1,5.8,2.1,8.6l-0.3,1.6c0.4,0.7,0.8,1.5,0.8,2.6
	l-0.4,0.8c0.7,0.9,1,2,0.9,3.1c-0.1,1.3,0.5,2.4,0.6,3.7c0.5-0.4,0.3-1,0.8-1.2c0.2,0,0.3,0,0.4,0c0.1-0.3,0.2-0.6,0.4-0.8
	c0.3-0.2,0.7-0.3,1-0.5c0.1-0.2,0.4-0.4,0.5-0.6c0.2-0.1,0.4-0.1,0.6,0c0.5-0.3,1-0.6,1.4-1c0.2-0.3,0-0.5,0-0.8l-0.2-0.7
	c0.2-1.4,1.4-2.1,1.8-3.2l2-1c0-0.3-0.1-0.5-0.1-0.8c0.3-1.6,2.3-1.9,2.8-3.4l1.1-0.1c0.5-0.4,0.5-0.9,0.2-1.3
	c0.3-0.5,0.8-0.5,1.2-0.7l0-0.8c0.5-0.7,1.4-0.8,2.1-1.3c0.3-0.8,1-1.4,1.1-2.3c0.1-0.1,0.1-0.2,0.2-0.2c1-0.2,1.3-1.2,1.8-1.7
	c0.6-0.4,1.1,0,1.5-0.5l0-1c1.1-0.8,1.6-2.4,3.5-2.4l-1,2.4c-0.5,0.4-0.9-0.1-1.4,0.1c-0.6,0.7,0.1,1.1,0.4,1.7
	c-0.1,1-0.6,1.8-1.6,2.3l-0.5,2c-0.5,0.6-1.2,1.2-1.5,2.1c-0.7,2-2.1,3.7-3,5.7c-1.7,3.5-3.4,7-5.5,10.2c-1.8,2.9-3.2,6-5.3,8.8
	c-0.2,0.3-0.3,0.6-0.4,1c-0.1,0.3-0.1,0.8-0.3,1c-1.3,1.3-1.8,3.1-3,4.6c0,0.1,0,0.2,0,0.3c0.2,2.1,0.6,4.3,0.2,6.4
	c0,0.3,0.1,0.7,0.1,1c0.1,1.2,0.2,2.5,0.1,3.7c-0.1,1-0.3,2,0.1,3c0.1,0.3,0.1,0.7,0,1c-0.4,1-0.2,2-0.1,3c0.2,2.1,0,4.1,0.1,6.2
	c0.1,2-0.2,4-0.1,6c0,0.5,0,1-0.1,1.5c-0.3,1.1-0.1,2.1,0.1,3.4c-0.8,1.2,0,2.8-0.8,4.2c0.3,1.4-0.3,2.8,0,4.2
	c0.3,1.5-0.7,2.9,0,4.3c-0.9,2.7-1,4.9-0.9,8.8l-0.7,1.6c0.2,2.2,0,4.5-0.9,6.4c-0.2,0.9,0.4,1.5,0,2.2c-0.4,0.7,0,1.5,0,2.2
	c0,0.7-0.2,1.3-0.3,2l-1.3,1.2c0.1,0.3,0.3,0.6,0.5,1c-0.3,1.1-0.5,2.3-0.5,3.5c-0.9,1.1-0.5,2.4-0.8,3.6c-0.3,1.2-0.7,2.4-0.6,3.9
	l-0.9,1.2c0.1,0.8,0.2,1.5,0.4,2.2c-0.5,1.3-0.9,2.7-1.8,4l0.2,1.4c-0.2,0.6-0.4,1.3-0.6,2.1c-0.1,0.4-0.3,0.7-0.7,0.9
	c0.1,0.2,0.3,0.5,0.2,0.7c-0.6,1.1-0.8,2.2-1,3.3c-0.1,0.6-0.5,1-0.9,1.5c-0.5,2.5-1,5.1-2.5,7.2c-0.3,1.7-1.5,2.9-2,4.5
	c-0.3,1-0.8,2-1.6,2.8c-0.8,0.8-1.2,1.8-1.5,2.6c-0.5,0.7-1,0.9-1.6,1.2l-0.6,1.4c-0.3,0.2-0.7,0.3-1.1,0.5
	c-0.4,0.2-0.7,0.4-1.1,0.7c-0.7,0.2-1.5-0.3-2,0.6L990.2,616.2z M970,506.5l0.7,0C970.5,506.1,970.3,506.1,970,506.5z M970.3,492.3
	c0.1-0.1,0.1-0.2,0.2-0.3l0.1,0.4L970.3,492.3z M970.5,492C970.5,491.9,970.5,491.9,970.5,492L970.5,492
	C970.5,492,970.5,492,970.5,492L970.5,492z M970.6,492.5L970.6,492.5L970.6,492.5C970.6,492.4,970.6,492.4,970.6,492.5L970.6,492.5
	C970.6,492.5,970.6,492.5,970.6,492.5L970.6,492.5z M970.7,509.3c0.2,0.7,0.6,0.5,1,0.2C971.4,509.3,971.1,509.2,970.7,509.3z
	 M971.6,506.8c-0.2-0.3-0.5-0.4-0.8-0.3l0.5,1C971.6,507.4,971.7,507.1,971.6,506.8z M973.4,492c-0.3-0.3-0.6-0.6-1.1-0.5l-0.7,0.7
	c0.1,0.3,0.2,0.6,0.2,0.9L973.4,492z M973.9,485.4c-0.2,0.2-0.4,0.5,0,0.7C974.1,485.9,973.9,485.6,973.9,485.4z M974.3,484.3
	c-0.2-0.2-0.3-0.3-0.6-0.2l0.1,1.1C974.2,485,974.4,484.8,974.3,484.3z M975.8,482c-0.3-0.5-0.4-1.2-1.1-1.5l0.2,1.8
	C975.4,482.7,975.7,482.6,975.8,482z M978.2,474.3c-0.4-0.3-0.7-0.3-1-0.1c-0.6,0.5-0.3,1.4-0.8,2.1l-0.6,0.3
	c0.3,0.4,0.7,0.7,1.4,0.5C977.6,476.3,978.1,475.4,978.2,474.3z M977.1,568.8c0.5,0.6,0.8,0.6,1.2,0.2
	C978.1,568.8,977.7,568.8,977.1,568.8z M978,570.5c-0.1-0.1-0.2-0.2-0.3-0.3c0,0.1-0.1,0.1-0.1,0.2c0.1,0.1,0.2,0.2,0.2,0.3
	L978,570.5z M977.9,503.1c0.8-0.1,0.7-1,1.1-1.4c0.7,0.1,1.1-0.2,1.3-0.5c0.1-2-0.4-3.9,1.4-5c0.7,0,1.1,0.2,1.5,0.6l0.7-0.5
	c0.4,0.1,0.7,0.2,1.1,0.3c0.1-0.5,0-1-0.4-1.3c-0.9,0.3-0.9,0.3-2-0.1c0-0.6,0.6-0.8,0.8-1.2c0.2-0.4,0-1,0.7-1.2l0.7,0.1
	c-0.4-1.1-0.3-2.2,0.2-3.2c0.8-0.5,1.7-0.5,2.6-0.4c0.5,0,1,0,1.3-1c-0.9,0.8-1.6,0.4-2.4,0.2c-0.4-0.1-0.8-0.3-0.7-1l1.5-1.2
	c0.3-0.8-0.2-1.6-0.1-2.3c0.3-0.6,0.7-1.1,0.8-1.7c0.3-1.6,0.8-3,2-4.1c0.4-0.4,0.6-1,0.8-1.5c0.3-0.8,0.5-1.6,0.7-2.3
	c0.4-0.5,0.7-0.8,1.2-0.9l-0.6-0.6c0.6-1.5,1.3-2.9,1.5-4.5c0-0.4,0.4-0.7,0.6-0.9l2-0.5c0.5-0.1,0.7,0.9,1.3,0.2
	c-0.3-0.6-0.8-0.7-1.4-0.7c-0.4,0-0.8,0.3-1.2-0.3c0.2-0.9,0.3-1.8,1-2.7l0.9,0.9c0.9-0.1,0.9-0.1,0.8-0.6c-0.2-0.1-0.4-0.2-0.6-0.3
	c-0.2-0.1-0.4-0.3-0.6-0.5l0.1-0.7c0.3-0.2,0.7,0,0.9-0.3l-0.4-0.7c0.4-1.2,0.7-2.4,1-3.5c0.6-0.6,1.6,0.2,1.8-0.8l-0.6-0.8
	c-0.4-0.9,0.3-1.3-0.3-1.8c-0.5,0.6-1.5,0.6-2.3,1.4c0,1-1.3,1.3-1.8,2.2c-0.6,0.9-0.8,2-1.9,2.3c-0.6,1.1-1.3,2.2-1.8,3.3
	c-0.9,1.8-2.4,3.2-2.7,5.3c0,0.2-0.2,0.4-0.4,0.6c-0.4,0.4-0.7,1-0.8,1.5c-0.5,1.6-1.4,3-1.7,4.5l-1,1.1c-0.4,1.4-0.6,2.7-1.7,3.7
	c0.2,1,0.2,2-0.4,2.9c-0.3,0.3-0.3,0.8-0.4,1.2c-0.2,0.9-0.3,1.9-0.7,2.6c-0.8,1.3-1,2.8-1.4,4.2c-0.5,1.8-0.7,3.6-1.3,5.3
	C977.7,499.5,977.6,499.9,977.9,503.1L977.9,503.1z M979.5,470.1c0.1,0,0.3,0,0.4-0.1C979.8,470,979.6,470,979.5,470.1z
	 M983.1,498.5c-0.3,0.1-0.6,0.2-0.8,0.5c0.1,0.4,0.4,0.6,0.9,0.6C983.5,499.2,983.2,498.8,983.1,498.5z M983.2,496.9
	c-0.4,0.5-0.1,1-0.1,1.5C983.5,497.9,983.2,497.4,983.2,496.9z M993.2,600.3c0.6-1.5,1.9-2.7,2.3-4.3c0.1-0.3,0.5-0.6,0.8-0.8
	c0.1-0.8,0-1.5,0.3-2.3c0.3-0.8,0.9-1.6,1.1-2.5c0.2-1.5,1.1-2.5,2.1-3.5c-0.7-1.9,0.1-3.6,0.2-5.1c0.4-1,1.4-1.1,1.6-1.9l-0.4-0.7
	c0.2-1,0.2-2.1,0.7-3c0.5-0.2,1-0.1,1.1-0.6c-0.4-0.6-0.7-1.3-0.7-2c0.2-0.5,0.5-1,0.7-1.6c0.2-0.6-0.4-1.3,0.3-2
	c0.3-0.2,1,0.2,1.2-0.6c-0.1-0.7-1.1-0.6-1.3-1.7c0.1-0.8,0.4-1.9,1.1-2.8l0.9-0.4c-0.1-0.4-0.7-0.1-0.7-0.6l0.3-0.9
	c-0.2-0.3-0.3-0.6-0.4-0.8c0.1-1.1,0.3-2.2,0.4-3.3c0.1-0.9,0-1.8,0.6-2.6c0.1-0.2,0.2-0.5,0.2-0.7c0.1-2,0.9-3.9,0.8-5.9
	c0-0.5,0.1-1,0.2-1.4c0.9-0.9,0.9-1,0.9-1.2l-0.7-0.6c-0.2-1.1,0.5-1.9,1.1-2.7c-0.3-0.9-0.8-1.7-0.3-2.7c0.5-1.1,0.4-2.2,0.2-3.4
	c0-0.2,0-0.5,0-0.7l0.6-0.9c-0.3-1,0.1-2.2-0.6-3.1l0.9-3.4c0.3-1.9-0.8-3.8,0-5.7c-0.3-2.6,0.1-5.1,0.2-7.7c0-1,0.1-2.1,0.7-3.1
	c0,0.1,0.1,0.1,0.1,0.2c0,0,0.2,0,0.2,0c0-0.2-0.1-0.2-0.3-0.2l-0.9-1.4c0.1-1.1,0.2-2.2,0.1-3.3c-0.1-1,0.3-2.1,0.4-3.2
	c0-0.3,0-0.7-0.1-1c-0.1-0.3,0.1-0.8-0.6-1c-0.2,0.4-0.5,0.9-0.6,1.3c-0.3,1.2-0.6,2.4-1.4,3.5c-0.2,0.3-0.2,0.6-0.3,0.9
	c-0.2,0.5-0.4,1.1-0.7,1.6c-0.5,1-1,1.9-1.5,2.9c-0.2,0.4-0.1,1-0.2,1.5c-0.1,0.3-0.3,0.6-0.4,0.9c-0.4,1.4-1.2,2.6-1.4,4
	c-0.2,1.4-1.1,2.6-1.6,3.9c-0.9,2.3-1.4,4.8-2.8,6.9c-0.1,0.2-0.2,0.5-0.2,0.7c-0.1,1.4-0.8,2.5-1.5,3.7l0,1.3c-0.9,1.4-1.5,3-2,4.7
	c-0.4,1.2-1.2,2.2-1.1,3.5c-1.2,3.9-2.8,7.6-3.4,11.7c0,0.1,0,0.2-0.1,0.2c-1,2.4-1.3,5-1.8,7.5c-0.3,1.5-0.4,2.9-1.4,4.2
	c0.5,2.8,0.8,2.3-0.8,5.1c0.8,2,0.6,4.1-0.5,6c0.8,3.4,0.9,6.7,0.6,9.9c0.2,1,0.5,2,0.5,3c0,0.7,0.1,1.3,0.2,1.9
	c0.8,3.1,1.7,6.1,2.5,9.3c0.3,0.3,0.6,0.8,1,1.2c0,0.1,0.1,0,0.4,0.1C991.1,603.4,992.5,602.1,993.2,600.3z M986.8,495.1
	c-0.3,0.1-0.5-0.2-0.5,0.2L986.8,495.1z M987.2,486.5c0.2,0.3,0.4,0.4,0.7,0L987.2,486.5z M990.5,483.9c0.1-0.3,0.3-0.5,0.5-0.8
	c-0.5,0-0.9,0.1-1.1,0.5c-0.1,0.4-0.1,0.8,0.2,1.3C990.5,484.5,990.4,484.1,990.5,483.9z M991.4,480.3c-0.3-0.4-0.6-0.5-1.1-0.3
	c-0.4,0.2-0.6,0.6-0.4,1.2c0.3,0.3,0.5,0.4,1,0.4C991.2,481.2,991.4,480.8,991.4,480.3z M993.3,475.6c1.1-0.6-0.2-1.2,0.3-1.8
	c0.3-0.3,1.3,0.5,1.2-0.6c-0.8-0.2-1.4,0.3-2.1,0.3c0.2,0.6,0.1,1.1-0.2,1.6c-0.1,0.2-0.1,0.3,0.1,0.4L993.3,475.6L993.3,475.6z
	 M993.7,480.4l-0.1,0l0,0.1L993.7,480.4z M1000,591.1c-0.2,0.2-0.2,0.4,0.2,0.7l1-0.2C1000.9,591.3,1000.6,591,1000,591.1z
	 M1000.3,453.1l-0.3,1.3C1000.8,453.9,1000.5,453.6,1000.3,453.1z M1000.7,502.1c0.1,0.2,0.1,0.6,0.4,0.6
	C1001.3,502.2,1001,502.2,1000.7,502.1z M1001.4,591.6c0.1,0.2,0.2,0.2,0.2,0C1001.5,591.7,1001.5,591.7,1001.4,591.6z M1003,585.1
	c0-0.6-0.3-0.7-1-0.7C1002.3,585,1002.6,585.2,1003,585.1L1003,585.1z M1003.3,578.8c0.2-0.3,0.8-0.4,0.8-0.9l-0.2-0.7
	c-1,0.4-1.4,1.2-1.7,2c0.2,0.6,0.8,0.9,0.8,1.5C1003.5,580.1,1003.1,579.4,1003.3,578.8z M1002.9,583.1c0-0.8,0.4-1.5,0.2-2.3
	c-0.3,0.1-0.6,0.3-0.7,0.7l0.2,1.7C1002.8,583.2,1002.9,583.2,1002.9,583.1z M1004.3,573.4c-0.1,0-0.1,0-0.1,0c0,0,0,0.1-0.1,0.1
	c-0.3,0.3-0.1,0.6,0.1,0.9c0.5,0.2,1,0.6,1.6,0.2C1005.6,574.3,1004.3,573.4,1004.3,573.4z M1004.9,498.7c0.1,0,0.1-0.1,0.2-0.1
	c0,0,0-0.1-0.1-0.1c-0.1,0-0.2,0-0.2,0C1004.6,498.6,1004.7,498.7,1004.9,498.7L1004.9,498.7z M1004.9,465.1
	c0.1-0.4,0.2-0.6,0.5-0.6c0.2,0.1,0.4,0.2,0.3,0.5C1005.6,465.4,1005.3,465.4,1004.9,465.1z M1006.9,561.3l-0.3,0.6
	c0.1,0,0.3,0,0.4,0C1007.2,561.7,1007.2,561.5,1006.9,561.3z M1007.1,440.7L1007.1,440.7L1007.1,440.7L1007.1,440.7z M1008.4,550.4
	c-0.3,0.4-0.8,0.4-1.1,0.8c0.3,0.4,0.7,0.3,1.1,0L1008.4,550.4z M1008.6,559.8c-0.4-0.1-0.7-0.1-0.8,0.3l1,0.9L1008.6,559.8z
	 M1008.5,549.9l-0.1,0.3C1008.6,550.2,1008.9,550.2,1008.5,549.9z M1009.4,538.6c-0.1,0.1-0.2,0.2,0,0.2
	C1009.4,538.8,1009.4,538.7,1009.4,538.6z M1009.6,538.5c0,0,0-0.1,0-0.2l-0.1,0.2C1009.5,538.5,1009.6,538.5,1009.6,538.5z
	 M1011.1,517.1c0,0-0.1,0-0.2,0l-0.2,0.2c0.1,0,0.1,0.1,0.2,0.1C1011.1,517.3,1011.2,517.2,1011.1,517.1z M1010.9,521.4l-0.1,0
	l0.1,0.1L1010.9,521.4z M1011.4,514c-0.1,0.2-0.2,0.4,0.2,0.4L1011.4,514z M1012,510.7c-0.1,0-0.2-0.1-0.2-0.1
	c-0.3,0.1-0.2,0.2,0,0.2C1011.9,510.8,1012,510.7,1012,510.7z M1049,505.8c-1,0.6-2,1-3.3,0.8c-1.5-2.4-2.8-5.2-5.3-7
	c-0.9,0-1.7,0.4-2.8-0.3c-1.3-2.7-1.6-5.5-0.9-8.9c-0.9-1.1-1.1-2.6-0.9-4.4c0.2-1.8,0-3.7-0.1-5.5c0-0.5-0.1-1,0.1-1.5
	c0.5-1.7,0.2-3.5-0.5-5.1l0.3-3.9c0.2-0.4,0.6-1,1-1.7l-0.8-1.2c-0.6-2.2,0.1-4.2-0.2-6.3c0.4-0.4,0.8-0.9,1.2-1.3l-1.1-1.5
	c-0.4-1.4,0-2.6,0.4-3.8c-1.1-1.7-0.4-3.1,0.5-4.3c0.1-1.2-0.9-2.2-0.4-3.2c0.5-0.4,1.1,0,1.6-0.2c0.3-0.9-0.9-0.8-1.1-1.5
	c-0.3-1.8,0-3.6,0.3-5.3c0.4-1,1.9-1.1,2-2.6c0-0.5-1.1-0.4-1.3-1c0-0.2-0.1-0.5,0-0.6c0.9-1,1.4-2.2,1.7-3.6
	c1.9,0.1,3.5-1.5,5.5-0.6c0.5,0.4,0.4,1,0.5,1.5l1,0.7c0.1,0.2,0.2,0.4,0.2,0.6c0,0.5,0.1,1.1,0,1.5c-0.7,2.4-0.4,4.9-0.4,7.3
	c0,4.7,0.2,9.5,0.4,14.2c0,0.7,0.1,1.5-0.1,2.1c-0.4,1.1-0.3,2.2-0.1,3.4c0.2,1.1,0.1,2.1-0.3,2.8c0.2,0.7,0.2,1.4,1,1.8
	c0.8-2.7,1.6-5.4,3.8-7.5l-0.2-1.9c0.8-1.6,1.6-3.4,2.5-5c0.8-1.4,1.6-2.8,2.2-4.3c0.7-1.7,2-3,3.1-4.5c0.6-0.8,1.6-1.3,2.5-1.8
	c0.7-0.4,1.5-0.7,2.3-1.2c2.5-0.7,4.4,0,5.4,0.6c3.4,3.1,4.3,7.1,5.1,11.2l-0.5,1.4c0,0.2,0,0.4,0.1,0.6c0.6,1.1,0.8,2.2,0.6,3.3
	c-0.3,1.6-0.3,3.3,0.2,5c0.1,0.5,0.2,1.1,0.1,1.5c-0.5,3.2,0.2,6.4,0.3,9.6c0,0.2-0.1,0.5,0,0.6c0.7,2.1,0.4,3.9,1.3,5.7
	c0.2,0.3,0.4,0.6,0.7,0.8c1.1-0.8,1.8-2,3.3-2.2c0.9-2.1,2.1-3.8,3.9-5c0.6-0.4,0.9-1.3,1.3-2c0.4-0.2,0.9-0.3,1.4-0.5
	c-0.3-0.7-0.2-1.4,0.4-1.9c0.4-0.3,0.8-0.6,1.3-0.8c0.9-2.8,0.4-0.7,2.8-2.5c0.1-1.8,0.5-3.5,2.3-4.6c1.1-0.7,1.5-2,1.9-3.3l1.1,1.1
	c0.8-0.1,0.8-0.8,0.9-1.3l-0.9-0.5c0.3-1.9,1.6-3.2,2.5-4.8c0.6,0,1.1-0.1,1.6-0.1c0.4-0.3,0.5-0.8,0.7-1.4l-0.5-1
	c0.1-0.2,0-0.5,0.2-0.5c1.5-0.7,1.8-2,1.6-3.6l1.2-1.2c1.1,2,0.6,4,0.5,5.9c-0.1,2.1-0.3,4.2-0.7,6.2c-0.5,2.5-1.1,5-1.7,7.5
	c-1.3,1.6-1.6,3.5-1.8,5.5c0,0.4-0.4,0.7-0.6,1c-0.6,1.7-1.8,3.2-2.2,5.1c-0.3,1.7-3.4,5.7-4.7,8.1c-0.6,1.2-1.7,1.9-3,2.4
	c-0.5,0.6-0.6,1.5-1.7,2.1c-1.1,0.3-2.5,1-3.6,1.9c-0.9,0.7-2,1-3.3,1.2c-1.6-0.5-3.3-1.4-5-1.3l0,0.1c-2-1.8-2.8-4-4-6
	c-0.7-0.3-1.5-0.3-2.4-1.2l0,0.1c-0.3-0.4-0.6-0.7-0.8-1.1l0,0c-3-4-3.1-4.4-2.9-6c0.5,0,1,0,1.6,0c0.6-0.8,0.4-1.7,0.4-2.5
	c-0.6-0.5-0.8-0.2-0.9,0.3c-0.1,0.4,0,0.8-0.4,1.1c-0.5,0.2-0.8-0.1-1.2-0.4c-0.6-1.4-1.1-2.9-1.1-4.3c0.6-0.8,1.4,0,1.9-0.4
	c-0.3-1.1-1.5-0.4-2.2-1.2c0-1.8-0.6-3.8,0.3-5.6c-1.2-2.1-0.4-4-0.5-6c-0.7,1.7-1.5,3.5-2.2,5.4c-0.6,1.7-1.4,3.4-2.8,4.8
	c-0.2,1.5-0.7,2.9-1.1,4.4c-0.9,2.8-1.2,5.8-2.7,8.4c-0.1,0.2-0.2,0.6-0.2,0.9c0,2.1-0.7,4-1.3,5.9c-0.2,0.7-0.3,1.4-0.4,2.1
	c-0.2,1.2-0.2,2.4-0.9,3.5c-0.4,0.6-0.4,1.4-0.4,2.1c0.1,3.1-1.1,6-1.6,9C1049.6,504.8,1049.2,505.4,1049,505.8L1049,505.8z
	 M1037.4,465.7c-0.1,0.5,0.2,0.6,0.6,0.7C1037.9,466.1,1037.9,465.7,1037.4,465.7z M1051.5,462.2c0.2,0.2,0.3,0.1,0.3-0.2
	c0-0.1-0.1-0.1-0.2-0.2c-0.1,0-0.2,0.1-0.2,0.1C1051.4,462,1051.4,462.2,1051.5,462.2L1051.5,462.2z M1064.6,456.2
	c-0.2-0.1-0.4-0.2-0.6-0.2l0,0.5c-0.2,0.4-0.4,0.8-0.5,1.3L1064.6,456.2z M1065.9,454.8c0-0.2,0.1-0.4,0.1-0.5
	c-0.9-0.4-0.9-0.4-1.6,0.3l1.1,0.3L1065.9,454.8z M1066,457.2c-0.4,0.1-0.5,0.3-0.5,0.7C1066.3,458.1,1066.4,457.9,1066,457.2z
	 M1079.4,482.4c0.4,0.3,0.7,0.8,1.3,0.4C1080.4,482.1,1079.9,482.4,1079.4,482.4z M1083,479.1c-0.1-0.3-0.4-0.4-0.8-0.4
	c-0.2,0.3-0.1,0.6,0.3,0.6C1082.7,479.4,1083.1,479.2,1083,479.1z M1086.6,472l0.5,0.8C1087.4,472.2,1087,472.1,1086.6,472z
	 M1092.1,468.1c0.1-0.1,0-0.3-0.1-0.6c-0.8,0.4-1.6,0.8-2.1,1.5c0,0.3-0.1,0.6-0.1,0.9c0,0.1,0.1,0.2,0.3,0.7
	C1090.9,469.6,1091.5,468.9,1092.1,468.1z M1091.9,472.2c0,0-0.2,0-0.2,0c-0.1,0.1-0.1,0.1-0.2,0.2c0.1,0,0.1,0.1,0.2,0.1
	C1092,472.5,1092.1,472.3,1091.9,472.2z"/>
</svg>
