<?xml version="1.0" encoding="utf-8"?>
<!-- Generator: Adobe Illustrator 24.3.0, SVG Export Plug-In . SVG Version: 6.00 Build 0)  -->
<svg version="1.1" id="レイヤー_2" xmlns="http://www.w3.org/2000/svg" xmlns:xlink="http://www.w3.org/1999/xlink" x="0px"
	 y="0px" viewBox="0 0 1210 685.2" style="enable-background:new 0 0 1210 685.2;" xml:space="preserve">
<style type="text/css">
	.st0{fill:none;stroke:#FFFFFF;stroke-width:25;stroke-linecap:round;stroke-miterlimit:10;}
	.st1{fill:none;stroke:#FFFFFF;stroke-width:22;stroke-linecap:round;stroke-miterlimit:10;}
	.st2{fill:none;stroke:#FFFFFF;stroke-width:12;stroke-linecap:round;stroke-miterlimit:10;}
	.st3{fill:none;stroke:#FFFFFF;stroke-width:15;stroke-linecap:round;stroke-miterlimit:10;}
</style>
<path class="st0" d="M94.3,272.7l138-39.3l-74.5-7.8c0,0-12.5,217.5,14.1,248s8.2-190.8,8.2-190.8l74.7,26.2l-10,14.3l-43.4,24.7
	l44.4,30.4c0,0-4.6,49-28,45.2c-23.4-3.8,49-67.1,49-67.1l9.7-7.2l6.1-43.3c0,0-8.9,90.9,4,92.8c12.8,1.9,34.7-104,34.7-104
	s-3.5,96.1,11.6,92.5c15.1-3.5,36.7-61.4,36.7-61.4l11.1-129.4c0,0-15.5,174.7,8.9,169.5c24.4-5.2,44.1-68,44.1-68
	s-43.1-31.5-47.3,42s92.7-139.6,92.7-139.6l19.5,52.6l-39.7,96.1c0,0,1-76.1,13-83.5c12-7.5,17.8-5.5,17.8-5.5l6,56.7
	c0,0-1.8,61.8,44.3-30.7l-19.5-12.2l16.9-77.7l56,16.6l-13.2,19.7c0,0-44.3,17.7-35.4,31.8l36.2,21.1c0,0,6.3,43.5-27,40
	s43.7-62.2,43.7-62.2l19.6-90.8l41.5,19.7l-28.3,101c0,0-46.5,30.5,1.9-73.4l23,5.6c0,0-9.6,74.5,14.2,64.5s36.1-51.8,36.1-51.8"/>
<path class="st1" d="M761.1,111.5c0,0,14.9-20.2-3.2-16.9s-51.5,3.8-64.9,25.2c-13.4,21.3-12.4,41.8-7.8,47.3
	c4.6,5.5,57.1,28.7,57.1,28.7s34,71.7,8.4,85c0,0-32.1,40.2-31.8,1.9c0.3-38.3,49.2-67.8,49.2-67.8l45-68.8l27.9,1.2l-27.1,93.5
	c0,0-22.3,21.7-21.3-1.3c1.1-23.1,26.2-66.7,26.2-66.7l19.4,12.9c0,0-1.7,58.4,9.8,58.2s28-33.6,28-33.6l-0.5-47.7l-37.1-42.2
	l115.9-30.5l-51.9-66.3c0,0-19,200.4-1.6,210.6c17.3,10.2,51.4-92.7,51.4-92.7s24-24,28.8-2.3s-3.1,80.1-19.2,73.9
	c-16.2-6.2,4.7-63.5,4.7-63.5"/>
<path class="st2" d="M771.4,440.2c0,0-7,135.2-1.3,133.7"/>
<path class="st3" d="M739.2,466.2c0,0,23.1-40.5,53.5-29.4s26.4,29.8,26.4,29.8s7.5,72.6-38.8,113.1c0,0-18.7,15.2-24.1,1.8
	c-5.3-13.4,17.4-43.2,17.4-43.2l55.7-4.9c0,0,39.7-15.2,26.7-48.6c0,0-20.5,19.2-14.3,35.7l2.3,17.8l9.2,12c0,0,31-28.6,31.8-42.8"
	/>
<path class="st3" d="M914.8,470.9c0,0-29.3,3.8-29.5,19.5l27.4,20.2c0,0,7.6,12-1.3,21.8c-8.9,9.8-15.6,10.7-15.6,10.7
	s8.3-38.7,31.1-48.5"/>
<line class="st3" x1="941.7" y1="411" x2="940.3" y2="438"/>
<path class="st3" d="M942.7,461.4c0,0-5.8,57.1,0.6,61.8s26.4-27,26.4-27s11.5-40.4,27.3-49.8c0,0-10.3,70.4-22.3,62.8
	c-12-7.6,32.4-68.6,32.4-68.6s21.1,155.1-16.4,170.2c0,0-41-37,30.8-129.7l7.1-17.1l-1.3-61.3l14.7,33l-4.3,63.6l7.8,3.7
	c0,0,2.7-53,20.9-54.4c0,0,2.2,41.4,12.5,38.8s23.4-40.9,23.4-40.9"/>
</svg>
